<?xml version="1.0" encoding="UTF-8"?>
<svg id="Layer_2" data-name="Layer 2" xmlns="http://www.w3.org/2000/svg" viewBox="0 0 159.47 159.48">
  <defs>
    <style>
      .cls-1 {
        fill: #0468ad;
      }

      .cls-2 {
        fill: #ffb522;
      }

      .cls-3 {
        fill: #330613;
      }

      .cls-4 {
        fill: #183f63;
      }

      .cls-5 {
        fill: #ddcdbf;
      }

      .cls-6 {
        fill: #89131f;
      }
    </style>
  </defs>
  <g id="Layer_1-2" data-name="Layer 1">
    <g>
      <rect class="cls-3" x="41.37" y="41.37" width="76.73" height="76.73"/>
      <g>
        <path class="cls-1" d="M26.56,139.91v16.98h0c-4.96-1.86-9.46-4.65-13.29-8.16,0,0-.02-.02-.02-.02v-8.81h13.32Z"/>
        <g>
          <path class="cls-5" d="M79.74,0v39.05c0,.78-.02,1.55-.07,2.32-1.16,20.63-17.67,37.13-38.3,38.29-.77.05-1.54.07-2.32.07H0v-38.86C0,18.3,18.3,0,40.87,0h38.87Z"/>
          <path class="cls-4" d="M38.47,18.32h22.95v21.86c0,11.72-9.52,21.24-21.24,21.24h-21.86v-22.95c0-11.12,9.03-20.15,20.15-20.15Z"/>
          <rect class="cls-4" x="39.81" y="79.74" width="13.34" height="60.18" transform="translate(92.95 219.65) rotate(180)"/>
          <path class="cls-6" d="M159.47,79.74v41.84h-.11c-.23,3.3-.86,6.5-1.84,9.53-5.28,16.45-20.7,28.36-38.91,28.36h-38.87v-44.9c0-.3,0-.6,0-.9.04-1.4.16-2.79.36-4.14,2.43-16.85,16.94-29.79,34.47-29.79h44.9Z"/>
          <polygon class="cls-5" points="140.62 79.74 124.94 121.58 121.37 131.11 110.74 159.47 99.99 159.47 110.61 131.11 114.19 121.58 115.5 118.1 118.1 111.15 125.01 92.7 129.87 79.74 140.62 79.74"/>
          <path class="cls-5" d="M159.36,121.58c-.23,3.3-.86,6.5-1.84,9.53h-77.77v-9.53h79.62Z"/>
          <path class="cls-2" d="M159.47,40.87v38.86h-40.07c-.44,0-.87,0-1.31-.02-20.87-.68-37.66-17.47-38.34-38.34,0-.43-.02-.86-.02-1.31V0h38.86c22.57,0,40.87,18.3,40.87,40.87Z"/>
          <path class="cls-2" d="M39.83,79.73v79.74h0v-.02c-4.66-.11-9.12-1.01-13.26-2.56h0v-77.17h13.28Z"/>
          <rect class="cls-4" x="66.4" y="94.89" width="13.34" height="45.03" transform="translate(146.14 234.8) rotate(180)"/>
          <rect class="cls-2" x="53.15" y="86.78" width="13.28" height="72.7"/>
          <rect class="cls-4" x="13.24" y="79.74" width="13.34" height="60.18" transform="translate(39.81 219.65) rotate(180)"/>
          <path class="cls-2" d="M13.26,79.73v69.01s-.02-.02-.02-.02c-8.14-7.47-13.24-18.2-13.24-30.12v-38.87h13.26Z"/>
          <circle class="cls-3" cx="119.61" cy="39.87" r="26.51"/>
          <path class="cls-5" d="M79.74,121.59s41.5-4.74,50.22-41.85l-14.39.09s12.92,37.82-35.84,29.65v12.11Z"/>
        </g>
        <rect class="cls-1" x="66.43" y="139.91" width="13.32" height="19.57"/>
        <rect class="cls-1" x="39.82" y="139.91" width="13.31" height="19.57"/>
      </g>
      <path class="cls-3" d="M159.36,121.58h.11v-2.98c0,1.01-.04,1.99-.11,2.98ZM66.43,159.47h0s13.32,0,13.32,0h0s-13.32,0-13.32,0ZM40.87,159.47c-.34,0-.7,0-1.04-.02h0v.03h13.31s-12.26,0-12.26,0Z"/>
    </g>
  </g>
</svg>
