<?xml version="1.0" encoding="UTF-8"?>
<svg id="Layer_2" data-name="Layer 2" xmlns="http://www.w3.org/2000/svg" viewBox="0 0 747.98 341.39">
  <defs>
    <style>
      .cls-1 {
        fill: #0468ad;
      }

      .cls-2 {
        fill: #197222;
      }

      .cls-3 {
        fill: #ffb522;
      }

      .cls-4 {
        fill: #330613;
      }

      .cls-5 {
        fill: #183f63;
      }

      .cls-6 {
        fill: #ddcdbf;
      }

      .cls-7 {
        fill: #89131f;
      }
    </style>
  </defs>
  <g id="Layer_2-2" data-name="Layer 2">
    <g>
      <g>
        <rect class="cls-4" x="178.62" y="244.16" width="53.41" height="53.41" transform="translate(-44.54 40.45) rotate(-10.16)"/>
        <g>
          <path class="cls-1" d="M176.28,318.62l2.08,11.64h0c-3.62-.67-7.05-2.02-10.11-3.96,0,0-.01,0-.01,0l-1.08-6.04,9.12-1.63Z"/>
          <g>
            <path class="cls-6" d="M195.55,216.22l4.79,26.76c.1.53.18,1.07.24,1.6,1.74,14.27-7.55,27.61-21.54,30.94-.52.13-1.05.24-1.58.33l-26.76,4.79-4.77-26.63c-2.77-15.47,7.52-30.25,22.99-33.02l26.63-4.77Z"/>
            <path class="cls-5" d="M172.14,233.43h15.98v15.22c0,8.16-6.62,14.78-14.78,14.78h-15.22v-15.98c0-7.74,6.29-14.03,14.03-14.03Z" transform="translate(-41.09 34.42) rotate(-10.16)"/>
            <rect class="cls-5" x="181.59" y="274.62" width="9.28" height="41.89" transform="translate(421.66 553.65) rotate(169.84)"/>
            <path class="cls-7" d="M259.97,261.08l5.14,28.67h-.08c.25,2.3.21,4.57-.09,6.77-1.6,11.92-10.71,21.97-23.18,24.21l-26.63,4.77-5.51-30.77c-.04-.21-.07-.41-.1-.62-.15-.97-.23-1.93-.26-2.88-.4-11.85,7.95-22.49,19.96-24.64l30.77-5.51Z"/>
            <polygon class="cls-6" points="247.05 263.39 241.44 293.99 240.17 300.96 236.37 321.69 229 323.01 232.8 302.28 234.08 295.31 234.55 292.76 235.47 287.68 237.95 274.19 239.69 264.71 247.05 263.39"/>
            <path class="cls-6" d="M265.03,289.76c.25,2.29.21,4.56-.09,6.76l-53.29,9.55-1.17-6.53,54.56-9.77Z"/>
            <path class="cls-3" d="M255.2,234.44l4.77,26.63-27.46,4.92c-.3.05-.6.1-.9.15-14.39,2.1-27.95-7.35-30.98-21.57-.06-.29-.12-.59-.17-.89l-4.92-27.46,26.63-4.77c15.47-2.77,30.25,7.52,33.02,22.99Z"/>
            <path class="cls-3" d="M177.99,275.76l9.79,54.64h0s0-.01,0-.01c-3.2.49-6.37.43-9.4-.12h0s-9.47-52.88-9.47-52.88l9.1-1.63Z"/>
            <rect class="cls-5" x="200.74" y="281.81" width="9.28" height="31.35" transform="translate(460.01 554.1) rotate(169.84)"/>
            <rect class="cls-3" x="192.36" y="277.74" width="9.24" height="50.61" transform="translate(-50.35 39.48) rotate(-10.16)"/>
            <rect class="cls-5" x="163.38" y="277.88" width="9.28" height="41.89" transform="translate(386.11 563.34) rotate(169.84)"/>
            <path class="cls-3" d="M159.78,279.02l8.47,47.29s-.01,0-.01,0c-6.49-4.12-11.31-10.85-12.77-19.01l-4.77-26.63,9.09-1.63Z"/>
            <circle class="cls-4" cx="227.76" cy="238.65" r="18.45"/>
            <path class="cls-6" d="M210.47,299.54s27.86-8.34,29.28-34.84l-9.85,1.83s13.49,24.33-20.92,24.71l1.49,8.3Z"/>
          </g>
          <rect class="cls-1" x="204.73" y="312.81" width="9.27" height="13.62" transform="translate(-53.08 41.92) rotate(-10.16)"/>
          <rect class="cls-1" x="186.5" y="316.07" width="9.26" height="13.62" transform="translate(-53.94 38.76) rotate(-10.16)"/>
        </g>
        <path class="cls-4" d="M265.03,289.76h.08s-.37-2.06-.37-2.06c.12.69.22,1.37.29,2.06ZM206,327.13h0s9.12-1.63,9.12-1.63h0s-9.12,1.63-9.12,1.63ZM188.49,330.27c-.24.04-.48.09-.72.12h0s0,.02,0,.02l9.12-1.63h0s-8.4,1.5-8.4,1.5Z"/>
      </g>
      <g>
        <path class="cls-5" d="M474.9,40.9s5.07,62.09-25.93,92.23c-30.99,30.14-60.61,19.89-75.13,60.94,0,0,23.61-142.31,101.06-153.17Z"/>
        <path class="cls-5" d="M469.79,43.73s10.64,52.87,41.55,74.91c30.91,22.04,51.31,10.18,72.09,43.19,0,0-51.49-117.35-113.64-118.1Z"/>
        <path class="cls-4" d="M727.66,341.39H0s72.46-28.15,134.68-39.36c24.69-4.45,53.84-.46,80.95,6.41,9.81,2.49,20.05,2.73,29.95.62,43.46-9.27,92.37-18.45,138.51-24.35,137.53-17.62,343.57,56.68,343.57,56.68Z"/>
        <path class="cls-7" d="M533.15,279.48c-1.11,13.05-4.22,26.28-11.97,35.32-17.43,20.36-52.48,12.98-60.79-15.22-3.33-11.31-2.76-23.8-.66-35.53s5.66-23.01,8.26-34.59c12.4-55.23,2.51-113.58-2.72-170.44-.6-6.47-.38-14.65,4.53-17.38,2.92-1.62,6.49-.4,8.98,2.04s4.11,5.92,5.6,9.35c9.09,20.97,15.45,43.48,21.57,65.97,7.48,27.51,14.68,55.16,20.33,83.29,4.83,24.01,8.55,48.67,7.15,73.32-.07,1.28-.16,2.57-.27,3.86Z"/>
        <path class="cls-2" d="M747.98,138.8c-60.73-37.3-83.13-4.6-150.71-17.72-51.11-9.92-98.65-55.5-118.79-77.13-1.49-1.6-3.57-2.5-5.76-2.5h0c-2.84,0-5.46,1.52-6.85,4-12.66,22.47-41.62,67.18-80.17,85.11-52.45,24.4-77.36,2.32-119.3,44.99,2.15-2.88,62.29-82.89,128.73-122.51-20.02-6.8-33-17.08-58.45-5.53,1.04-.71,73.56-50.17,128.57-41.64,52.98-21.02,137.15,21.11,139.25,22.17-19.51-5.9-30.91-1.15-43.02,5.49,89.64,26.14,184.73,103.81,186.51,105.27Z"/>
        <path class="cls-4" d="M567.67,326.37c-2.16-1.37-28.13-25.26-55.17-17.34-27.05,7.92-31.92-17.41-54.18-14.19-22.26,3.22-44.26,31.53-44.26,31.53h153.62Z"/>
      </g>
    </g>
  </g>
</svg>
