<?xml version="1.0" encoding="UTF-8"?>
<svg id="Layer_2" xmlns="http://www.w3.org/2000/svg" version="1.1" viewBox="0 0 153.7 177">
  <!-- Generator: Adobe Illustrator 29.1.0, SVG Export Plug-In . SVG Version: 2.1.0 Build 142)  -->
  <defs>
    <style>
      .st0 {
        fill: #6300ff;
      }

      .st1 {
        fill: #fff;
      }
    </style>
  </defs>
  <path d="M144.6,177H9.1c-5,0-9.1-4.1-9.1-9.1v-91C0,34.4,34.4,0,76.9,0h0c42.4,0,76.9,34.4,76.9,76.9v91c0,5-4.1,9.1-9.1,9.1h0Z"/>
  <path class="st0" d="M112.4,87.3c0-.5-.4-.9-.9-1.1-1-.5-2.1-.5-4.1-.3-1.5.2-2.7.5-4.3.9-.6.2-1.3.3-2.1.5-1.2.3-2.1.5-3,.8-1.3.4-2.6.7-4.6,1.2-2.4.5-4.1.9-6.3,1.3-1,.2-2,.4-3.3.6-1.2.2-2.3.4-3.3.6-2.4.5-4.4.9-7.6,1.4-4.5.8-6.9,1.1-11.6,1.7h-.9c-4.2.7-6.8,1-11.2,1.4-5,.4-7.5.5-11.6.6-4.1,0-6.2,0-9.8-.5-3.5-.5-5.1-.9-7.6-1.8-2.6-.9-3.6-1.6-5.3-2.7-1.6-1.1-2.1-1.7-2.8-2.8-.6-1-.6-1.4-.6-2.6v-.2c0-.3,0-.6,0-.8.2,0,.5-.2.8-.2,3.2-1,5-1.6,8.3-2.7,2.3-.8,3.8-1.3,5.5-2,.6-.2,1.3-.5,2-.8.9-.3,1.6-.6,2.3-.8,1.5-.5,2.7-1,4.4-1.7,2.4-1,3.6-1.5,5.5-2.6l.3-.2c1.6-.9,2.4-1.4,3.7-2.6,1.3-1.3,1.9-2.2,2.4-3.8.5-1.7.5-2.8,0-4.4-.5-1.7-1.2-2.5-2.4-3.6-1.3-1.1-2.2-1.6-3.9-2.1-1.7-.5-2.9-.6-5-.3-1.6.3-2.7.7-4,1.4-.4.2-.7.3-1.1.5-2,.9-3.1,1.5-5.3,2.8-2.2,1.3-3.3,2-5.3,3.6-1.9,1.5-2.9,2.5-4.5,4.1l-1.2,1.1c-1.4,1.4-2.4,2.4-3.7,4.1-1.5,2-2.3,3.1-3.2,5.3-.4.9-.7,1.7-.9,2.4-.2,0-.4.1-.6.2-.8.2-1.6.4-2.6.7-1,.3-2,.6-2.8.8,0,0,0,0-.1,0v4.2c.2,0,.4-.1.5-.2,1-.3,2.1-.7,3.5-1.1.7-.2,1.2-.4,1.8-.5.1,2,.4,3.3,1.6,5.1,1.3,2,2.5,2.8,4.9,4.2,2.3,1.4,3.7,1.9,6.8,2.7,3,.8,4.8,1,8.6,1.3,3.7.3,5.7.2,10.1,0h.1c4.5-.2,7.1-.4,11.8-.9,4.2-.4,6.8-.8,10.6-1.3l1.6-.2c4.8-.7,7.1-1,11.7-1.7,2.6-.4,4.5-.8,6.4-1.1,1.4-.2,2.8-.5,4.5-.8,2.1-.3,3.7-.6,5.1-.8,1.5-.2,2.8-.4,4.6-.7,1.8-.3,3-.5,4.2-.8,1.1-.2,2.2-.4,3.5-.6,1.2-.2,2.1-.3,3-.4,1.2-.1,2.2-.3,3.4-.6,2.1-.5,3-.9,3.7-1.7.4-.4.5-.9.5-1.4ZM14.5,78.3c1.2-1.7,2.2-2.7,3.9-4.3,1.7-1.6,2.6-2.5,4.4-3.9,1.8-1.3,2.9-1.8,4.8-2.8,1.9-.9,3-1.3,4.8-1.7,1.3-.3,2.1-.4,3.1-.4.3,0,.5,0,.8,0,.3,0,.5,0,.7,0,.5,0,.8,0,1.2,0,.3,0,.6,0,.9,0,.5,0,.9,0,1.2,0,.3,0,.5,0,.7,0,.2,0,.3,0,.5,0,0,0,0,.2-.3.5-.3.5-.6.9-1.4,1.7-.2.2-.3.3-.4.5-.6.6-1.1,1.1-2.2,2-1.4,1.1-2.4,1.8-4.5,2.9-1.7.9-2.9,1.4-4.8,2.2-.4.2-.9.4-1.4.6h-.2c-2.5,1.2-4,1.8-7,2.9-2.5.9-4.1,1.5-6.4,2.2.4-.8.8-1.5,1.6-2.5Z"/>
  <g>
    <path class="st1" d="M17.1,169.3c-1.9,0-3.7-.3-5.3-1-1.6-.7-2.8-1.7-3.7-3-.9-1.3-1.4-2.9-1.4-4.8s.3-3,1-4c.7-1.1,1.6-1.9,2.7-2.5,1.1-.6,2.4-1.1,3.8-1.4s2.8-.5,4.3-.7c1.8-.2,3.3-.4,4.4-.5,1.1-.1,2-.3,2.5-.6.5-.3.8-.8.8-1.5v-.2c0-1.1-.2-2-.7-2.7-.4-.7-1.1-1.3-2-1.7-.9-.4-2-.6-3.3-.6s-2.5.2-3.5.6c-1,.4-1.7.9-2.3,1.5-.6.6-1,1.2-1.3,1.9l-5.7-1.4c.7-1.7,1.7-3.1,3-4.2,1.3-1.1,2.8-1.8,4.5-2.3,1.7-.5,3.4-.7,5.2-.7s2.6.1,4,.4c1.4.3,2.7.8,3.9,1.5s2.2,1.7,3,3.1c.8,1.3,1.2,3,1.2,5.1v19.2h-5.9v-4h-.3c-.4.7-1,1.5-1.8,2.2-.8.7-1.8,1.3-3,1.7-1.2.5-2.6.7-4.3.7ZM18.4,164.7c1.7,0,3.1-.3,4.2-.9,1.2-.6,2.1-1.4,2.7-2.4.6-1,.9-2.1.9-3.2v-3.7c-.2.2-.6.4-1.3.6s-1.3.3-2.1.4c-.8.1-1.5.2-2.3.3-.7,0-1.3.2-1.8.2-1.1.1-2.2.4-3.1.7-.9.3-1.7.8-2.3,1.4-.6.6-.8,1.4-.8,2.4s.3,1.7.8,2.3c.5.6,1.2,1.1,2,1.4.9.3,1.9.5,3,.5Z"/>
    <path class="st1" d="M53.4,169.2c-1.9,0-3.4-.3-4.6-.9-1.2-.6-2.1-1.3-2.8-2.1-.7-.8-1.2-1.5-1.6-2.1h-.5v4.5h-5.9v-38.6h6.1v14.3h.3c.4-.6.9-1.3,1.5-2.1.7-.8,1.6-1.5,2.7-2.1,1.2-.6,2.7-.9,4.6-.9s4.7.6,6.6,1.8c1.9,1.2,3.5,2.9,4.6,5.1,1.1,2.2,1.7,4.9,1.7,8s-.5,5.8-1.7,8c-1.1,2.2-2.6,4-4.6,5.1-1.9,1.2-4.1,1.8-6.6,1.8ZM52,164.4c1.8,0,3.2-.4,4.4-1.3,1.2-.9,2.1-2.1,2.7-3.6.6-1.5.9-3.3.9-5.2s-.3-3.6-.9-5.1c-.6-1.5-1.5-2.7-2.7-3.6-1.2-.9-2.7-1.3-4.4-1.3s-3.2.4-4.4,1.3c-1.2.8-2.1,2-2.7,3.5-.6,1.5-.9,3.2-.9,5.3s.3,3.8.9,5.3c.6,1.5,1.5,2.7,2.7,3.6,1.2.9,2.6,1.3,4.3,1.3Z"/>
    <path class="st1" d="M83.5,169.2c-2.9,0-5.4-.6-7.5-1.9-2.2-1.2-3.8-3-5-5.2-1.2-2.2-1.8-4.8-1.8-7.8s.6-5.6,1.8-7.9c1.2-2.3,2.9-4,5-5.2,2.2-1.2,4.7-1.9,7.5-1.9s5.4.6,7.6,1.9c2.2,1.2,3.8,3,5,5.2,1.2,2.3,1.8,4.9,1.8,7.9s-.6,5.6-1.8,7.8c-1.2,2.2-2.9,4-5,5.2-2.2,1.2-4.7,1.9-7.6,1.9ZM83.5,164.4c1.9,0,3.4-.5,4.6-1.4s2.1-2.1,2.7-3.7c.6-1.5.9-3.2.9-5s-.3-3.5-.9-5.1c-.6-1.5-1.5-2.8-2.7-3.7s-2.8-1.4-4.6-1.4-3.4.5-4.6,1.4-2.1,2.2-2.7,3.7c-.6,1.5-.9,3.2-.9,5.1s.3,3.5.9,5c.6,1.5,1.5,2.8,2.7,3.7s2.7,1.4,4.6,1.4Z"/>
    <path class="st1" d="M112.7,169c-2.1,0-3.9-.4-5.5-1.2s-2.8-2.1-3.7-3.7c-.9-1.6-1.3-3.6-1.3-6v-18.4h6.1v17.7c0,2.1.6,3.7,1.7,4.9,1.2,1.2,2.7,1.8,4.7,1.8s2.6-.3,3.7-.8c1.1-.6,1.9-1.4,2.5-2.5.6-1.1.9-2.4.9-3.9v-17.1h6.1v28.9h-5.8v-7.1s.5,0,.5,0c-.9,2.6-2.2,4.5-3.9,5.7-1.7,1.2-3.8,1.8-6.1,1.8Z"/>
    <path class="st1" d="M146.9,139.7v4.6h-16.7v-4.6h16.7ZM134.7,132.8h6.1v28c0,1.2.3,2,.8,2.5.5.5,1.4.8,2.6.8s.7,0,1.2-.1c.5,0,1-.1,1.3-.2l1.1,4.6c-.6.2-1.3.4-2.1.5-.7,0-1.5.1-2.2.1-2.8,0-5-.7-6.5-2-1.5-1.4-2.3-3.3-2.3-5.7v-28.5Z"/>
  </g>
</svg>