<?xml version="1.0" encoding="UTF-8"?>
<svg id="Layer_2" xmlns="http://www.w3.org/2000/svg" version="1.1" viewBox="0 0 153.7 177">
  <!-- Generator: Adobe Illustrator 29.1.0, SVG Export Plug-In . SVG Version: 2.1.0 Build 142)  -->
  <defs>
    <style>
      .st0 {
        fill: #fff;
      }
    </style>
  </defs>
  <path class="st0" d="M145,72.6v84.9c0,4.6-3.6,8.5-8.1,8.5H16.9c-4.4,0-8.1-3.8-8.1-8.5v-84.9C8.8,33,39.3.9,76.9.9s68.1,32.1,68.1,71.7Z"/>
  <path class="st0" d="M-89.6,5.9C-51,5.9-19.5,37.9-19.5,77.1v90.2c0,2.2-1.8,4-3.9,4h-132.4c-2.1,0-3.9-1.8-3.9-4v-90.2c0-39.2,31.5-71.2,70.1-71.2M-89.6.9c-41.5,0-75.1,34.1-75.1,76.2v90.2c0,5,4,9,8.9,9H-23.4c4.9,0,8.9-4.1,8.9-9v-90.2c0-42.1-33.7-76.2-75.1-76.2h0Z"/>
  <g>
    <path class="st0" d="M17.1,230.1c-1.9,0-3.7-.3-5.3-1s-2.8-1.7-3.7-3c-.9-1.3-1.4-2.9-1.4-4.8s.3-3,1-4c.7-1.1,1.6-1.9,2.7-2.5s2.4-1.1,3.8-1.4,2.8-.5,4.3-.7c1.8-.2,3.3-.4,4.4-.5s2-.3,2.5-.6.8-.8.8-1.5v-.2c0-1.1-.2-2-.7-2.7-.4-.7-1.1-1.3-2-1.7s-2-.6-3.3-.6-2.5.2-3.5.6c-1,.4-1.7.9-2.3,1.5s-1,1.2-1.3,1.9l-5.7-1.4c.7-1.7,1.7-3.1,3-4.2,1.3-1.1,2.8-1.8,4.5-2.3s3.4-.7,5.2-.7,2.6.1,4,.4c1.4.3,2.7.8,3.9,1.5s2.2,1.7,3,3.1c.8,1.3,1.2,3,1.2,5.1v19.2h-5.9v-4h-.3c-.4.7-1,1.5-1.8,2.2s-1.8,1.3-3,1.7c-1.2.5-2.6.7-4.3.7h.2ZM18.4,225.5c1.7,0,3.1-.3,4.2-.9,1.2-.6,2.1-1.4,2.7-2.4s.9-2.1.9-3.2v-3.7c-.2.2-.6.4-1.3.6s-1.3.3-2.1.4c-.8.1-1.5.2-2.3.3-.7,0-1.3.2-1.8.2-1.1.1-2.2.4-3.1.7s-1.7.8-2.3,1.4c-.6.6-.8,1.4-.8,2.4s.3,1.7.8,2.3,1.2,1.1,2,1.4c.9.3,1.9.5,3,.5h.1Z"/>
    <path class="st0" d="M53.4,230c-1.9,0-3.4-.3-4.6-.9-1.2-.6-2.1-1.3-2.8-2.1s-1.2-1.5-1.6-2.1h-.5v4.5h-5.9v-38.6h6.1v14.3h.3c.4-.6.9-1.3,1.5-2.1.7-.8,1.6-1.5,2.7-2.1,1.2-.6,2.7-.9,4.6-.9s4.7.6,6.6,1.8c1.9,1.2,3.5,2.9,4.6,5.1,1.1,2.2,1.7,4.9,1.7,8s-.5,5.8-1.7,8c-1.1,2.2-2.6,4-4.6,5.1-1.9,1.2-4.1,1.8-6.6,1.8,0,0,.2.2.2.2ZM52,225.2c1.8,0,3.2-.4,4.4-1.3,1.2-.9,2.1-2.1,2.7-3.6.6-1.5.9-3.3.9-5.2s-.3-3.6-.9-5.1c-.6-1.5-1.5-2.7-2.7-3.6-1.2-.9-2.7-1.3-4.4-1.3s-3.2.4-4.4,1.3c-1.2.8-2.1,2-2.7,3.5-.6,1.5-.9,3.2-.9,5.3s.3,3.8.9,5.3c.6,1.5,1.5,2.7,2.7,3.6,1.2.9,2.6,1.3,4.3,1.3v-.2h.1Z"/>
    <path class="st0" d="M83.5,230c-2.9,0-5.4-.6-7.5-1.9-2.2-1.2-3.8-3-5-5.2s-1.8-4.8-1.8-7.8.6-5.6,1.8-7.9c1.2-2.3,2.9-4,5-5.2,2.2-1.2,4.7-1.9,7.5-1.9s5.4.6,7.6,1.9c2.2,1.2,3.8,3,5,5.2,1.2,2.3,1.8,4.9,1.8,7.9s-.6,5.6-1.8,7.8c-1.2,2.2-2.9,4-5,5.2-2.2,1.2-4.7,1.9-7.6,1.9ZM83.5,225.2c1.9,0,3.4-.5,4.6-1.4s2.1-2.1,2.7-3.7c.6-1.5.9-3.2.9-5s-.3-3.5-.9-5.1c-.6-1.5-1.5-2.8-2.7-3.7s-2.8-1.4-4.6-1.4-3.4.5-4.6,1.4-2.1,2.2-2.7,3.7-.9,3.2-.9,5.1.3,3.5.9,5,1.5,2.8,2.7,3.7,2.7,1.4,4.6,1.4Z"/>
    <path class="st0" d="M112.7,229.8c-2.1,0-3.9-.4-5.5-1.2s-2.8-2.1-3.7-3.7c-.9-1.6-1.3-3.6-1.3-6v-18.4h6.1v17.7c0,2.1.6,3.7,1.7,4.9,1.2,1.2,2.7,1.8,4.7,1.8s2.6-.3,3.7-.8c1.1-.6,1.9-1.4,2.5-2.5s.9-2.4.9-3.9v-17.1h6.1v28.9h-5.8v-7.1h.5c-.9,2.6-2.2,4.5-3.9,5.7-1.7,1.2-3.8,1.8-6.1,1.8h.1Z"/>
    <path class="st0" d="M146.9,200.5v4.6h-16.7v-4.6h16.7ZM134.7,193.6h6.1v28c0,1.2.3,2,.8,2.5s1.4.8,2.6.8.7,0,1.2-.1c.5,0,1-.1,1.3-.2l1.1,4.6c-.6.2-1.3.4-2.1.5-.7,0-1.5.1-2.2.1-2.8,0-5-.7-6.5-2-1.5-1.4-2.3-3.3-2.3-5.7v-28.5h0Z"/>
  </g>
  <path d="M120,110.1v16.8l-10.4-5.4c-6.8-3.6-11.1-10.6-11.1-18.3h0c0-7.3,5.9-13.1,13.1-13.1h0v-26.9l-15.1-1.1v14.5h-12.1v-15.6h-15.1v15.6h-12.1v-14.5l-15.1,1.1v26.9h0c7.3,0,13.1,5.9,13.1,13.1h0c0,7.7-4.3,14.8-11.1,18.3l-10.4,5.4v-16.8l-15.1,2.3v48.4c0,7.5,6.1,13.7,13.7,13.7h29.8v-22c0-8.2,6.6-14.8,14.8-14.8h0c8.2,0,14.8,6.6,14.8,14.8v22h29.8c7.5,0,13.7-6.1,13.7-13.7v-48.4l-15.1-2.3Z"/>
</svg>