<?xml version="1.0" encoding="UTF-8"?>
<svg id="Layer_2" xmlns="http://www.w3.org/2000/svg" version="1.1" viewBox="0 0 1346.7 171.1">
  <!-- Generator: Adobe Illustrator 29.1.0, SVG Export Plug-In . SVG Version: 2.1.0 Build 142)  -->
  <defs>
    <style>
      .st0 {
        fill: #fcfcfc;
      }

      .st1 {
        fill: #ff4800;
      }
    </style>
  </defs>
  <path class="st1" d="M152.6,74.2v25.3l-15.6-8.2c-10.3-5.4-16.7-16.1-16.7-27.6h0c0-10.9,8.9-19.8,19.8-19.8h0V3.4l-22.8-1.7v21.9h-18.2V0h-22.8v23.6h-18.2V1.7l-22.8,1.7v40.4h0c10.9,0,19.8,8.9,19.8,19.8h0c0,11.6-6.4,22.2-16.7,27.6l-15.6,8.2v-25.3l-22.8,3.4v72.9c0,11.4,9.2,20.6,20.6,20.6h44.8v-33c0-12.3,10-22.2,22.2-22.2h0c12.3,0,22.2,10,22.2,22.2v33h44.8c11.4,0,20.6-9.2,20.6-20.6v-72.9l-22.8-3.4h.2Z"/>
  <path class="st0" d="M347.9,74.2v25.3l-15.6-8.2c-10.3-5.4-16.7-16.1-16.7-27.6h0c0-10.9,8.9-19.8,19.8-19.8h0V3.4l-22.8-1.7v21.9h-18.2V0h-22.8v23.6h-18.2V1.7l-22.8,1.7v40.4h0c10.9,0,19.8,8.9,19.8,19.8h0c0,11.6-6.4,22.2-16.7,27.6l-15.6,8.2v-25.3l-22.8,3.4v72.9c0,11.4,9.2,20.6,20.6,20.6h44.8v-33c0-12.3,10-22.2,22.2-22.2h0c12.3,0,22.2,10,22.2,22.2v33h44.8c11.4,0,20.6-9.2,20.6-20.6v-72.9l-22.8-3.4h.2Z"/>
  <path class="st1" d="M543.2,74.2v25.3l-15.6-8.2c-10.3-5.4-16.7-16.1-16.7-27.6h0c0-10.9,8.9-19.8,19.8-19.8h0V3.4l-22.8-1.7v21.9h-18.2V0h-22.8v23.6h-18.2V1.7l-22.8,1.7v40.4h0c10.9,0,19.8,8.9,19.8,19.8h0c0,11.6-6.4,22.2-16.7,27.6l-15.6,8.2v-25.3l-22.8,3.4v72.9c0,11.4,9.2,20.6,20.6,20.6h44.8v-33c0-12.3,10-22.2,22.2-22.2h0c12.3,0,22.2,10,22.2,22.2v33h44.8c11.4,0,20.6-9.2,20.6-20.6v-72.9l-22.8-3.4h.2Z"/>
  <path class="st0" d="M738.4,74.2v25.3l-15.6-8.2c-10.3-5.4-16.7-16.1-16.7-27.6h0c0-10.9,8.9-19.8,19.8-19.8h0V3.4l-22.8-1.7v21.9h-18.2V0h-22.8v23.6h-18.2V1.7l-22.8,1.7v40.4h0c10.9,0,19.8,8.9,19.8,19.8h0c0,11.6-6.4,22.2-16.7,27.6l-15.6,8.2v-25.3l-22.8,3.4v72.9c0,11.4,9.2,20.6,20.6,20.6h44.8v-33c0-12.3,10-22.2,22.2-22.2h0c12.3,0,22.2,10,22.2,22.2v33h44.8c11.4,0,20.6-9.2,20.6-20.6v-72.9l-22.8-3.4h.2Z"/>
  <path class="st1" d="M933.7,74.2v25.3l-15.6-8.2c-10.3-5.4-16.7-16.1-16.7-27.6h0c0-10.9,8.9-19.8,19.8-19.8h0V3.4l-22.8-1.7v21.9h-18.2V0h-22.8v23.6h-18.2V1.7l-22.8,1.7v40.4h0c10.9,0,19.8,8.9,19.8,19.8h0c0,11.6-6.4,22.2-16.7,27.6l-15.6,8.2v-25.3l-22.8,3.4v72.9c0,11.4,9.2,20.6,20.6,20.6h44.8v-33c0-12.3,10-22.2,22.2-22.2h0c12.3,0,22.2,10,22.2,22.2v33h44.8c11.4,0,20.6-9.2,20.6-20.6v-72.9l-22.8-3.4h.2Z"/>
  <path class="st0" d="M1128.9,74.2v25.3l-15.6-8.2c-10.3-5.4-16.7-16.1-16.7-27.6h0c0-10.9,8.9-19.8,19.8-19.8h0V3.4l-22.8-1.7v21.9h-18.2V0h-22.8v23.6h-18.2V1.7l-22.8,1.7v40.4h0c10.9,0,19.8,8.9,19.8,19.8h0c0,11.6-6.4,22.2-16.7,27.6l-15.6,8.2v-25.3l-22.8,3.4v72.9c0,11.4,9.2,20.6,20.6,20.6h44.8v-33c0-12.3,10-22.2,22.2-22.2h0c12.3,0,22.2,10,22.2,22.2v33h44.8c11.4,0,20.6-9.2,20.6-20.6v-72.9l-22.8-3.4h.2Z"/>
  <path class="st1" d="M1324.2,74.2v25.3l-15.6-8.2c-10.3-5.4-16.7-16.1-16.7-27.6h0c0-10.9,8.9-19.8,19.8-19.8h0V3.4l-22.8-1.7v21.9h-18.2V0h-22.8v23.6h-18.2V1.7l-22.8,1.7v40.4h0c10.9,0,19.8,8.9,19.8,19.8h0c0,11.6-6.4,22.2-16.7,27.6l-15.6,8.2v-25.3l-22.8,3.4v72.9c0,11.4,9.2,20.6,20.6,20.6h44.8v-33c0-12.3,10-22.2,22.2-22.2h0c12.3,0,22.2,10,22.2,22.2v33h44.8c11.4,0,20.6-9.2,20.6-20.6v-72.9l-22.8-3.4h.2Z"/>
</svg>