<?xml version="1.0" encoding="UTF-8"?>
<svg id="Layer_2" xmlns="http://www.w3.org/2000/svg" version="1.1" viewBox="0 0 153.7 177">
  <!-- Generator: Adobe Illustrator 29.1.0, SVG Export Plug-In . SVG Version: 2.1.0 Build 142)  -->
  <defs>
    <style>
      .st0 {
        fill: #fff;
      }
    </style>
  </defs>
  <path d="M144.6,177H9.1C4.1,177,0,172.9,0,167.9v-91C0,34.4,34.4,0,76.9,0h0c42.4,0,76.9,34.4,76.9,76.9v91c0,5-4.1,9.1-9.1,9.1Z"/>
  <g>
    <path class="st0" d="M16.9,166.7c-2,0-3.7-.3-5.3-1-1.6-.7-2.9-1.7-3.8-2.9-.9-1.3-1.4-2.9-1.4-4.7s.3-2.9,1-4c.7-1,1.6-1.9,2.8-2.5,1.2-.6,2.4-1.1,3.9-1.4,1.4-.3,2.9-.5,4.3-.7,1.8-.2,3.3-.4,4.5-.5,1.2-.1,2-.3,2.5-.6.5-.3.8-.8.8-1.4v-.2c0-1.1-.2-2-.7-2.7s-1.1-1.3-2-1.7c-.9-.4-2-.6-3.3-.6s-2.5.2-3.5.6c-1,.4-1.8.9-2.4,1.5s-1.1,1.2-1.4,1.9l-5.8-1.4c.7-1.7,1.7-3.1,3-4.1s2.8-1.8,4.5-2.3,3.5-.7,5.3-.7,2.6.1,4,.4c1.4.3,2.7.8,4,1.5,1.2.7,2.3,1.7,3,3,.8,1.3,1.2,3,1.2,5v18.9h-5.9v-3.9h-.3c-.4.7-1,1.4-1.8,2.1-.8.7-1.8,1.3-3,1.7-1.2.5-2.7.7-4.4.7ZM18.2,162.2c1.7,0,3.1-.3,4.3-.9,1.2-.6,2.1-1.4,2.7-2.4s.9-2,.9-3.1v-3.6c-.2.2-.6.4-1.3.5-.6.2-1.3.3-2.1.4-.8.1-1.6.2-2.3.3s-1.4.2-1.8.2c-1.2.1-2.2.4-3.2.7-1,.3-1.7.8-2.3,1.4-.6.6-.8,1.4-.8,2.4s.3,1.7.8,2.3c.5.6,1.2,1.1,2.1,1.4.9.3,1.9.5,3,.5Z"/>
    <path class="st0" d="M53.6,166.6c-1.9,0-3.4-.3-4.6-.9-1.2-.6-2.1-1.3-2.8-2.1-.7-.8-1.2-1.5-1.6-2.1h-.5v4.5h-6v-38h6.1v14.1h.3c.4-.6.9-1.3,1.5-2.1s1.6-1.5,2.8-2.1c1.2-.6,2.7-.9,4.7-.9s4.7.6,6.7,1.7c2,1.2,3.5,2.8,4.6,5,1.1,2.2,1.7,4.8,1.7,7.9s-.6,5.7-1.7,7.9c-1.1,2.2-2.6,3.9-4.6,5.1-2,1.2-4.2,1.8-6.7,1.8ZM52.2,161.8c1.8,0,3.3-.4,4.5-1.3,1.2-.9,2.1-2.1,2.7-3.6s.9-3.2.9-5.1-.3-3.5-.9-5c-.6-1.5-1.5-2.7-2.7-3.5-1.2-.9-2.7-1.3-4.5-1.3s-3.2.4-4.4,1.2c-1.2.8-2.1,2-2.7,3.4-.6,1.5-.9,3.2-.9,5.2s.3,3.7.9,5.2c.6,1.5,1.5,2.7,2.7,3.5s2.7,1.3,4.4,1.3Z"/>
    <path class="st0" d="M84.1,166.6c-2.9,0-5.5-.6-7.6-1.8-2.2-1.2-3.9-2.9-5.1-5.1s-1.8-4.8-1.8-7.7.6-5.5,1.8-7.8,2.9-3.9,5.1-5.2c2.2-1.2,4.7-1.8,7.6-1.8s5.5.6,7.7,1.8c2.2,1.2,3.9,2.9,5.1,5.2,1.2,2.2,1.8,4.8,1.8,7.8s-.6,5.5-1.8,7.7c-1.2,2.2-2.9,3.9-5.1,5.1-2.2,1.2-4.7,1.8-7.7,1.8ZM84.1,161.9c1.9,0,3.5-.5,4.7-1.4,1.2-.9,2.2-2.1,2.8-3.6.6-1.5.9-3.2.9-5s-.3-3.5-.9-5c-.6-1.5-1.5-2.7-2.8-3.6-1.2-.9-2.8-1.4-4.7-1.4s-3.4.5-4.6,1.4c-1.2.9-2.1,2.1-2.7,3.6-.6,1.5-.9,3.2-.9,5s.3,3.5.9,5c.6,1.5,1.5,2.7,2.7,3.6,1.2.9,2.8,1.4,4.6,1.4Z"/>
    <path class="st0" d="M113.6,166.4c-2.1,0-4-.4-5.6-1.2s-2.8-2-3.7-3.6c-.9-1.6-1.3-3.6-1.3-5.9v-18.1h6.1v17.4c0,2.1.6,3.7,1.8,4.8s2.8,1.7,4.8,1.7,2.6-.3,3.7-.8c1.1-.6,1.9-1.4,2.6-2.4s.9-2.3.9-3.8v-16.9h6.1v28.5h-5.8v-7s.6,0,.6,0c-.9,2.6-2.2,4.5-4,5.6-1.7,1.2-3.8,1.7-6.2,1.7Z"/>
    <path class="st0" d="M148.2,137.6v4.6h-16.9v-4.6h16.9ZM135.9,130.8h6.1v27.6c0,1.1.3,2,.8,2.5s1.4.8,2.6.8.7,0,1.3-.1c.5,0,1-.1,1.3-.2l1.1,4.5c-.6.2-1.3.4-2.1.4-.7,0-1.5.1-2.2.1-2.8,0-5-.7-6.6-2-1.6-1.3-2.3-3.2-2.3-5.6v-28Z"/>
  </g>
</svg>