<?xml version="1.0" encoding="UTF-8"?>
<svg id="Layer_1" xmlns="http://www.w3.org/2000/svg" version="1.1" viewBox="0 0 48 48">
  <!-- Generator: Adobe Illustrator 29.1.0, SVG Export Plug-In . SVG Version: 2.1.0 Build 142)  -->
  <defs>
    <style>
      .st0 {
        fill: none;
      }

      .st1 {
        fill: #4da500;
      }
    </style>
  </defs>
  <path class="st0" d="M0,0h48v48H0V0Z"/>
  <g>
    <path class="st1" d="M24,2C11.8,2,2,11.8,2,24s9.8,22,22,22,22-9.8,22-22c0-12.1-9.7-21.9-21.8-22,0,0-.1,0-.2,0ZM24,42c-9.9,0-18-8.1-18-18S14.1,6,24,6s18,8.1,18,18c0,9.9-8.1,17.9-18,18Z"/>
    <circle class="st1" cx="24" cy="13" r="3"/>
    <path class="st1" d="M35,17H13c-1.1,0-2,.9-2,2s.9,2,2,2h7v4.8l-2,9.8c-.2,1.1.5,2.2,1.6,2.4h.4c1,0,1.8-.7,2-1.6l1.8-9.4h.4l1.8,9.4c.2.9,1,1.6,2,1.6h.4c1.1-.2,1.8-1.3,1.6-2.4l-2-9.8v-4.8h7c1.1,0,2-.9,2-2s-.9-2-2-2Z"/>
  </g>
</svg>