<?xml version="1.0" encoding="UTF-8"?>
<svg id="Layer_1" xmlns="http://www.w3.org/2000/svg" version="1.1" viewBox="0 0 48 48">
  <!-- Generator: Adobe Illustrator 29.1.0, SVG Export Plug-In . SVG Version: 2.1.0 Build 142)  -->
  <defs>
    <style>
      .st0 {
        opacity: .3;
      }

      .st1 {
        opacity: .1;
      }

      .st2 {
        fill: none;
      }
    </style>
  </defs>
  <path class="st2" d="M0,0h48v48H0V0Z"/>
  <path class="st1" d="M24,0C10.7,0,0,10.7,0,24s10.7,24,24,24,24-10.7,24-24S37.4.1,24.2,0h-.2ZM24,43.6c-10.8,0-19.6-8.8-19.6-19.6S13.2,4.4,24,4.4s19.6,8.8,19.6,19.6-8.8,19.5-19.6,19.6Z"/>
  <g class="st0">
    <circle cx="24" cy="12" r="3.3"/>
    <path d="M36,16.4H12c-1.2,0-2.2,1-2.2,2.2s1,2.2,2.2,2.2h7.6v5.2l-2.2,10.7c-.2,1.2.5,2.4,1.7,2.6h.4c1.1,0,2-.8,2.2-1.7l2-10.3h.4l2,10.3c.2,1,1.1,1.7,2.2,1.7h.4c1.2-.2,2-1.4,1.7-2.6l-2.2-10.7v-5.2h7.6c1.2,0,2.2-1,2.2-2.2s-1-2.2-2.2-2.2Z"/>
  </g>
</svg>