<?xml version="1.0" encoding="UTF-8"?>
<svg id="Layer_2" xmlns="http://www.w3.org/2000/svg" version="1.1" viewBox="0 0 153.7 177">
  <!-- Generator: Adobe Illustrator 29.1.0, SVG Export Plug-In . SVG Version: 2.1.0 Build 142)  -->
  <defs>
    <style>
      .st0 {
        fill: #fff;
      }
    </style>
  </defs>
  <path d="M144.6,177H9.1C4.1,177,0,172.9,0,167.9v-91C0,34.4,34.4,0,76.9,0h0c42.4,0,76.9,34.4,76.9,76.9v91c0,5-4.1,9.1-9.1,9.1Z"/>
  <g>
    <path class="st0" d="M52.3,120.4c-3.4,0-6.3-.7-8.8-2.1-2.5-1.4-4.4-3.4-5.8-5.9-1.4-2.5-2.1-5.5-2.1-8.8s.7-6.4,2.1-8.9c1.4-2.5,3.3-4.5,5.8-5.9,2.5-1.4,5.4-2.1,8.8-2.1s3.6.2,5.2.7c1.6.4,3.1,1.1,4.4,1.9,1.3.8,2.4,1.8,3.3,3,.9,1.2,1.6,2.5,2,4l-6.7,1.5c-.2-.8-.6-1.6-1.1-2.3-.5-.7-1.1-1.3-1.8-1.8-.7-.5-1.5-.9-2.4-1.2-.9-.3-1.9-.4-3-.4-2.2,0-3.9.5-5.3,1.6-1.4,1-2.5,2.4-3.2,4.2-.7,1.7-1,3.7-1,5.8s.3,4,1,5.7c.7,1.7,1.7,3.1,3.2,4.1,1.4,1,3.2,1.5,5.3,1.5s2.1-.1,3-.4c.9-.3,1.7-.7,2.5-1.2.7-.5,1.3-1.1,1.8-1.9.5-.7.8-1.5,1.1-2.4l6.6,1.5c-.4,1.5-1.1,2.9-2,4.1-.9,1.2-2,2.3-3.3,3.1s-2.8,1.5-4.4,2c-1.6.4-3.4.7-5.3.7Z"/>
    <path class="st0" d="M87.3,120.4c-3.3,0-6.3-.7-8.8-2.1-2.5-1.4-4.4-3.4-5.8-5.9-1.4-2.5-2.1-5.5-2.1-8.8s.7-6.4,2.1-8.9,3.3-4.5,5.8-5.9c2.5-1.4,5.4-2.1,8.8-2.1s6.3.7,8.8,2.1c2.5,1.4,4.4,3.4,5.8,5.9s2.1,5.5,2.1,8.9-.7,6.3-2.1,8.8c-1.4,2.5-3.3,4.5-5.8,5.9-2.5,1.4-5.4,2.1-8.8,2.1ZM87.3,114.9c2.2,0,4-.5,5.4-1.6,1.4-1,2.5-2.4,3.2-4.1.7-1.7,1-3.6,1-5.7s-.3-4-1-5.7c-.7-1.7-1.7-3.1-3.2-4.2-1.4-1-3.2-1.6-5.4-1.6s-3.9.5-5.3,1.6c-1.4,1-2.5,2.4-3.1,4.2-.7,1.7-1,3.7-1,5.8s.3,4,1,5.7c.7,1.7,1.7,3.1,3.1,4.1,1.4,1,3.2,1.6,5.3,1.6Z"/>
    <path class="st0" d="M116,100.4v19.3h-7v-32.7h6.7v8c0,0-.7,0-.7,0,1-2.9,2.6-5.1,4.5-6.4,2-1.3,4.4-2,7.2-2s4.5.5,6.4,1.4c1.8.9,3.2,2.3,4.2,4.1,1,1.8,1.5,4.1,1.5,6.8v20.8h-7v-20c0-2.4-.7-4.2-2-5.5-1.3-1.3-3.2-2-5.5-2s-3,.3-4.2.9c-1.3.6-2.2,1.6-3,2.8s-1.1,2.7-1.1,4.4Z"/>
    <path class="st0" d="M160.9,87v5.2h-19.4v-5.2h19.4ZM146.7,79.3h7v31.6c0,1.3.3,2.3.9,2.9.6.6,1.6.9,3,.9s.8,0,1.4-.1c.6,0,1.1-.2,1.5-.2l1.2,5.1c-.7.2-1.5.4-2.4.5-.9.1-1.7.2-2.5.2-3.2,0-5.7-.8-7.5-2.3-1.8-1.5-2.7-3.7-2.7-6.4v-32.1Z"/>
    <path class="st0" d="M175.4,120.4c-2.3,0-4.3-.4-6.1-1.2s-3.3-1.9-4.3-3.4c-1.1-1.5-1.6-3.3-1.6-5.4s.4-3.4,1.2-4.6c.8-1.2,1.8-2.1,3.2-2.8,1.3-.7,2.8-1.2,4.4-1.6s3.3-.6,5-.8c2.1-.2,3.8-.4,5.1-.6,1.3-.1,2.3-.4,2.9-.7.6-.3.9-.9.9-1.7v-.2c0-1.2-.3-2.3-.8-3.1-.5-.8-1.3-1.5-2.3-1.9-1-.5-2.3-.7-3.8-.7s-2.9.2-4,.7c-1.1.4-2,1-2.7,1.7-.7.7-1.2,1.4-1.5,2.1l-6.6-1.6c.8-1.9,2-3.5,3.5-4.7,1.5-1.2,3.2-2.1,5.2-2.6,2-.5,4-.8,6.1-.8s3,.2,4.6.5c1.6.3,3.1.9,4.6,1.7,1.4.8,2.6,2,3.5,3.4.9,1.5,1.3,3.4,1.3,5.8v21.7h-6.8v-4.5h-.4c-.5.8-1.2,1.7-2.1,2.5s-2.1,1.5-3.5,2c-1.4.5-3.1.8-5,.8ZM177,115.3c1.9,0,3.6-.3,4.9-1,1.4-.7,2.4-1.6,3.1-2.7.7-1.1,1.1-2.3,1.1-3.6v-4.2c-.3.2-.7.4-1.5.6-.7.2-1.5.4-2.4.5-.9.1-1.8.3-2.7.4s-1.6.2-2.1.2c-1.3.2-2.5.4-3.6.8-1.1.4-2,.9-2.6,1.6s-1,1.6-1,2.7.3,1.9.9,2.6c.6.7,1.4,1.2,2.4,1.6,1,.4,2.2.5,3.5.5Z"/>
    <path class="st0" d="M214.8,120.4c-3.4,0-6.3-.7-8.8-2.1-2.5-1.4-4.4-3.4-5.8-5.9-1.4-2.5-2.1-5.5-2.1-8.8s.7-6.4,2.1-8.9c1.4-2.5,3.3-4.5,5.8-5.9,2.5-1.4,5.4-2.1,8.8-2.1s3.6.2,5.2.7c1.6.4,3.1,1.1,4.4,1.9,1.3.8,2.4,1.8,3.3,3,.9,1.2,1.6,2.5,2,4l-6.7,1.5c-.2-.8-.6-1.6-1.1-2.3-.5-.7-1.1-1.3-1.8-1.8-.7-.5-1.5-.9-2.4-1.2-.9-.3-1.9-.4-3-.4-2.2,0-3.9.5-5.3,1.6-1.4,1-2.5,2.4-3.2,4.2-.7,1.7-1,3.7-1,5.8s.3,4,1,5.7c.7,1.7,1.7,3.1,3.2,4.1,1.4,1,3.2,1.5,5.3,1.5s2.1-.1,3-.4c.9-.3,1.7-.7,2.5-1.2s1.3-1.1,1.8-1.9c.5-.7.8-1.5,1.1-2.4l6.6,1.5c-.4,1.5-1.1,2.9-2,4.1-.9,1.2-2,2.3-3.3,3.1s-2.8,1.5-4.4,2-3.4.7-5.3.7Z"/>
    <path class="st0" d="M250.1,87v5.2h-19.4v-5.2h19.4ZM235.9,79.3h7v31.6c0,1.3.3,2.3.9,2.9.6.6,1.6.9,3,.9s.8,0,1.4-.1c.6,0,1.1-.2,1.5-.2l1.2,5.1c-.7.2-1.5.4-2.4.5-.9.1-1.7.2-2.5.2-3.2,0-5.7-.8-7.5-2.3-1.8-1.5-2.7-3.7-2.7-6.4v-32.1Z"/>
  </g>
  <g>
    <path class="st0" d="M-94.5,166.1c-3.4,0-6.3-.7-8.8-2.1-2.5-1.4-4.4-3.4-5.8-5.9-1.4-2.5-2.1-5.5-2.1-8.8s.7-6.4,2.1-8.9c1.4-2.5,3.3-4.5,5.8-5.9,2.5-1.4,5.4-2.1,8.8-2.1s3.6.2,5.2.7c1.6.4,3.1,1.1,4.4,1.9s2.4,1.8,3.3,3,1.6,2.5,2,4l-6.7,1.5c-.2-.8-.6-1.6-1.1-2.3-.5-.7-1.1-1.3-1.8-1.8-.7-.5-1.5-.9-2.4-1.2-.9-.3-1.9-.4-3-.4-2.2,0-3.9.5-5.3,1.6-1.4,1-2.5,2.4-3.2,4.2-.7,1.7-1,3.7-1,5.8s.3,4,1,5.7c.7,1.7,1.7,3.1,3.2,4.1,1.4,1,3.2,1.5,5.3,1.5s2.1-.1,3-.4c.9-.3,1.7-.7,2.5-1.2.7-.5,1.3-1.1,1.8-1.9.5-.7.8-1.5,1.1-2.4l6.6,1.5c-.4,1.5-1.1,2.9-2,4.1-.9,1.2-2,2.3-3.3,3.1s-2.8,1.5-4.4,2c-1.6.4-3.4.7-5.3.7Z"/>
    <path class="st0" d="M-59.5,166.1c-3.3,0-6.3-.7-8.8-2.1-2.5-1.4-4.4-3.4-5.8-5.9-1.4-2.5-2.1-5.5-2.1-8.8s.7-6.4,2.1-8.9c1.4-2.5,3.3-4.5,5.8-5.9,2.5-1.4,5.4-2.1,8.8-2.1s6.3.7,8.8,2.1c2.5,1.4,4.4,3.4,5.8,5.9,1.4,2.5,2.1,5.5,2.1,8.9s-.7,6.3-2.1,8.8c-1.4,2.5-3.3,4.5-5.8,5.9-2.5,1.4-5.4,2.1-8.8,2.1ZM-59.5,160.7c2.2,0,4-.5,5.4-1.6,1.4-1,2.5-2.4,3.2-4.2.7-1.7,1-3.6,1-5.7s-.3-4-1-5.7c-.7-1.7-1.7-3.1-3.2-4.2-1.4-1-3.2-1.6-5.4-1.6s-3.9.5-5.3,1.6c-1.4,1-2.5,2.4-3.1,4.2-.7,1.7-1,3.7-1,5.8s.3,4,1,5.7c.7,1.7,1.7,3.1,3.1,4.2,1.4,1,3.2,1.6,5.3,1.6Z"/>
    <path class="st0" d="M-30.7,146.1v19.3h-7v-32.7h6.7v8c0,0-.7,0-.7,0,1-2.9,2.6-5.1,4.5-6.4,2-1.3,4.4-2,7.2-2s4.5.5,6.4,1.4c1.8.9,3.2,2.3,4.2,4.1,1,1.8,1.5,4.1,1.5,6.8v20.8h-7v-20c0-2.4-.7-4.2-2-5.5-1.3-1.3-3.2-2-5.5-2s-3,.3-4.2,1c-1.3.6-2.2,1.6-3,2.8s-1.1,2.7-1.1,4.4Z"/>
    <path class="st0" d="M14.1,132.7v5.2H-5.2v-5.2H14.1ZM0,125h7v31.6c0,1.3.3,2.3.9,2.9.6.6,1.6.9,3,.9s.8,0,1.4-.1,1.1-.2,1.5-.2l1.2,5.1c-.7.2-1.5.4-2.4.5-.9.1-1.7.2-2.5.2-3.2,0-5.7-.8-7.5-2.3-1.8-1.5-2.7-3.7-2.7-6.4v-32.1Z"/>
    <path class="st0" d="M28.7,166.1c-2.3,0-4.3-.4-6.1-1.2s-3.3-1.9-4.3-3.4-1.6-3.3-1.6-5.4.4-3.4,1.2-4.6c.8-1.2,1.8-2.1,3.2-2.8,1.3-.7,2.8-1.2,4.4-1.6s3.3-.6,5-.8c2.1-.2,3.8-.4,5.1-.6,1.3-.1,2.3-.4,2.9-.7.6-.3.9-.9.9-1.7v-.2c0-1.2-.3-2.3-.8-3.1s-1.3-1.5-2.3-1.9c-1-.5-2.3-.7-3.8-.7s-2.9.2-4,.7c-1.1.4-2,1-2.7,1.7-.7.7-1.2,1.4-1.5,2.1l-6.6-1.6c.8-1.9,2-3.5,3.5-4.7,1.5-1.2,3.2-2.1,5.2-2.6,2-.5,4-.8,6.1-.8s3,.2,4.6.5c1.6.3,3.1.9,4.6,1.7,1.4.8,2.6,2,3.5,3.4.9,1.5,1.3,3.4,1.3,5.8v21.7h-6.8v-4.5h-.4c-.5.8-1.2,1.7-2.1,2.5s-2.1,1.5-3.5,2c-1.4.5-3.1.8-5,.8ZM30.3,161c1.9,0,3.6-.3,4.9-1s2.4-1.6,3.1-2.7c.7-1.1,1.1-2.3,1.1-3.6v-4.2c-.3.2-.7.4-1.5.6-.7.2-1.5.4-2.4.5s-1.8.3-2.7.4-1.6.2-2.1.2c-1.3.2-2.5.4-3.6.8-1.1.4-2,.9-2.6,1.6-.6.7-1,1.6-1,2.7s.3,1.9.9,2.6c.6.7,1.4,1.2,2.4,1.6,1,.4,2.2.5,3.5.5Z"/>
    <path class="st0" d="M68.1,166.1c-3.4,0-6.3-.7-8.8-2.1-2.5-1.4-4.4-3.4-5.8-5.9-1.4-2.5-2.1-5.5-2.1-8.8s.7-6.4,2.1-8.9c1.4-2.5,3.3-4.5,5.8-5.9,2.5-1.4,5.4-2.1,8.8-2.1s3.6.2,5.2.7c1.6.4,3.1,1.1,4.4,1.9s2.4,1.8,3.3,3c.9,1.2,1.6,2.5,2,4l-6.7,1.5c-.2-.8-.6-1.6-1.1-2.3-.5-.7-1.1-1.3-1.8-1.8-.7-.5-1.5-.9-2.4-1.2-.9-.3-1.9-.4-3-.4-2.2,0-3.9.5-5.3,1.6-1.4,1-2.5,2.4-3.2,4.2-.7,1.7-1,3.7-1,5.8s.3,4,1,5.7c.7,1.7,1.7,3.1,3.2,4.1,1.4,1,3.2,1.5,5.3,1.5s2.1-.1,3-.4c.9-.3,1.7-.7,2.5-1.2.7-.5,1.3-1.1,1.8-1.9.5-.7.8-1.5,1.1-2.4l6.6,1.5c-.4,1.5-1.1,2.9-2,4.1s-2,2.3-3.3,3.1-2.8,1.5-4.4,2-3.4.7-5.3.7Z"/>
    <path class="st0" d="M103.4,132.7v5.2h-19.4v-5.2h19.4ZM89.2,125h7v31.6c0,1.3.3,2.3.9,2.9.6.6,1.6.9,3,.9s.8,0,1.4-.1,1.1-.2,1.5-.2l1.2,5.1c-.7.2-1.5.4-2.4.5-.9.1-1.7.2-2.5.2-3.2,0-5.7-.8-7.5-2.3-1.8-1.5-2.7-3.7-2.7-6.4v-32.1Z"/>
  </g>
</svg>