<?xml version="1.0" encoding="UTF-8"?>
<svg id="Layer_2" xmlns="http://www.w3.org/2000/svg" version="1.1" viewBox="0 0 153.7 177">
  <!-- Generator: Adobe Illustrator 29.1.0, SVG Export Plug-In . SVG Version: 2.1.0 Build 142)  -->
  <defs>
    <style>
      .st0 {
        fill: #6300ff;
      }

      .st1 {
        fill: #fff;
      }
    </style>
  </defs>
  <path d="M144.6,177H9.1c-5,0-9.1-4.1-9.1-9.1v-91C0,34.4,34.4,0,76.9,0h0C119.3,0,153.8,34.4,153.8,76.9v91c0,5-4.1,9.1-9.1,9.1h0Z"/>
  <path class="st0" d="M149.1,88.1h-.8c-2.3.1-3.5.2-5.5,0-1.2-.1-2-.3-2.8-.5-.6-.2-1.1-.3-1.7-.4-1.4-.2-2-.2-2.8-.2h-.2c-.4,0-.6,0-.8,0,0,0,0,0,0,0,.2-.2.4-.4.8-.8l.4-.4c.6-.6,1.1-1.2,2-2.1.5-.5.8-1,1.1-1.5.4-.6.9-1.2,1.6-2,.7-.8,1.3-1.3,2-1.9.5-.4.9-.8,1.5-1.4l.9-.8c.9-.9,1.7-1.6,2.7-2.7.3-.4.6-.7.9-1,.8-.8,1.4-1.4,2-2.5.8-1.5,1.1-2.4,1.1-4,0-1.6-.2-2.8-1.1-4.1-.9-1.3-1.8-2.1-3.5-2.4-1.7-.3-2.9,0-5.1.7-1.6.5-2.7,1.1-4.2,1.8-.6.3-1.2.6-1.9,1-2.7,1.3-4.2,2.1-7.3,3.8-1.6.8-2.8,1.5-4,2.2-1.2.7-2.5,1.4-4.2,2.3l-.9.5c-2.7,1.5-4.5,2.4-7.5,3.9l-1,.5c-2.6,1.3-4.2,2.1-6.8,3.2-2.9,1.2-4.4,1.8-6.8,2.5-1.6.4-2.6.5-3.6.6-.5,0-1,0-1.5.2-.7.1-1.1.2-1.5.3-.5.1-.8.2-1.1.2q-.6,0-.8-.5c-.2-.4-.3-.8-.2-1.8,0-.2,0-.3,0-.5,0-.8,0-1.5.5-2.7.3-.9.8-1.6,1.3-2.5.3-.5.6-1,1-1.7.3-.6.6-1.1.9-1.6.6-.9,1.1-1.8,1.4-3,.4-1.8.3-3-.4-4.4-.7-1.4-1.6-2.1-2.9-2.2-1.5-.1-2.4.4-4,1.5-.9.7-1.6,1.5-2.3,2.3-.6.7-1.2,1.5-2.1,2.3-2,1.8-3.3,2.9-5.5,4.6-2.3,1.7-3.4,2.5-5.6,3.7-2.3,1.3-3.6,1.8-5.7,2.6-1.6.6-2.7.9-3.9,1.2-.3,0-.7.2-1.1.3-.9.3-1.5.4-2.1.5-.4,0-.8.2-1.2.3-.5.1-.8.3-1,.4-.1,0-.2.1-.2.1,0,0,0-.3,0-.5h0c0-.4,0-.7.2-1,1.3-.6,2.4-1.1,3.7-1.7.5-.2,1.1-.5,1.7-.8,2-.9,3.4-1.6,4.8-2.3.7-.3,1.4-.7,2.3-1.1.8-.4,1.6-.8,2.2-1.1,1.3-.6,2.4-1.2,3.9-1.9l.6-.3c1.8-.9,2.8-1.5,4.2-2.5,1.7-1.1,2.3-1.6,3.3-2.8,1-1.2,1.4-1.9,1.8-3.2.4-1.4.2-2.3,0-3.4-.3-1.3-.6-1.9-1.4-2.9-.9-1-1.5-1.5-2.8-2-1.3-.5-2-.6-3.7-.7-1.5,0-2.4,0-4.2.4-1.7.4-2.8.8-4.6,1.9-1.4.8-2.1,1.5-3.2,2.4-.3.3-.6.6-1,.9h-.2c-1.6,1.5-2.5,2.3-4.2,4-1.6,1.6-2.6,2.8-4.1,4.7-1.4,1.8-2.1,2.8-3.2,4.8l-.3.5c-.9,1.6-1.5,2.7-1.8,4.4,0,.3,0,.6-.1.8-1.9.7-3.4,1.1-5.6,1.7-3.2.9-4.9,1.4-7.7,1.8-2.9.4-4.2.4-6.4.2-2.2-.2-3.2-.6-5-1.5-1.8-.9-2.5-1.5-3.7-2.8-1.2-1.4-1.8-2.1-2.4-3.9,0-.2,0-.3-.2-.5,2.6-2,4.4-3.5,7.4-6,3.7-3.1,5.7-4.8,9.2-7.9,3.6-3.2,5.5-4.9,9-8.1,3.6-3.3,5.3-5,8.4-8l.8-.8c2.7-2.6,4.3-4.1,6.7-6.7l1.3-1.3c1.9-1.9,3-3.1,4.7-5.1,2-2.5,2.8-3.7,4-5.8l.2-.3c1.1-2,1.6-3,1.7-4.9.1-1.9-.2-3.1-1.2-4.8-1-1.6-1.9-2.6-3.9-3.3-1.9-.7-3.2-.7-5.5-.2-2.1.4-3.2,1-5.3,2l-.5.3c-2.4,1.2-3.7,2-6.4,3.9-2.7,1.8-4.1,2.9-7,5.3-2.9,2.4-4.4,3.7-7.1,6.4-2.8,2.8-4.2,4.3-6.7,7.5-2.5,3.2-3.8,5.1-5.8,8.4-2.1,3.4-3,5.2-4.5,8.4-1.5,3.2-2.1,4.9-3,8.1-.9,3.3-1.2,5-1.3,7.9,0,1.7-.1,2.9,0,4.1-2.3,1.5-3.8,2.4-6.2,3.6-2.8,1.5-4.2,2-6.2,2.7-.5.2-1,.3-1.3.4v6.7c.9-.2,1.7-.7,2.8-1.3.3-.1.6-.3.9-.5,1.8-1,3-1.8,4.7-3,.5-.3,1-.7,1.5-1.1,1.8-1.3,3.1-2.2,4.7-3.4.6,1.8,1.3,3,2.8,4.7,1.7,2,2.9,2.9,5.2,4.1,2.5,1.2,4.1,1.5,6.8,1.7,2.9.2,4.4,0,7.6-.5,2.8-.5,4.5-1,7.1-1.8l1.1-.3c1.9-.6,3.4-1,4.8-1.6.6,1.7,1.3,2.7,2.6,3.7,1.5,1.2,2.7,1.6,4.5,1.8,1.9.1,3-.3,4.9-1h.1c1.6-.6,2.5-1.2,3.9-2,.4-.2.9-.5,1.4-.8,2.3-1.3,3.5-2,5.8-3.5,1.9-1.2,3-2.1,4.6-3.3l1.2-.9c1.3-1,2.3-1.8,3.3-2.5,0,0,0,0,0,0-.1.5-.2,1-.3,1.6v.4c-.4,2-.7,3.2-.3,5.1.4,2,.9,3,2.1,4.6,1.3,1.6,2.3,2.3,4.1,2.9,1.8.6,2.8.5,5.1.1,1.9-.4,3-.9,5-1.7l.9-.4c2.1-.9,3.4-1.6,5.4-2.7.5-.2,1-.5,1.5-.8,1.8-.9,3-1.7,4.4-2.5.9-.5,2-1.1,3.2-1.8l.6-.3c2.9-1.6,4.7-2.6,7.8-4.3.9-.5,1.7-.9,2.4-1.3,2-1.1,3.5-2,5.8-3.1,3.2-1.6,4.7-2.3,7.2-3.3,2.2-.8,3.5-1.2,4.9-1.5.3,0,.6-.2,1-.2.7-.2,1.2-.3,1.7-.4-.2.1-.5.3-.8.6-.8.8-1.4,1.5-2.3,2.7l-.3.4c-.5.6-.8,1.2-1.2,1.7-.5.7-.9,1.3-1.5,2.1-.8,1-1.4,1.6-2.2,2.4-.3.3-.7.7-1.1,1.1-.5.5-.9,1-1.4,1.4-.7.6-1.3,1.3-2,2.1-1.1,1.4-1.7,2.2-2.3,3.7-.6,1.5-.9,2.3-.8,3.8,0,1.4.2,2.4,1,3.8.8,1.3,1.4,2.1,2.9,3,1.5.9,2.5,1.2,4.5,1.3,1.5.1,2.5,0,3.9-.3.5,0,1-.2,1.6-.2,1.5-.2,2.6-.4,3.9-.6.7-.1,1.4-.3,2.3-.4.9-.2,1.6-.3,2.3-.4.7-.1,1.4-.2,2.2-.3v-4.8c-1.7.2-2.9.2-4.7.3ZM59.7,71.7c1.2-1.5,2-2.5,3.6-4,1.5-1.4,2.4-2.1,4-3.1,1.5-1,2.3-1.3,3.7-1.8,1.1-.4,1.7-.6,2.5-.7.2,0,.4,0,.6-.1,1.1-.2,1.6-.3,2.4-.3.2,0,.3,0,.4,0,.3,0,.4,0,.6,0,.1,0,.3,0,.4,0,.2,0,.4,0,.5,0,0,0,.2,0,.3,0,0,0-.2.1-.3.2h-.1c-.7.7-1.3,1.1-2.5,2.2-.5.4-.8.7-1.2,1.1-.7.7-1.4,1.3-2.6,2.2-1.6,1.2-2.8,1.8-4.7,2.8l-.9.5c-2.5,1.4-4,2.3-6.8,3.6l-.8.4c-.4.2-.8.4-1.2.6.6-1.3,1-2.1,2.2-3.7ZM18.1,69.6c0-.3,0-.6,0-1,0-2.4.1-4,.8-7,.7-2.9,1.2-4.5,2.5-7.6,1.3-3.1,2.2-4.7,4.1-8,1.9-3.2,3.1-5,5.5-8,2.3-2.9,3.7-4.3,6.5-7,2.7-2.5,4.2-3.8,7.1-5.9,2.9-2.2,4.4-3.1,6.9-4.6,2.5-1.4,3.8-2,6.1-2.7,1.6-.5,2.6-.6,3.6-.7.4,0,.7,0,1.1-.1,1.1-.1,1.7-.2,2.3-.2h.7c.3,0,.5,0,.6,0,.4,0,.4,0,.5.1.2.2.2.4,0,1.2v.3c0,.2,0,.5,0,.7,0,.8-.1,1.5-.6,3-.7,1.8-1.2,3-2.8,5.5-1.5,2.2-2.6,3.5-4.9,6l-.4.5c-2.5,2.8-4.1,4.4-7.1,7.4h-.1c-3.1,3.2-4.8,4.9-8.3,8.1-3.4,3.2-5.3,4.9-9,8-3.5,3-5.5,4.7-9.3,7.6-2.4,1.9-4,3.1-5.9,4.5Z"/>
  <g>
    <path class="st1" d="M-1.1,169.2c-2.9,0-5.4-.6-7.6-1.9s-3.8-3-5-5.2c-1.2-2.2-1.8-4.8-1.8-7.8s.6-5.6,1.8-7.9c1.2-2.3,2.9-4,5-5.2s4.7-1.9,7.6-1.9,3.1.2,4.5.6c1.4.4,2.7.9,3.8,1.7,1.1.7,2.1,1.6,2.9,2.7.8,1.1,1.4,2.3,1.7,3.6l-5.7,1.3c-.2-.7-.5-1.4-.9-2-.4-.6-.9-1.1-1.5-1.6-.6-.4-1.3-.8-2.1-1-.8-.2-1.6-.4-2.6-.4-1.9,0-3.4.5-4.6,1.4-1.2.9-2.1,2.2-2.7,3.7-.6,1.5-.9,3.2-.9,5.1s.3,3.5.9,5.1c.6,1.5,1.5,2.7,2.7,3.7,1.2.9,2.8,1.4,4.6,1.4s1.8-.1,2.6-.4c.8-.2,1.5-.6,2.1-1.1s1.1-1,1.6-1.7c.4-.6.7-1.4.9-2.1l5.7,1.3c-.4,1.4-.9,2.6-1.7,3.7-.8,1.1-1.7,2-2.9,2.8-1.1.8-2.4,1.3-3.8,1.7-1.4.4-2.9.6-4.5.6Z"/>
    <path class="st1" d="M29.1,169.2c-2.9,0-5.4-.6-7.5-1.9-2.2-1.2-3.8-3-5-5.2-1.2-2.2-1.8-4.8-1.8-7.8s.6-5.6,1.8-7.9c1.2-2.3,2.9-4,5-5.2,2.2-1.2,4.7-1.9,7.5-1.9s5.4.6,7.6,1.9c2.2,1.2,3.8,3,5,5.2,1.2,2.3,1.8,4.9,1.8,7.9s-.6,5.6-1.8,7.8c-1.2,2.2-2.9,4-5,5.2-2.2,1.2-4.7,1.9-7.6,1.9ZM29.1,164.4c1.9,0,3.4-.5,4.6-1.4,1.2-.9,2.1-2.1,2.7-3.7.6-1.5.9-3.2.9-5s-.3-3.5-.9-5.1c-.6-1.5-1.5-2.8-2.7-3.7-1.2-.9-2.8-1.4-4.6-1.4s-3.4.5-4.6,1.4c-1.2.9-2.1,2.2-2.7,3.7-.6,1.5-.9,3.2-.9,5.1s.3,3.5.9,5c.6,1.5,1.5,2.8,2.7,3.7,1.2.9,2.7,1.4,4.6,1.4Z"/>
    <path class="st1" d="M53.9,151.5v17.1h-6.1v-28.9h5.8v7.1c0,0-.6,0-.6,0,.9-2.6,2.2-4.5,3.9-5.7,1.7-1.2,3.8-1.8,6.2-1.8s3.9.4,5.5,1.2,2.8,2,3.7,3.7c.9,1.6,1.3,3.6,1.3,6v18.4h-6.1v-17.7c0-2.1-.6-3.7-1.7-4.9-1.2-1.2-2.7-1.8-4.8-1.8s-2.6.3-3.7.8c-1.1.6-1.9,1.4-2.6,2.4-.6,1.1-.9,2.4-.9,3.9Z"/>
    <path class="st1" d="M92.5,139.7v4.6h-16.7v-4.6h16.7ZM80.3,132.8h6.1v28c0,1.2.3,2,.8,2.5.5.5,1.4.8,2.6.8s.7,0,1.2-.1c.5,0,1-.1,1.3-.2l1.1,4.6c-.6.2-1.3.4-2.1.5-.7,0-1.5.1-2.2.1-2.8,0-5-.7-6.5-2-1.5-1.4-2.3-3.3-2.3-5.7v-28.5Z"/>
    <path class="st1" d="M105,169.3c-1.9,0-3.7-.3-5.3-1-1.6-.7-2.8-1.7-3.7-3-.9-1.3-1.4-2.9-1.4-4.8s.3-3,1-4c.7-1.1,1.6-1.9,2.7-2.5s2.4-1.1,3.8-1.4c1.4-.3,2.8-.5,4.3-.7,1.8-.2,3.3-.4,4.4-.5,1.1-.1,2-.3,2.5-.6s.8-.8.8-1.5v-.2c0-1.1-.2-2-.7-2.7-.4-.7-1.1-1.3-2-1.7-.9-.4-2-.6-3.3-.6s-2.5.2-3.5.6c-1,.4-1.7.9-2.3,1.5-.6.6-1,1.2-1.3,1.9l-5.7-1.4c.7-1.7,1.7-3.1,3-4.2,1.3-1.1,2.8-1.8,4.5-2.3,1.7-.5,3.4-.7,5.2-.7s2.6.1,4,.4c1.4.3,2.7.8,3.9,1.5s2.2,1.7,3,3.1c.8,1.3,1.2,3,1.2,5.1v19.2h-5.9v-4h-.3c-.4.7-1,1.5-1.8,2.2-.8.7-1.8,1.3-3,1.7-1.2.5-2.6.7-4.3.7ZM106.4,164.7c1.7,0,3.1-.3,4.2-.9,1.2-.6,2.1-1.4,2.7-2.4.6-1,.9-2.1.9-3.2v-3.7c-.2.2-.6.4-1.3.6s-1.3.3-2.1.4c-.8.1-1.5.2-2.3.3-.7,0-1.3.2-1.8.2-1.1.1-2.2.4-3.1.7-.9.3-1.7.8-2.3,1.4-.6.6-.8,1.4-.8,2.4s.3,1.7.8,2.3c.5.6,1.2,1.1,2,1.4s1.9.5,3,.5Z"/>
    <path class="st1" d="M139,169.2c-2.9,0-5.4-.6-7.6-1.9-2.1-1.2-3.8-3-5-5.2-1.2-2.2-1.8-4.8-1.8-7.8s.6-5.6,1.8-7.9c1.2-2.3,2.9-4,5-5.2,2.1-1.2,4.7-1.9,7.6-1.9s3.1.2,4.5.6c1.4.4,2.7.9,3.8,1.7s2.1,1.6,2.9,2.7c.8,1.1,1.4,2.3,1.7,3.6l-5.7,1.3c-.2-.7-.5-1.4-.9-2-.4-.6-.9-1.1-1.5-1.6-.6-.4-1.3-.8-2.1-1-.8-.2-1.6-.4-2.6-.4-1.9,0-3.4.5-4.6,1.4s-2.1,2.2-2.7,3.7c-.6,1.5-.9,3.2-.9,5.1s.3,3.5.9,5.1c.6,1.5,1.5,2.7,2.7,3.7,1.2.9,2.8,1.4,4.6,1.4s1.8-.1,2.6-.4c.8-.2,1.5-.6,2.1-1.1s1.1-1,1.6-1.7c.4-.6.7-1.4.9-2.1l5.7,1.3c-.4,1.4-.9,2.6-1.7,3.7-.8,1.1-1.7,2-2.9,2.8-1.1.8-2.4,1.3-3.8,1.7s-2.9.6-4.5.6Z"/>
    <path class="st1" d="M169.3,139.7v4.6h-16.7v-4.6h16.7ZM157.1,132.8h6.1v28c0,1.2.3,2,.8,2.5.5.5,1.4.8,2.6.8s.7,0,1.2-.1c.5,0,1-.1,1.3-.2l1.1,4.6c-.6.2-1.3.4-2.1.5-.7,0-1.5.1-2.2.1-2.8,0-5-.7-6.5-2-1.5-1.4-2.3-3.3-2.3-5.7v-28.5Z"/>
  </g>
</svg>