<?xml version="1.0" encoding="UTF-8"?>
<svg id="Layer_2" xmlns="http://www.w3.org/2000/svg" version="1.1" viewBox="0 0 153.7 177">
  <!-- Generator: Adobe Illustrator 29.1.0, SVG Export Plug-In . SVG Version: 2.1.0 Build 142)  -->
  <defs>
    <style>
      .st0 {
        fill: #fff;
      }
    </style>
  </defs>
  <path class="st0" d="M145,72.6v84.9c0,4.6-3.6,8.5-8.1,8.5H16.9c-4.4,0-8.1-3.8-8.1-8.5v-84.9C8.8,33,39.3.9,76.9.9s68.1,32.1,68.1,71.7Z"/>
  <g>
    <path d="M132.1,163.6c0,14.1-11.4,25.5-25.5,25.5h-59.3c-14.1,0-25.5-11.4-25.5-25.5l3.2-26c1.3-10.2,8.8-18.3,18.8-20.4l5.1-1.2-1.6-4.7-2.8-10.3c.5-4.9,4.6-8.4,9.4-8.4s4.4,2.2,4.1,4.6c-.4,4.2,3,8,7.2,8h23.2c4.2,0,7.5-3.6,7.3-7.7-.4-2.5,1.6-4.9,4.2-4.9,4.9,0,8.9,3.7,9.4,8.4-1,3.2-3.5,12-4.5,15l4.9,1.2c10.1,2.1,17.7,10.3,19.1,20.6l3.2,25.8h0Z"/>
    <g>
      <path d="M156.7,121.9c-2.4-.5-33.7-6.7-34.7-7-6-1.3-9.7-7.5-8-13.4,2-6.8-3.1-13.6-10.2-13.6h-54.2c-7.1,0-12.2,6.8-10.2,13.6,1.8,5.9-1.9,12.1-8,13.4-1.1.3-32.2,6.5-34.5,7l1.1-17.9c.8-12.7,9.7-23.3,21.9-26.3h0c7.6-1.9,15.5-2.9,23.3-2.9h67c7.9,0,15.7,1,23.3,2.9h0c12.3,3.1,21.1,13.8,21.9,26.3l1.1,17.9h0Z"/>
      <path d="M121.7,74.8h0Z"/>
    </g>
  </g>
</svg>