<?xml version="1.0" encoding="UTF-8"?>
<svg id="Layer_2" xmlns="http://www.w3.org/2000/svg" version="1.1" viewBox="0 0 177.6 177">
  <!-- Generator: Adobe Illustrator 29.1.0, SVG Export Plug-In . SVG Version: 2.1.0 Build 142)  -->
  <defs>
    <style>
      .st0 {
        fill: #ff4800;
      }
    </style>
  </defs>
  <g>
    <path class="st0" d="M39.3,92.5h0c20.2,0,36.7,16.4,36.7,36.7v43.5c0,2.4-1.9,4.3-4.3,4.3H6.9c-2.4,0-4.3-1.9-4.3-4.3v-43.5c0-20.2,16.4-36.7,36.7-36.7Z"/>
    <path class="st0" d="M137.1,92.5h0c20.2,0,36.7,16.4,36.7,36.7v43.5c0,2.4-1.9,4.3-4.3,4.3h-64.7c-2.4,0-4.3-1.9-4.3-4.3v-43.5c0-20.2,16.4-36.7,36.7-36.7h0Z"/>
  </g>
  <path class="st0" d="M88.2,0h0C108.4,0,124.9,16.4,124.9,36.7v43.5c0,2.4-1.9,4.3-4.3,4.3H55.8c-2.4,0-4.3-1.9-4.3-4.3v-43.5C51.5,16.4,67.9,0,88.2,0Z"/>
</svg>