<?xml version="1.0" encoding="UTF-8"?>
<svg id="Layer_2" data-name="Layer 2" xmlns="http://www.w3.org/2000/svg" viewBox="0 0 500.19 355.53">
  <g id="Layer_2-2" data-name="Layer 2">
    <path d="M481.04,207.52c-1.56,1.18-3.43,1.77-5.59,1.77-1.93,0-3.73-.48-5.35-1.44-1.61-.95-2.92-2.24-3.88-3.85-.97-1.6-1.46-3.4-1.46-5.33s.49-3.8,1.46-5.41c.96-1.6,2.27-2.9,3.88-3.85,1.62-.95,3.42-1.44,5.35-1.44,2.15,0,4.08.6,5.74,1.78,1.56,1.11,2.64,2.54,3.22,4.24h3.51c-.44-1.66-1.19-3.16-2.24-4.47-1.19-1.47-2.68-2.65-4.43-3.51-1.75-.85-3.7-1.28-5.8-1.28-2.55,0-4.91.63-7.01,1.87-2.11,1.24-3.81,2.94-5.06,5.04-1.24,2.09-1.87,4.46-1.87,7.03s.63,4.9,1.87,6.99c1.25,2.11,2.95,3.81,5.06,5.06,2.1,1.25,4.46,1.89,7.01,1.89,2.1,0,4.01-.44,5.69-1.29,1.69-.85,3.12-2.04,4.26-3.53,1.02-1.34,1.75-2.85,2.16-4.51h-3.51c-.55,1.72-1.56,3.14-3.01,4.24ZM481.04,207.52c-1.56,1.18-3.43,1.77-5.59,1.77-1.93,0-3.73-.48-5.35-1.44-1.61-.95-2.92-2.24-3.88-3.85-.97-1.6-1.46-3.4-1.46-5.33s.49-3.8,1.46-5.41c.96-1.6,2.27-2.9,3.88-3.85,1.62-.95,3.42-1.44,5.35-1.44,2.15,0,4.08.6,5.74,1.78,1.56,1.11,2.64,2.54,3.22,4.24h3.51c-.44-1.66-1.19-3.16-2.24-4.47-1.19-1.47-2.68-2.65-4.43-3.51-1.75-.85-3.7-1.28-5.8-1.28-2.55,0-4.91.63-7.01,1.87-2.11,1.24-3.81,2.94-5.06,5.04-1.24,2.09-1.87,4.46-1.87,7.03s.63,4.9,1.87,6.99c1.25,2.11,2.95,3.81,5.06,5.06,2.1,1.25,4.46,1.89,7.01,1.89,2.1,0,4.01-.44,5.69-1.29,1.69-.85,3.12-2.04,4.26-3.53,1.02-1.34,1.75-2.85,2.16-4.51h-3.51c-.55,1.72-1.56,3.14-3.01,4.24ZM481.04,207.52c-1.56,1.18-3.43,1.77-5.59,1.77-1.93,0-3.73-.48-5.35-1.44-1.61-.95-2.92-2.24-3.88-3.85-.97-1.6-1.46-3.4-1.46-5.33s.49-3.8,1.46-5.41c.96-1.6,2.27-2.9,3.88-3.85,1.62-.95,3.42-1.44,5.35-1.44,2.15,0,4.08.6,5.74,1.78,1.56,1.11,2.64,2.54,3.22,4.24h3.51c-.44-1.66-1.19-3.16-2.24-4.47-1.19-1.47-2.68-2.65-4.43-3.51-1.75-.85-3.7-1.28-5.8-1.28-2.55,0-4.91.63-7.01,1.87-2.11,1.24-3.81,2.94-5.06,5.04-1.24,2.09-1.87,4.46-1.87,7.03s.63,4.9,1.87,6.99c1.25,2.11,2.95,3.81,5.06,5.06,2.1,1.25,4.46,1.89,7.01,1.89,2.1,0,4.01-.44,5.69-1.29,1.69-.85,3.12-2.04,4.26-3.53,1.02-1.34,1.75-2.85,2.16-4.51h-3.51c-.55,1.72-1.56,3.14-3.01,4.24ZM481.04,207.52c-1.56,1.18-3.43,1.77-5.59,1.77-1.93,0-3.73-.48-5.35-1.44-1.61-.95-2.92-2.24-3.88-3.85-.97-1.6-1.46-3.4-1.46-5.33s.49-3.8,1.46-5.41c.96-1.6,2.27-2.9,3.88-3.85,1.62-.95,3.42-1.44,5.35-1.44,2.15,0,4.08.6,5.74,1.78,1.56,1.11,2.64,2.54,3.22,4.24h3.51c-.44-1.66-1.19-3.16-2.24-4.47-1.19-1.47-2.68-2.65-4.43-3.51-1.75-.85-3.7-1.28-5.8-1.28-2.55,0-4.91.63-7.01,1.87-2.11,1.24-3.81,2.94-5.06,5.04-1.24,2.09-1.87,4.46-1.87,7.03s.63,4.9,1.87,6.99c1.25,2.11,2.95,3.81,5.06,5.06,2.1,1.25,4.46,1.89,7.01,1.89,2.1,0,4.01-.44,5.69-1.29,1.69-.85,3.12-2.04,4.26-3.53,1.02-1.34,1.75-2.85,2.16-4.51h-3.51c-.55,1.72-1.56,3.14-3.01,4.24ZM481.04,207.52c-1.56,1.18-3.43,1.77-5.59,1.77-1.93,0-3.73-.48-5.35-1.44-1.61-.95-2.92-2.24-3.88-3.85-.97-1.6-1.46-3.4-1.46-5.33s.49-3.8,1.46-5.41c.96-1.6,2.27-2.9,3.88-3.85,1.62-.95,3.42-1.44,5.35-1.44,2.15,0,4.08.6,5.74,1.78,1.56,1.11,2.64,2.54,3.22,4.24h3.51c-.44-1.66-1.19-3.16-2.24-4.47-1.19-1.47-2.68-2.65-4.43-3.51-1.75-.85-3.7-1.28-5.8-1.28-2.55,0-4.91.63-7.01,1.87-2.11,1.24-3.81,2.94-5.06,5.04-1.24,2.09-1.87,4.46-1.87,7.03s.63,4.9,1.87,6.99c1.25,2.11,2.95,3.81,5.06,5.06,2.1,1.25,4.46,1.89,7.01,1.89,2.1,0,4.01-.44,5.69-1.29,1.69-.85,3.12-2.04,4.26-3.53,1.02-1.34,1.75-2.85,2.16-4.51h-3.51c-.55,1.72-1.56,3.14-3.01,4.24ZM481.04,207.52c-1.56,1.18-3.43,1.77-5.59,1.77-1.93,0-3.73-.48-5.35-1.44-1.61-.95-2.92-2.24-3.88-3.85-.97-1.6-1.46-3.4-1.46-5.33s.49-3.8,1.46-5.41c.96-1.6,2.27-2.9,3.88-3.85,1.62-.95,3.42-1.44,5.35-1.44,2.15,0,4.08.6,5.74,1.78,1.56,1.11,2.64,2.54,3.22,4.24h3.51c-.44-1.66-1.19-3.16-2.24-4.47-1.19-1.47-2.68-2.65-4.43-3.51-1.75-.85-3.7-1.28-5.8-1.28-2.55,0-4.91.63-7.01,1.87-2.11,1.24-3.81,2.94-5.06,5.04-1.24,2.09-1.87,4.46-1.87,7.03s.63,4.9,1.87,6.99c1.25,2.11,2.95,3.81,5.06,5.06,2.1,1.25,4.46,1.89,7.01,1.89,2.1,0,4.01-.44,5.69-1.29,1.69-.85,3.12-2.04,4.26-3.53,1.02-1.34,1.75-2.85,2.16-4.51h-3.51c-.55,1.72-1.56,3.14-3.01,4.24ZM481.04,207.52c-1.56,1.18-3.43,1.77-5.59,1.77-1.93,0-3.73-.48-5.35-1.44-1.61-.95-2.92-2.24-3.88-3.85-.97-1.6-1.46-3.4-1.46-5.33s.49-3.8,1.46-5.41c.96-1.6,2.27-2.9,3.88-3.85,1.62-.95,3.42-1.44,5.35-1.44,2.15,0,4.08.6,5.74,1.78,1.56,1.11,2.64,2.54,3.22,4.24h3.51c-.44-1.66-1.19-3.16-2.24-4.47-1.19-1.47-2.68-2.65-4.43-3.51-1.75-.85-3.7-1.28-5.8-1.28-2.55,0-4.91.63-7.01,1.87-2.11,1.24-3.81,2.94-5.06,5.04-1.24,2.09-1.87,4.46-1.87,7.03s.63,4.9,1.87,6.99c1.25,2.11,2.95,3.81,5.06,5.06,2.1,1.25,4.46,1.89,7.01,1.89,2.1,0,4.01-.44,5.69-1.29,1.69-.85,3.12-2.04,4.26-3.53,1.02-1.34,1.75-2.85,2.16-4.51h-3.51c-.55,1.72-1.56,3.14-3.01,4.24ZM481.04,207.52c-1.56,1.18-3.43,1.77-5.59,1.77-1.93,0-3.73-.48-5.35-1.44-1.61-.95-2.92-2.24-3.88-3.85-.97-1.6-1.46-3.4-1.46-5.33s.49-3.8,1.46-5.41c.96-1.6,2.27-2.9,3.88-3.85,1.62-.95,3.42-1.44,5.35-1.44,2.15,0,4.08.6,5.74,1.78,1.56,1.11,2.64,2.54,3.22,4.24h3.51c-.44-1.66-1.19-3.16-2.24-4.47-1.19-1.47-2.68-2.65-4.43-3.51-1.75-.85-3.7-1.28-5.8-1.28-2.55,0-4.91.63-7.01,1.87-2.11,1.24-3.81,2.94-5.06,5.04-1.24,2.09-1.87,4.46-1.87,7.03s.63,4.9,1.87,6.99c1.25,2.11,2.95,3.81,5.06,5.06,2.1,1.25,4.46,1.89,7.01,1.89,2.1,0,4.01-.44,5.69-1.29,1.69-.85,3.12-2.04,4.26-3.53,1.02-1.34,1.75-2.85,2.16-4.51h-3.51c-.55,1.72-1.56,3.14-3.01,4.24ZM481.04,207.52c-1.56,1.18-3.43,1.77-5.59,1.77-1.93,0-3.73-.48-5.35-1.44-1.61-.95-2.92-2.24-3.88-3.85-.97-1.6-1.46-3.4-1.46-5.33s.49-3.8,1.46-5.41c.96-1.6,2.27-2.9,3.88-3.85,1.62-.95,3.42-1.44,5.35-1.44,2.15,0,4.08.6,5.74,1.78,1.56,1.11,2.64,2.54,3.22,4.24h3.51c-.44-1.66-1.19-3.16-2.24-4.47-1.19-1.47-2.68-2.65-4.43-3.51-1.75-.85-3.7-1.28-5.8-1.28-2.55,0-4.91.63-7.01,1.87-2.11,1.24-3.81,2.94-5.06,5.04-1.24,2.09-1.87,4.46-1.87,7.03s.63,4.9,1.87,6.99c1.25,2.11,2.95,3.81,5.06,5.06,2.1,1.25,4.46,1.89,7.01,1.89,2.1,0,4.01-.44,5.69-1.29,1.69-.85,3.12-2.04,4.26-3.53,1.02-1.34,1.75-2.85,2.16-4.51h-3.51c-.55,1.72-1.56,3.14-3.01,4.24ZM481.04,207.52c-1.56,1.18-3.43,1.77-5.59,1.77-1.93,0-3.73-.48-5.35-1.44-1.61-.95-2.92-2.24-3.88-3.85-.97-1.6-1.46-3.4-1.46-5.33s.49-3.8,1.46-5.41c.96-1.6,2.27-2.9,3.88-3.85,1.62-.95,3.42-1.44,5.35-1.44,2.15,0,4.08.6,5.74,1.78,1.56,1.11,2.64,2.54,3.22,4.24h3.51c-.44-1.66-1.19-3.16-2.24-4.47-1.19-1.47-2.68-2.65-4.43-3.51-1.75-.85-3.7-1.28-5.8-1.28-2.55,0-4.91.63-7.01,1.87-2.11,1.24-3.81,2.94-5.06,5.04-1.24,2.09-1.87,4.46-1.87,7.03s.63,4.9,1.87,6.99c1.25,2.11,2.95,3.81,5.06,5.06,2.1,1.25,4.46,1.89,7.01,1.89,2.1,0,4.01-.44,5.69-1.29,1.69-.85,3.12-2.04,4.26-3.53,1.02-1.34,1.75-2.85,2.16-4.51h-3.51c-.55,1.72-1.56,3.14-3.01,4.24ZM498.24,188.87c-1.29-3.02-3.12-5.73-5.43-8.03-2.3-2.31-5.01-4.13-8.03-5.43-3.02-1.29-6.3-1.95-9.76-1.95s-6.74.66-9.76,1.95c-3.03,1.3-5.73,3.12-8.04,5.43-2.3,2.3-4.13,5.01-5.42,8.03s-1.95,6.3-1.95,9.76.66,6.75,1.95,9.77,3.12,5.72,5.42,8.03c2.31,2.3,5.01,4.13,8.04,5.42,3.02,1.3,6.3,1.95,9.76,1.95s6.74-.65,9.76-1.95c3.03-1.29,5.73-3.12,8.03-5.42,2.31-2.31,4.14-5.01,5.43-8.03s1.95-6.31,1.95-9.77-.66-6.74-1.95-9.76ZM495.11,207.09c-1.12,2.6-2.7,4.94-4.7,6.94s-4.33,3.57-6.94,4.7c-2.61,1.12-5.46,1.69-8.45,1.69s-5.84-.57-8.45-1.69-4.95-2.71-6.94-4.7-3.58-4.33-4.71-6.94c-1.12-2.62-1.69-5.46-1.69-8.46s.57-5.84,1.69-8.45c1.13-2.61,2.71-4.94,4.71-6.94,1.99-2,4.33-3.58,6.94-4.7,2.61-1.13,5.45-1.7,8.45-1.7s5.84.57,8.45,1.7c2.61,1.12,4.95,2.7,6.94,4.7,2,2,3.58,4.33,4.7,6.94,1.13,2.61,1.7,5.46,1.7,8.45s-.57,5.84-1.7,8.46ZM470.1,189.41c1.62-.95,3.42-1.44,5.35-1.44,2.15,0,4.08.6,5.74,1.78,1.56,1.11,2.64,2.54,3.22,4.24h3.51c-.44-1.66-1.19-3.16-2.24-4.47-1.19-1.47-2.68-2.65-4.43-3.51-1.75-.85-3.7-1.28-5.8-1.28-2.55,0-4.91.63-7.01,1.87-2.11,1.24-3.81,2.94-5.06,5.04-1.24,2.09-1.87,4.46-1.87,7.03s.63,4.9,1.87,6.99c1.25,2.11,2.95,3.81,5.06,5.06,2.1,1.25,4.46,1.89,7.01,1.89,2.1,0,4.01-.44,5.69-1.29,1.69-.85,3.12-2.04,4.26-3.53,1.02-1.34,1.75-2.85,2.16-4.51h-3.51c-.55,1.72-1.56,3.14-3.01,4.24-1.56,1.18-3.43,1.77-5.59,1.77-1.93,0-3.73-.48-5.35-1.44-1.61-.95-2.92-2.24-3.88-3.85-.97-1.6-1.46-3.4-1.46-5.33s.49-3.8,1.46-5.41c.96-1.6,2.27-2.9,3.88-3.85ZM481.04,207.52c-1.56,1.18-3.43,1.77-5.59,1.77-1.93,0-3.73-.48-5.35-1.44-1.61-.95-2.92-2.24-3.88-3.85-.97-1.6-1.46-3.4-1.46-5.33s.49-3.8,1.46-5.41c.96-1.6,2.27-2.9,3.88-3.85,1.62-.95,3.42-1.44,5.35-1.44,2.15,0,4.08.6,5.74,1.78,1.56,1.11,2.64,2.54,3.22,4.24h3.51c-.44-1.66-1.19-3.16-2.24-4.47-1.19-1.47-2.68-2.65-4.43-3.51-1.75-.85-3.7-1.28-5.8-1.28-2.55,0-4.91.63-7.01,1.87-2.11,1.24-3.81,2.94-5.06,5.04-1.24,2.09-1.87,4.46-1.87,7.03s.63,4.9,1.87,6.99c1.25,2.11,2.95,3.81,5.06,5.06,2.1,1.25,4.46,1.89,7.01,1.89,2.1,0,4.01-.44,5.69-1.29,1.69-.85,3.12-2.04,4.26-3.53,1.02-1.34,1.75-2.85,2.16-4.51h-3.51c-.55,1.72-1.56,3.14-3.01,4.24ZM481.04,207.52c-1.56,1.18-3.43,1.77-5.59,1.77-1.93,0-3.73-.48-5.35-1.44-1.61-.95-2.92-2.24-3.88-3.85-.97-1.6-1.46-3.4-1.46-5.33s.49-3.8,1.46-5.41c.96-1.6,2.27-2.9,3.88-3.85,1.62-.95,3.42-1.44,5.35-1.44,2.15,0,4.08.6,5.74,1.78,1.56,1.11,2.64,2.54,3.22,4.24h3.51c-.44-1.66-1.19-3.16-2.24-4.47-1.19-1.47-2.68-2.65-4.43-3.51-1.75-.85-3.7-1.28-5.8-1.28-2.55,0-4.91.63-7.01,1.87-2.11,1.24-3.81,2.94-5.06,5.04-1.24,2.09-1.87,4.46-1.87,7.03s.63,4.9,1.87,6.99c1.25,2.11,2.95,3.81,5.06,5.06,2.1,1.25,4.46,1.89,7.01,1.89,2.1,0,4.01-.44,5.69-1.29,1.69-.85,3.12-2.04,4.26-3.53,1.02-1.34,1.75-2.85,2.16-4.51h-3.51c-.55,1.72-1.56,3.14-3.01,4.24ZM481.04,207.52c-1.56,1.18-3.43,1.77-5.59,1.77-1.93,0-3.73-.48-5.35-1.44-1.61-.95-2.92-2.24-3.88-3.85-.97-1.6-1.46-3.4-1.46-5.33s.49-3.8,1.46-5.41c.96-1.6,2.27-2.9,3.88-3.85,1.62-.95,3.42-1.44,5.35-1.44,2.15,0,4.08.6,5.74,1.78,1.56,1.11,2.64,2.54,3.22,4.24h3.51c-.44-1.66-1.19-3.16-2.24-4.47-1.19-1.47-2.68-2.65-4.43-3.51-1.75-.85-3.7-1.28-5.8-1.28-2.55,0-4.91.63-7.01,1.87-2.11,1.24-3.81,2.94-5.06,5.04-1.24,2.09-1.87,4.46-1.87,7.03s.63,4.9,1.87,6.99c1.25,2.11,2.95,3.81,5.06,5.06,2.1,1.25,4.46,1.89,7.01,1.89,2.1,0,4.01-.44,5.69-1.29,1.69-.85,3.12-2.04,4.26-3.53,1.02-1.34,1.75-2.85,2.16-4.51h-3.51c-.55,1.72-1.56,3.14-3.01,4.24ZM481.04,207.52c-1.56,1.18-3.43,1.77-5.59,1.77-1.93,0-3.73-.48-5.35-1.44-1.61-.95-2.92-2.24-3.88-3.85-.97-1.6-1.46-3.4-1.46-5.33s.49-3.8,1.46-5.41c.96-1.6,2.27-2.9,3.88-3.85,1.62-.95,3.42-1.44,5.35-1.44,2.15,0,4.08.6,5.74,1.78,1.56,1.11,2.64,2.54,3.22,4.24h3.51c-.44-1.66-1.19-3.16-2.24-4.47-1.19-1.47-2.68-2.65-4.43-3.51-1.75-.85-3.7-1.28-5.8-1.28-2.55,0-4.91.63-7.01,1.87-2.11,1.24-3.81,2.94-5.06,5.04-1.24,2.09-1.87,4.46-1.87,7.03s.63,4.9,1.87,6.99c1.25,2.11,2.95,3.81,5.06,5.06,2.1,1.25,4.46,1.89,7.01,1.89,2.1,0,4.01-.44,5.69-1.29,1.69-.85,3.12-2.04,4.26-3.53,1.02-1.34,1.75-2.85,2.16-4.51h-3.51c-.55,1.72-1.56,3.14-3.01,4.24ZM481.04,207.52c-1.56,1.18-3.43,1.77-5.59,1.77-1.93,0-3.73-.48-5.35-1.44-1.61-.95-2.92-2.24-3.88-3.85-.97-1.6-1.46-3.4-1.46-5.33s.49-3.8,1.46-5.41c.96-1.6,2.27-2.9,3.88-3.85,1.62-.95,3.42-1.44,5.35-1.44,2.15,0,4.08.6,5.74,1.78,1.56,1.11,2.64,2.54,3.22,4.24h3.51c-.44-1.66-1.19-3.16-2.24-4.47-1.19-1.47-2.68-2.65-4.43-3.51-1.75-.85-3.7-1.28-5.8-1.28-2.55,0-4.91.63-7.01,1.87-2.11,1.24-3.81,2.94-5.06,5.04-1.24,2.09-1.87,4.46-1.87,7.03s.63,4.9,1.87,6.99c1.25,2.11,2.95,3.81,5.06,5.06,2.1,1.25,4.46,1.89,7.01,1.89,2.1,0,4.01-.44,5.69-1.29,1.69-.85,3.12-2.04,4.26-3.53,1.02-1.34,1.75-2.85,2.16-4.51h-3.51c-.55,1.72-1.56,3.14-3.01,4.24ZM481.04,207.52c-1.56,1.18-3.43,1.77-5.59,1.77-1.93,0-3.73-.48-5.35-1.44-1.61-.95-2.92-2.24-3.88-3.85-.97-1.6-1.46-3.4-1.46-5.33s.49-3.8,1.46-5.41c.96-1.6,2.27-2.9,3.88-3.85,1.62-.95,3.42-1.44,5.35-1.44,2.15,0,4.08.6,5.74,1.78,1.56,1.11,2.64,2.54,3.22,4.24h3.51c-.44-1.66-1.19-3.16-2.24-4.47-1.19-1.47-2.68-2.65-4.43-3.51-1.75-.85-3.7-1.28-5.8-1.28-2.55,0-4.91.63-7.01,1.87-2.11,1.24-3.81,2.94-5.06,5.04-1.24,2.09-1.87,4.46-1.87,7.03s.63,4.9,1.87,6.99c1.25,2.11,2.95,3.81,5.06,5.06,2.1,1.25,4.46,1.89,7.01,1.89,2.1,0,4.01-.44,5.69-1.29,1.69-.85,3.12-2.04,4.26-3.53,1.02-1.34,1.75-2.85,2.16-4.51h-3.51c-.55,1.72-1.56,3.14-3.01,4.24ZM481.04,207.52c-1.56,1.18-3.43,1.77-5.59,1.77-1.93,0-3.73-.48-5.35-1.44-1.61-.95-2.92-2.24-3.88-3.85-.97-1.6-1.46-3.4-1.46-5.33s.49-3.8,1.46-5.41c.96-1.6,2.27-2.9,3.88-3.85,1.62-.95,3.42-1.44,5.35-1.44,2.15,0,4.08.6,5.74,1.78,1.56,1.11,2.64,2.54,3.22,4.24h3.51c-.44-1.66-1.19-3.16-2.24-4.47-1.19-1.47-2.68-2.65-4.43-3.51-1.75-.85-3.7-1.28-5.8-1.28-2.55,0-4.91.63-7.01,1.87-2.11,1.24-3.81,2.94-5.06,5.04-1.24,2.09-1.87,4.46-1.87,7.03s.63,4.9,1.87,6.99c1.25,2.11,2.95,3.81,5.06,5.06,2.1,1.25,4.46,1.89,7.01,1.89,2.1,0,4.01-.44,5.69-1.29,1.69-.85,3.12-2.04,4.26-3.53,1.02-1.34,1.75-2.85,2.16-4.51h-3.51c-.55,1.72-1.56,3.14-3.01,4.24ZM481.04,207.52c-1.56,1.18-3.43,1.77-5.59,1.77-1.93,0-3.73-.48-5.35-1.44-1.61-.95-2.92-2.24-3.88-3.85-.97-1.6-1.46-3.4-1.46-5.33s.49-3.8,1.46-5.41c.96-1.6,2.27-2.9,3.88-3.85,1.62-.95,3.42-1.44,5.35-1.44,2.15,0,4.08.6,5.74,1.78,1.56,1.11,2.64,2.54,3.22,4.24h3.51c-.44-1.66-1.19-3.16-2.24-4.47-1.19-1.47-2.68-2.65-4.43-3.51-1.75-.85-3.7-1.28-5.8-1.28-2.55,0-4.91.63-7.01,1.87-2.11,1.24-3.81,2.94-5.06,5.04-1.24,2.09-1.87,4.46-1.87,7.03s.63,4.9,1.87,6.99c1.25,2.11,2.95,3.81,5.06,5.06,2.1,1.25,4.46,1.89,7.01,1.89,2.1,0,4.01-.44,5.69-1.29,1.69-.85,3.12-2.04,4.26-3.53,1.02-1.34,1.75-2.85,2.16-4.51h-3.51c-.55,1.72-1.56,3.14-3.01,4.24Z"/>
    <g>
      <path d="M326.39,0v53.08l-71.11,71.11v53.58h-35.55v-53.58l-71.11-71.11V0h35.55v43.17l53.33,53.33,53.33-53.33V0h35.55Z"/>
      <path d="M326.39,177.76v35.55h-71.11v142.21h-35.55v-142.21h-71.11v-35.55h177.76Z"/>
    </g>
    <g>
      <path d="M177.76,109.75v35.55h-71.11v142.21h-35.55v-142.21H0v-35.55h177.76Z"/>
      <path d="M475.02,109.75v35.55h-20.32l-53.33,53.33,53.33,53.33h20.32v35.55h-76.69v-32.5h13.97l-26.16-26.16-58.66,58.66h-30.22v-35.55h20.32l53.33-53.33-53.33-53.33h-20.32v-35.55h76.69v32.51h-13.97l26.16,26.16,58.66-58.66h30.22Z"/>
    </g>
  </g>
</svg>