<?xml version="1.0" encoding="UTF-8"?>
<svg id="Layer_2" data-name="Layer 2" xmlns="http://www.w3.org/2000/svg" viewBox="0 0 928.85 488.49">
  <g id="Layer_2-2" data-name="Layer 2">
    <g>
      <polygon points="97.35 234.01 189.77 487.7 187.6 488.49 118.22 488.49 33.93 257.11 0 269.47 0 197.63 201.09 124.37 224.2 187.8 97.35 234.01"/>
      <polygon points="550.15 0 524.89 96.16 360.02 192.43 334.17 290.82 268.89 273.67 294.73 175.28 198.46 10.41 201.19 0 270.98 0 268.52 9.37 340.73 133.02 464.38 60.82 480.36 0 550.15 0"/>
      <polygon points="641.47 387.24 506.47 387.24 506.47 488.49 438.97 488.49 438.97 387.24 303.97 387.24 303.97 319.74 641.47 319.74 641.47 387.24"/>
      <polygon points="905.56 196.19 817.84 309.36 928.85 395.41 928.85 465.4 833.31 477.5 825.55 416.28 851.86 412.94 796.35 369.91 704.43 488.49 641.27 488.49 634.45 434.65 672.72 429.8 760.44 316.63 647.27 228.91 609 233.75 600.52 166.79 744.97 148.49 752.73 209.72 726.42 213.05 781.93 256.08 878.42 131.58 928.85 125.19 928.85 193.24 905.56 196.19"/>
      <path d="M833.71,64.56c-2.18,1.65-4.79,2.47-7.8,2.47-2.69,0-5.21-.67-7.47-2.01-2.24-1.33-4.07-3.13-5.41-5.37-1.35-2.24-2.04-4.75-2.04-7.44s.69-5.31,2.04-7.55c1.34-2.24,3.17-4.05,5.41-5.38,2.26-1.32,4.78-2.01,7.47-2.01,3,0,5.69.84,8.01,2.49,2.18,1.55,3.69,3.54,4.5,5.92h4.89c-.61-2.32-1.66-4.41-3.12-6.24-1.66-2.05-3.74-3.7-6.19-4.9-2.44-1.19-5.16-1.79-8.09-1.79-3.56,0-6.85.88-9.78,2.61-2.95,1.73-5.32,4.11-7.06,7.04-1.74,2.91-2.61,6.22-2.61,9.81s.87,6.84,2.61,9.75c1.74,2.95,4.11,5.32,7.06,7.06,2.93,1.75,6.22,2.64,9.78,2.64,2.93,0,5.6-.61,7.94-1.8,2.36-1.18,4.36-2.84,5.95-4.92,1.42-1.87,2.44-3.98,3.01-6.3h-4.9c-.77,2.4-2.17,4.38-4.2,5.92ZM833.71,64.56c-2.18,1.65-4.79,2.47-7.8,2.47-2.69,0-5.21-.67-7.47-2.01-2.24-1.33-4.07-3.13-5.41-5.37-1.35-2.24-2.04-4.75-2.04-7.44s.69-5.31,2.04-7.55c1.34-2.24,3.17-4.05,5.41-5.38,2.26-1.32,4.78-2.01,7.47-2.01,3,0,5.69.84,8.01,2.49,2.18,1.55,3.69,3.54,4.5,5.92h4.89c-.61-2.32-1.66-4.41-3.12-6.24-1.66-2.05-3.74-3.7-6.19-4.9-2.44-1.19-5.16-1.79-8.09-1.79-3.56,0-6.85.88-9.78,2.61-2.95,1.73-5.32,4.11-7.06,7.04-1.74,2.91-2.61,6.22-2.61,9.81s.87,6.84,2.61,9.75c1.74,2.95,4.11,5.32,7.06,7.06,2.93,1.75,6.22,2.64,9.78,2.64,2.93,0,5.6-.61,7.94-1.8,2.36-1.18,4.36-2.84,5.95-4.92,1.42-1.87,2.44-3.98,3.01-6.3h-4.9c-.77,2.4-2.17,4.38-4.2,5.92ZM833.71,64.56c-2.18,1.65-4.79,2.47-7.8,2.47-2.69,0-5.21-.67-7.47-2.01-2.24-1.33-4.07-3.13-5.41-5.37-1.35-2.24-2.04-4.75-2.04-7.44s.69-5.31,2.04-7.55c1.34-2.24,3.17-4.05,5.41-5.38,2.26-1.32,4.78-2.01,7.47-2.01,3,0,5.69.84,8.01,2.49,2.18,1.55,3.69,3.54,4.5,5.92h4.89c-.61-2.32-1.66-4.41-3.12-6.24-1.66-2.05-3.74-3.7-6.19-4.9-2.44-1.19-5.16-1.79-8.09-1.79-3.56,0-6.85.88-9.78,2.61-2.95,1.73-5.32,4.11-7.06,7.04-1.74,2.91-2.61,6.22-2.61,9.81s.87,6.84,2.61,9.75c1.74,2.95,4.11,5.32,7.06,7.06,2.93,1.75,6.22,2.64,9.78,2.64,2.93,0,5.6-.61,7.94-1.8,2.36-1.18,4.36-2.84,5.95-4.92,1.42-1.87,2.44-3.98,3.01-6.3h-4.9c-.77,2.4-2.17,4.38-4.2,5.92ZM833.71,64.56c-2.18,1.65-4.79,2.47-7.8,2.47-2.69,0-5.21-.67-7.47-2.01-2.24-1.33-4.07-3.13-5.41-5.37-1.35-2.24-2.04-4.75-2.04-7.44s.69-5.31,2.04-7.55c1.34-2.24,3.17-4.05,5.41-5.38,2.26-1.32,4.78-2.01,7.47-2.01,3,0,5.69.84,8.01,2.49,2.18,1.55,3.69,3.54,4.5,5.92h4.89c-.61-2.32-1.66-4.41-3.12-6.24-1.66-2.05-3.74-3.7-6.19-4.9-2.44-1.19-5.16-1.79-8.09-1.79-3.56,0-6.85.88-9.78,2.61-2.95,1.73-5.32,4.11-7.06,7.04-1.74,2.91-2.61,6.22-2.61,9.81s.87,6.84,2.61,9.75c1.74,2.95,4.11,5.32,7.06,7.06,2.93,1.75,6.22,2.64,9.78,2.64,2.93,0,5.6-.61,7.94-1.8,2.36-1.18,4.36-2.84,5.95-4.92,1.42-1.87,2.44-3.98,3.01-6.3h-4.9c-.77,2.4-2.17,4.38-4.2,5.92ZM833.71,64.56c-2.18,1.65-4.79,2.47-7.8,2.47-2.69,0-5.21-.67-7.47-2.01-2.24-1.33-4.07-3.13-5.41-5.37-1.35-2.24-2.04-4.75-2.04-7.44s.69-5.31,2.04-7.55c1.34-2.24,3.17-4.05,5.41-5.38,2.26-1.32,4.78-2.01,7.47-2.01,3,0,5.69.84,8.01,2.49,2.18,1.55,3.69,3.54,4.5,5.92h4.89c-.61-2.32-1.66-4.41-3.12-6.24-1.66-2.05-3.74-3.7-6.19-4.9-2.44-1.19-5.16-1.79-8.09-1.79-3.56,0-6.85.88-9.78,2.61-2.95,1.73-5.32,4.11-7.06,7.04-1.74,2.91-2.61,6.22-2.61,9.81s.87,6.84,2.61,9.75c1.74,2.95,4.11,5.32,7.06,7.06,2.93,1.75,6.22,2.64,9.78,2.64,2.93,0,5.6-.61,7.94-1.8,2.36-1.18,4.36-2.84,5.95-4.92,1.42-1.87,2.44-3.98,3.01-6.3h-4.9c-.77,2.4-2.17,4.38-4.2,5.92ZM833.71,64.56c-2.18,1.65-4.79,2.47-7.8,2.47-2.69,0-5.21-.67-7.47-2.01-2.24-1.33-4.07-3.13-5.41-5.37-1.35-2.24-2.04-4.75-2.04-7.44s.69-5.31,2.04-7.55c1.34-2.24,3.17-4.05,5.41-5.38,2.26-1.32,4.78-2.01,7.47-2.01,3,0,5.69.84,8.01,2.49,2.18,1.55,3.69,3.54,4.5,5.92h4.89c-.61-2.32-1.66-4.41-3.12-6.24-1.66-2.05-3.74-3.7-6.19-4.9-2.44-1.19-5.16-1.79-8.09-1.79-3.56,0-6.85.88-9.78,2.61-2.95,1.73-5.32,4.11-7.06,7.04-1.74,2.91-2.61,6.22-2.61,9.81s.87,6.84,2.61,9.75c1.74,2.95,4.11,5.32,7.06,7.06,2.93,1.75,6.22,2.64,9.78,2.64,2.93,0,5.6-.61,7.94-1.8,2.36-1.18,4.36-2.84,5.95-4.92,1.42-1.87,2.44-3.98,3.01-6.3h-4.9c-.77,2.4-2.17,4.38-4.2,5.92ZM833.71,64.56c-2.18,1.65-4.79,2.47-7.8,2.47-2.69,0-5.21-.67-7.47-2.01-2.24-1.33-4.07-3.13-5.41-5.37-1.35-2.24-2.04-4.75-2.04-7.44s.69-5.31,2.04-7.55c1.34-2.24,3.17-4.05,5.41-5.38,2.26-1.32,4.78-2.01,7.47-2.01,3,0,5.69.84,8.01,2.49,2.18,1.55,3.69,3.54,4.5,5.92h4.89c-.61-2.32-1.66-4.41-3.12-6.24-1.66-2.05-3.74-3.7-6.19-4.9-2.44-1.19-5.16-1.79-8.09-1.79-3.56,0-6.85.88-9.78,2.61-2.95,1.73-5.32,4.11-7.06,7.04-1.74,2.91-2.61,6.22-2.61,9.81s.87,6.84,2.61,9.75c1.74,2.95,4.11,5.32,7.06,7.06,2.93,1.75,6.22,2.64,9.78,2.64,2.93,0,5.6-.61,7.94-1.8,2.36-1.18,4.36-2.84,5.95-4.92,1.42-1.87,2.44-3.98,3.01-6.3h-4.9c-.77,2.4-2.17,4.38-4.2,5.92ZM833.71,64.56c-2.18,1.65-4.79,2.47-7.8,2.47-2.69,0-5.21-.67-7.47-2.01-2.24-1.33-4.07-3.13-5.41-5.37-1.35-2.24-2.04-4.75-2.04-7.44s.69-5.31,2.04-7.55c1.34-2.24,3.17-4.05,5.41-5.38,2.26-1.32,4.78-2.01,7.47-2.01,3,0,5.69.84,8.01,2.49,2.18,1.55,3.69,3.54,4.5,5.92h4.89c-.61-2.32-1.66-4.41-3.12-6.24-1.66-2.05-3.74-3.7-6.19-4.9-2.44-1.19-5.16-1.79-8.09-1.79-3.56,0-6.85.88-9.78,2.61-2.95,1.73-5.32,4.11-7.06,7.04-1.74,2.91-2.61,6.22-2.61,9.81s.87,6.84,2.61,9.75c1.74,2.95,4.11,5.32,7.06,7.06,2.93,1.75,6.22,2.64,9.78,2.64,2.93,0,5.6-.61,7.94-1.8,2.36-1.18,4.36-2.84,5.95-4.92,1.42-1.87,2.44-3.98,3.01-6.3h-4.9c-.77,2.4-2.17,4.38-4.2,5.92ZM833.71,64.56c-2.18,1.65-4.79,2.47-7.8,2.47-2.69,0-5.21-.67-7.47-2.01-2.24-1.33-4.07-3.13-5.41-5.37-1.35-2.24-2.04-4.75-2.04-7.44s.69-5.31,2.04-7.55c1.34-2.24,3.17-4.05,5.41-5.38,2.26-1.32,4.78-2.01,7.47-2.01,3,0,5.69.84,8.01,2.49,2.18,1.55,3.69,3.54,4.5,5.92h4.89c-.61-2.32-1.66-4.41-3.12-6.24-1.66-2.05-3.74-3.7-6.19-4.9-2.44-1.19-5.16-1.79-8.09-1.79-3.56,0-6.85.88-9.78,2.61-2.95,1.73-5.32,4.11-7.06,7.04-1.74,2.91-2.61,6.22-2.61,9.81s.87,6.84,2.61,9.75c1.74,2.95,4.11,5.32,7.06,7.06,2.93,1.75,6.22,2.64,9.78,2.64,2.93,0,5.6-.61,7.94-1.8,2.36-1.18,4.36-2.84,5.95-4.92,1.42-1.87,2.44-3.98,3.01-6.3h-4.9c-.77,2.4-2.17,4.38-4.2,5.92ZM833.71,64.56c-2.18,1.65-4.79,2.47-7.8,2.47-2.69,0-5.21-.67-7.47-2.01-2.24-1.33-4.07-3.13-5.41-5.37-1.35-2.24-2.04-4.75-2.04-7.44s.69-5.31,2.04-7.55c1.34-2.24,3.17-4.05,5.41-5.38,2.26-1.32,4.78-2.01,7.47-2.01,3,0,5.69.84,8.01,2.49,2.18,1.55,3.69,3.54,4.5,5.92h4.89c-.61-2.32-1.66-4.41-3.12-6.24-1.66-2.05-3.74-3.7-6.19-4.9-2.44-1.19-5.16-1.79-8.09-1.79-3.56,0-6.85.88-9.78,2.61-2.95,1.73-5.32,4.11-7.06,7.04-1.74,2.91-2.61,6.22-2.61,9.81s.87,6.84,2.61,9.75c1.74,2.95,4.11,5.32,7.06,7.06,2.93,1.75,6.22,2.64,9.78,2.64,2.93,0,5.6-.61,7.94-1.8,2.36-1.18,4.36-2.84,5.95-4.92,1.42-1.87,2.44-3.98,3.01-6.3h-4.9c-.77,2.4-2.17,4.38-4.2,5.92ZM833.71,64.56c-2.18,1.65-4.79,2.47-7.8,2.47-2.69,0-5.21-.67-7.47-2.01-2.24-1.33-4.07-3.13-5.41-5.37-1.35-2.24-2.04-4.75-2.04-7.44s.69-5.31,2.04-7.55c1.34-2.24,3.17-4.05,5.41-5.38,2.26-1.32,4.78-2.01,7.47-2.01,3,0,5.69.84,8.01,2.49,2.18,1.55,3.69,3.54,4.5,5.92h4.89c-.61-2.32-1.66-4.41-3.12-6.24-1.66-2.05-3.74-3.7-6.19-4.9-2.44-1.19-5.16-1.79-8.09-1.79-3.56,0-6.85.88-9.78,2.61-2.95,1.73-5.32,4.11-7.06,7.04-1.74,2.91-2.61,6.22-2.61,9.81s.87,6.84,2.61,9.75c1.74,2.95,4.11,5.32,7.06,7.06,2.93,1.75,6.22,2.64,9.78,2.64,2.93,0,5.6-.61,7.94-1.8,2.36-1.18,4.36-2.84,5.95-4.92,1.42-1.87,2.44-3.98,3.01-6.3h-4.9c-.77,2.4-2.17,4.38-4.2,5.92ZM833.71,64.56c-2.18,1.65-4.79,2.47-7.8,2.47-2.69,0-5.21-.67-7.47-2.01-2.24-1.33-4.07-3.13-5.41-5.37-1.35-2.24-2.04-4.75-2.04-7.44s.69-5.31,2.04-7.55c1.34-2.24,3.17-4.05,5.41-5.38,2.26-1.32,4.78-2.01,7.47-2.01,3,0,5.69.84,8.01,2.49,2.18,1.55,3.69,3.54,4.5,5.92h4.89c-.61-2.32-1.66-4.41-3.12-6.24-1.66-2.05-3.74-3.7-6.19-4.9-2.44-1.19-5.16-1.79-8.09-1.79-3.56,0-6.85.88-9.78,2.61-2.95,1.73-5.32,4.11-7.06,7.04-1.74,2.91-2.61,6.22-2.61,9.81s.87,6.84,2.61,9.75c1.74,2.95,4.11,5.32,7.06,7.06,2.93,1.75,6.22,2.64,9.78,2.64,2.93,0,5.6-.61,7.94-1.8,2.36-1.18,4.36-2.84,5.95-4.92,1.42-1.87,2.44-3.98,3.01-6.3h-4.9c-.77,2.4-2.17,4.38-4.2,5.92ZM833.71,64.56c-2.18,1.65-4.79,2.47-7.8,2.47-2.69,0-5.21-.67-7.47-2.01-2.24-1.33-4.07-3.13-5.41-5.37-1.35-2.24-2.04-4.75-2.04-7.44s.69-5.31,2.04-7.55c1.34-2.24,3.17-4.05,5.41-5.38,2.26-1.32,4.78-2.01,7.47-2.01,3,0,5.69.84,8.01,2.49,2.18,1.55,3.69,3.54,4.5,5.92h4.89c-.61-2.32-1.66-4.41-3.12-6.24-1.66-2.05-3.74-3.7-6.19-4.9-2.44-1.19-5.16-1.79-8.09-1.79-3.56,0-6.85.88-9.78,2.61-2.95,1.73-5.32,4.11-7.06,7.04-1.74,2.91-2.61,6.22-2.61,9.81s.87,6.84,2.61,9.75c1.74,2.95,4.11,5.32,7.06,7.06,2.93,1.75,6.22,2.64,9.78,2.64,2.93,0,5.6-.61,7.94-1.8,2.36-1.18,4.36-2.84,5.95-4.92,1.42-1.87,2.44-3.98,3.01-6.3h-4.9c-.77,2.4-2.17,4.38-4.2,5.92ZM833.71,64.56c-2.18,1.65-4.79,2.47-7.8,2.47-2.69,0-5.21-.67-7.47-2.01-2.24-1.33-4.07-3.13-5.41-5.37-1.35-2.24-2.04-4.75-2.04-7.44s.69-5.31,2.04-7.55c1.34-2.24,3.17-4.05,5.41-5.38,2.26-1.32,4.78-2.01,7.47-2.01,3,0,5.69.84,8.01,2.49,2.18,1.55,3.69,3.54,4.5,5.92h4.89c-.61-2.32-1.66-4.41-3.12-6.24-1.66-2.05-3.74-3.7-6.19-4.9-2.44-1.19-5.16-1.79-8.09-1.79-3.56,0-6.85.88-9.78,2.61-2.95,1.73-5.32,4.11-7.06,7.04-1.74,2.91-2.61,6.22-2.61,9.81s.87,6.84,2.61,9.75c1.74,2.95,4.11,5.32,7.06,7.06,2.93,1.75,6.22,2.64,9.78,2.64,2.93,0,5.6-.61,7.94-1.8,2.36-1.18,4.36-2.84,5.95-4.92,1.42-1.87,2.44-3.98,3.01-6.3h-4.9c-.77,2.4-2.17,4.38-4.2,5.92ZM833.71,64.56c-2.18,1.65-4.79,2.47-7.8,2.47-2.69,0-5.21-.67-7.47-2.01-2.24-1.33-4.07-3.13-5.41-5.37-1.35-2.24-2.04-4.75-2.04-7.44s.69-5.31,2.04-7.55c1.34-2.24,3.17-4.05,5.41-5.38,2.26-1.32,4.78-2.01,7.47-2.01,3,0,5.69.84,8.01,2.49,2.18,1.55,3.69,3.54,4.5,5.92h4.89c-.61-2.32-1.66-4.41-3.12-6.24-1.66-2.05-3.74-3.7-6.19-4.9-2.44-1.19-5.16-1.79-8.09-1.79-3.56,0-6.85.88-9.78,2.61-2.95,1.73-5.32,4.11-7.06,7.04-1.74,2.91-2.61,6.22-2.61,9.81s.87,6.84,2.61,9.75c1.74,2.95,4.11,5.32,7.06,7.06,2.93,1.75,6.22,2.64,9.78,2.64,2.93,0,5.6-.61,7.94-1.8,2.36-1.18,4.36-2.84,5.95-4.92,1.42-1.87,2.44-3.98,3.01-6.3h-4.9c-.77,2.4-2.17,4.38-4.2,5.92ZM833.71,64.56c-2.18,1.65-4.79,2.47-7.8,2.47-2.69,0-5.21-.67-7.47-2.01-2.24-1.33-4.07-3.13-5.41-5.37-1.35-2.24-2.04-4.75-2.04-7.44s.69-5.31,2.04-7.55c1.34-2.24,3.17-4.05,5.41-5.38,2.26-1.32,4.78-2.01,7.47-2.01,3,0,5.69.84,8.01,2.49,2.18,1.55,3.69,3.54,4.5,5.92h4.89c-.61-2.32-1.66-4.41-3.12-6.24-1.66-2.05-3.74-3.7-6.19-4.9-2.44-1.19-5.16-1.79-8.09-1.79-3.56,0-6.85.88-9.78,2.61-2.95,1.73-5.32,4.11-7.06,7.04-1.74,2.91-2.61,6.22-2.61,9.81s.87,6.84,2.61,9.75c1.74,2.95,4.11,5.32,7.06,7.06,2.93,1.75,6.22,2.64,9.78,2.64,2.93,0,5.6-.61,7.94-1.8,2.36-1.18,4.36-2.84,5.95-4.92,1.42-1.87,2.44-3.98,3.01-6.3h-4.9c-.77,2.4-2.17,4.38-4.2,5.92ZM833.71,64.56c-2.18,1.65-4.79,2.47-7.8,2.47-2.69,0-5.21-.67-7.47-2.01-2.24-1.33-4.07-3.13-5.41-5.37-1.35-2.24-2.04-4.75-2.04-7.44s.69-5.31,2.04-7.55c1.34-2.24,3.17-4.05,5.41-5.38,2.26-1.32,4.78-2.01,7.47-2.01,3,0,5.69.84,8.01,2.49,2.18,1.55,3.69,3.54,4.5,5.92h4.89c-.61-2.32-1.66-4.41-3.12-6.24-1.66-2.05-3.74-3.7-6.19-4.9-2.44-1.19-5.16-1.79-8.09-1.79-3.56,0-6.85.88-9.78,2.61-2.95,1.73-5.32,4.11-7.06,7.04-1.74,2.91-2.61,6.22-2.61,9.81s.87,6.84,2.61,9.75c1.74,2.95,4.11,5.32,7.06,7.06,2.93,1.75,6.22,2.64,9.78,2.64,2.93,0,5.6-.61,7.94-1.8,2.36-1.18,4.36-2.84,5.95-4.92,1.42-1.87,2.44-3.98,3.01-6.3h-4.9c-.77,2.4-2.17,4.38-4.2,5.92ZM833.71,64.56c-2.18,1.65-4.79,2.47-7.8,2.47-2.69,0-5.21-.67-7.47-2.01-2.24-1.33-4.07-3.13-5.41-5.37-1.35-2.24-2.04-4.75-2.04-7.44s.69-5.31,2.04-7.55c1.34-2.24,3.17-4.05,5.41-5.38,2.26-1.32,4.78-2.01,7.47-2.01,3,0,5.69.84,8.01,2.49,2.18,1.55,3.69,3.54,4.5,5.92h4.89c-.61-2.32-1.66-4.41-3.12-6.24-1.66-2.05-3.74-3.7-6.19-4.9-2.44-1.19-5.16-1.79-8.09-1.79-3.56,0-6.85.88-9.78,2.61-2.95,1.73-5.32,4.11-7.06,7.04-1.74,2.91-2.61,6.22-2.61,9.81s.87,6.84,2.61,9.75c1.74,2.95,4.11,5.32,7.06,7.06,2.93,1.75,6.22,2.64,9.78,2.64,2.93,0,5.6-.61,7.94-1.8,2.36-1.18,4.36-2.84,5.95-4.92,1.42-1.87,2.44-3.98,3.01-6.3h-4.9c-.77,2.4-2.17,4.38-4.2,5.92ZM833.71,64.56c-2.18,1.65-4.79,2.47-7.8,2.47-2.69,0-5.21-.67-7.47-2.01-2.24-1.33-4.07-3.13-5.41-5.37-1.35-2.24-2.04-4.75-2.04-7.44s.69-5.31,2.04-7.55c1.34-2.24,3.17-4.05,5.41-5.38,2.26-1.32,4.78-2.01,7.47-2.01,3,0,5.69.84,8.01,2.49,2.18,1.55,3.69,3.54,4.5,5.92h4.89c-.61-2.32-1.66-4.41-3.12-6.24-1.66-2.05-3.74-3.7-6.19-4.9-2.44-1.19-5.16-1.79-8.09-1.79-3.56,0-6.85.88-9.78,2.61-2.95,1.73-5.32,4.11-7.06,7.04-1.74,2.91-2.61,6.22-2.61,9.81s.87,6.84,2.61,9.75c1.74,2.95,4.11,5.32,7.06,7.06,2.93,1.75,6.22,2.64,9.78,2.64,2.93,0,5.6-.61,7.94-1.8,2.36-1.18,4.36-2.84,5.95-4.92,1.42-1.87,2.44-3.98,3.01-6.3h-4.9c-.77,2.4-2.17,4.38-4.2,5.92ZM833.71,64.56c-2.18,1.65-4.79,2.47-7.8,2.47-2.69,0-5.21-.67-7.47-2.01-2.24-1.33-4.07-3.13-5.41-5.37-1.35-2.24-2.04-4.75-2.04-7.44s.69-5.31,2.04-7.55c1.34-2.24,3.17-4.05,5.41-5.38,2.26-1.32,4.78-2.01,7.47-2.01,3,0,5.69.84,8.01,2.49,2.18,1.55,3.69,3.54,4.5,5.92h4.89c-.61-2.32-1.66-4.41-3.12-6.24-1.66-2.05-3.74-3.7-6.19-4.9-2.44-1.19-5.16-1.79-8.09-1.79-3.56,0-6.85.88-9.78,2.61-2.95,1.73-5.32,4.11-7.06,7.04-1.74,2.91-2.61,6.22-2.61,9.81s.87,6.84,2.61,9.75c1.74,2.95,4.11,5.32,7.06,7.06,2.93,1.75,6.22,2.64,9.78,2.64,2.93,0,5.6-.61,7.94-1.8,2.36-1.18,4.36-2.84,5.95-4.92,1.42-1.87,2.44-3.98,3.01-6.3h-4.9c-.77,2.4-2.17,4.38-4.2,5.92ZM833.71,64.56c-2.18,1.65-4.79,2.47-7.8,2.47-2.69,0-5.21-.67-7.47-2.01-2.24-1.33-4.07-3.13-5.41-5.37-1.35-2.24-2.04-4.75-2.04-7.44s.69-5.31,2.04-7.55c1.34-2.24,3.17-4.05,5.41-5.38,2.26-1.32,4.78-2.01,7.47-2.01,3,0,5.69.84,8.01,2.49,2.18,1.55,3.69,3.54,4.5,5.92h4.89c-.61-2.32-1.66-4.41-3.12-6.24-1.66-2.05-3.74-3.7-6.19-4.9-2.44-1.19-5.16-1.79-8.09-1.79-3.56,0-6.85.88-9.78,2.61-2.95,1.73-5.32,4.11-7.06,7.04-1.74,2.91-2.61,6.22-2.61,9.81s.87,6.84,2.61,9.75c1.74,2.95,4.11,5.32,7.06,7.06,2.93,1.75,6.22,2.64,9.78,2.64,2.93,0,5.6-.61,7.94-1.8,2.36-1.18,4.36-2.84,5.95-4.92,1.42-1.87,2.44-3.98,3.01-6.3h-4.9c-.77,2.4-2.17,4.38-4.2,5.92ZM833.71,64.56c-2.18,1.65-4.79,2.47-7.8,2.47-2.69,0-5.21-.67-7.47-2.01-2.24-1.33-4.07-3.13-5.41-5.37-1.35-2.24-2.04-4.75-2.04-7.44s.69-5.31,2.04-7.55c1.34-2.24,3.17-4.05,5.41-5.38,2.26-1.32,4.78-2.01,7.47-2.01,3,0,5.69.84,8.01,2.49,2.18,1.55,3.69,3.54,4.5,5.92h4.89c-.61-2.32-1.66-4.41-3.12-6.24-1.66-2.05-3.74-3.7-6.19-4.9-2.44-1.19-5.16-1.79-8.09-1.79-3.56,0-6.85.88-9.78,2.61-2.95,1.73-5.32,4.11-7.06,7.04-1.74,2.91-2.61,6.22-2.61,9.81s.87,6.84,2.61,9.75c1.74,2.95,4.11,5.32,7.06,7.06,2.93,1.75,6.22,2.64,9.78,2.64,2.93,0,5.6-.61,7.94-1.8,2.36-1.18,4.36-2.84,5.95-4.92,1.42-1.87,2.44-3.98,3.01-6.3h-4.9c-.77,2.4-2.17,4.38-4.2,5.92ZM857.72,38.53c-1.8-4.21-4.36-8-7.58-11.21-3.21-3.22-6.99-5.76-11.21-7.57-4.21-1.8-8.79-2.73-13.62-2.73s-9.41.93-13.62,2.73c-4.23,1.81-8,4.35-11.22,7.57-3.21,3.21-5.77,7-7.57,11.21-1.8,4.22-2.72,8.79-2.72,13.62s.92,9.42,2.72,13.64c1.8,4.21,4.36,7.98,7.57,11.2,3.22,3.21,6.99,5.77,11.22,7.57,4.21,1.81,8.79,2.72,13.62,2.72s9.41-.91,13.62-2.72c4.23-1.8,8-4.36,11.21-7.57,3.22-3.22,5.78-6.99,7.58-11.2,1.8-4.22,2.72-8.81,2.72-13.64s-.92-9.4-2.72-13.62ZM853.35,63.96c-1.57,3.63-3.77,6.89-6.56,9.68-2.78,2.78-6.04,4.99-9.69,6.56-3.64,1.57-7.62,2.36-11.79,2.36s-8.15-.79-11.79-2.36c-3.64-1.56-6.91-3.78-9.69-6.56-2.79-2.79-4.99-6.04-6.57-9.68-1.56-3.66-2.36-7.62-2.36-11.81s.8-8.15,2.36-11.79c1.58-3.64,3.78-6.9,6.57-9.69,2.78-2.79,6.05-4.99,9.69-6.56s7.6-2.37,11.79-2.37,8.15.8,11.79,2.37c3.65,1.57,6.91,3.77,9.69,6.56,2.79,2.79,4.99,6.05,6.56,9.69,1.58,3.64,2.37,7.62,2.37,11.79s-.79,8.15-2.37,11.81ZM818.44,39.28c2.26-1.32,4.78-2.01,7.47-2.01,3,0,5.69.84,8.01,2.49,2.18,1.55,3.69,3.54,4.5,5.92h4.89c-.61-2.32-1.66-4.41-3.12-6.24-1.66-2.05-3.74-3.7-6.19-4.9-2.44-1.19-5.16-1.79-8.09-1.79-3.56,0-6.85.88-9.78,2.61-2.95,1.73-5.32,4.11-7.06,7.04-1.74,2.91-2.61,6.22-2.61,9.81s.87,6.84,2.61,9.75c1.74,2.95,4.11,5.32,7.06,7.06,2.93,1.75,6.22,2.64,9.78,2.64,2.93,0,5.6-.61,7.94-1.8,2.36-1.18,4.36-2.84,5.95-4.92,1.42-1.87,2.44-3.98,3.01-6.3h-4.9c-.77,2.4-2.17,4.38-4.2,5.92-2.18,1.65-4.79,2.47-7.8,2.47-2.69,0-5.21-.67-7.47-2.01-2.24-1.33-4.07-3.13-5.41-5.37-1.35-2.24-2.04-4.75-2.04-7.44s.69-5.31,2.04-7.55c1.34-2.24,3.17-4.05,5.41-5.38ZM833.71,64.56c-2.18,1.65-4.79,2.47-7.8,2.47-2.69,0-5.21-.67-7.47-2.01-2.24-1.33-4.07-3.13-5.41-5.37-1.35-2.24-2.04-4.75-2.04-7.44s.69-5.31,2.04-7.55c1.34-2.24,3.17-4.05,5.41-5.38,2.26-1.32,4.78-2.01,7.47-2.01,3,0,5.69.84,8.01,2.49,2.18,1.55,3.69,3.54,4.5,5.92h4.89c-.61-2.32-1.66-4.41-3.12-6.24-1.66-2.05-3.74-3.7-6.19-4.9-2.44-1.19-5.16-1.79-8.09-1.79-3.56,0-6.85.88-9.78,2.61-2.95,1.73-5.32,4.11-7.06,7.04-1.74,2.91-2.61,6.22-2.61,9.81s.87,6.84,2.61,9.75c1.74,2.95,4.11,5.32,7.06,7.06,2.93,1.75,6.22,2.64,9.78,2.64,2.93,0,5.6-.61,7.94-1.8,2.36-1.18,4.36-2.84,5.95-4.92,1.42-1.87,2.44-3.98,3.01-6.3h-4.9c-.77,2.4-2.17,4.38-4.2,5.92ZM833.71,64.56c-2.18,1.65-4.79,2.47-7.8,2.47-2.69,0-5.21-.67-7.47-2.01-2.24-1.33-4.07-3.13-5.41-5.37-1.35-2.24-2.04-4.75-2.04-7.44s.69-5.31,2.04-7.55c1.34-2.24,3.17-4.05,5.41-5.38,2.26-1.32,4.78-2.01,7.47-2.01,3,0,5.69.84,8.01,2.49,2.18,1.55,3.69,3.54,4.5,5.92h4.89c-.61-2.32-1.66-4.41-3.12-6.24-1.66-2.05-3.74-3.7-6.19-4.9-2.44-1.19-5.16-1.79-8.09-1.79-3.56,0-6.85.88-9.78,2.61-2.95,1.73-5.32,4.11-7.06,7.04-1.74,2.91-2.61,6.22-2.61,9.81s.87,6.84,2.61,9.75c1.74,2.95,4.11,5.32,7.06,7.06,2.93,1.75,6.22,2.64,9.78,2.64,2.93,0,5.6-.61,7.94-1.8,2.36-1.18,4.36-2.84,5.95-4.92,1.42-1.87,2.44-3.98,3.01-6.3h-4.9c-.77,2.4-2.17,4.38-4.2,5.92ZM833.71,64.56c-2.18,1.65-4.79,2.47-7.8,2.47-2.69,0-5.21-.67-7.47-2.01-2.24-1.33-4.07-3.13-5.41-5.37-1.35-2.24-2.04-4.75-2.04-7.44s.69-5.31,2.04-7.55c1.34-2.24,3.17-4.05,5.41-5.38,2.26-1.32,4.78-2.01,7.47-2.01,3,0,5.69.84,8.01,2.49,2.18,1.55,3.69,3.54,4.5,5.92h4.89c-.61-2.32-1.66-4.41-3.12-6.24-1.66-2.05-3.74-3.7-6.19-4.9-2.44-1.19-5.16-1.79-8.09-1.79-3.56,0-6.85.88-9.78,2.61-2.95,1.73-5.32,4.11-7.06,7.04-1.74,2.91-2.61,6.22-2.61,9.81s.87,6.84,2.61,9.75c1.74,2.95,4.11,5.32,7.06,7.06,2.93,1.75,6.22,2.64,9.78,2.64,2.93,0,5.6-.61,7.94-1.8,2.36-1.18,4.36-2.84,5.95-4.92,1.42-1.87,2.44-3.98,3.01-6.3h-4.9c-.77,2.4-2.17,4.38-4.2,5.92ZM833.71,64.56c-2.18,1.65-4.79,2.47-7.8,2.47-2.69,0-5.21-.67-7.47-2.01-2.24-1.33-4.07-3.13-5.41-5.37-1.35-2.24-2.04-4.75-2.04-7.44s.69-5.31,2.04-7.55c1.34-2.24,3.17-4.05,5.41-5.38,2.26-1.32,4.78-2.01,7.47-2.01,3,0,5.69.84,8.01,2.49,2.18,1.55,3.69,3.54,4.5,5.92h4.89c-.61-2.32-1.66-4.41-3.12-6.24-1.66-2.05-3.74-3.7-6.19-4.9-2.44-1.19-5.16-1.79-8.09-1.79-3.56,0-6.85.88-9.78,2.61-2.95,1.73-5.32,4.11-7.06,7.04-1.74,2.91-2.61,6.22-2.61,9.81s.87,6.84,2.61,9.75c1.74,2.95,4.11,5.32,7.06,7.06,2.93,1.75,6.22,2.64,9.78,2.64,2.93,0,5.6-.61,7.94-1.8,2.36-1.18,4.36-2.84,5.95-4.92,1.42-1.87,2.44-3.98,3.01-6.3h-4.9c-.77,2.4-2.17,4.38-4.2,5.92ZM833.71,64.56c-2.18,1.65-4.79,2.47-7.8,2.47-2.69,0-5.21-.67-7.47-2.01-2.24-1.33-4.07-3.13-5.41-5.37-1.35-2.24-2.04-4.75-2.04-7.44s.69-5.31,2.04-7.55c1.34-2.24,3.17-4.05,5.41-5.38,2.26-1.32,4.78-2.01,7.47-2.01,3,0,5.69.84,8.01,2.49,2.18,1.55,3.69,3.54,4.5,5.92h4.89c-.61-2.32-1.66-4.41-3.12-6.24-1.66-2.05-3.74-3.7-6.19-4.9-2.44-1.19-5.16-1.79-8.09-1.79-3.56,0-6.85.88-9.78,2.61-2.95,1.73-5.32,4.11-7.06,7.04-1.74,2.91-2.61,6.22-2.61,9.81s.87,6.84,2.61,9.75c1.74,2.95,4.11,5.32,7.06,7.06,2.93,1.75,6.22,2.64,9.78,2.64,2.93,0,5.6-.61,7.94-1.8,2.36-1.18,4.36-2.84,5.95-4.92,1.42-1.87,2.44-3.98,3.01-6.3h-4.9c-.77,2.4-2.17,4.38-4.2,5.92ZM833.71,64.56c-2.18,1.65-4.79,2.47-7.8,2.47-2.69,0-5.21-.67-7.47-2.01-2.24-1.33-4.07-3.13-5.41-5.37-1.35-2.24-2.04-4.75-2.04-7.44s.69-5.31,2.04-7.55c1.34-2.24,3.17-4.05,5.41-5.38,2.26-1.32,4.78-2.01,7.47-2.01,3,0,5.69.84,8.01,2.49,2.18,1.55,3.69,3.54,4.5,5.92h4.89c-.61-2.32-1.66-4.41-3.12-6.24-1.66-2.05-3.74-3.7-6.19-4.9-2.44-1.19-5.16-1.79-8.09-1.79-3.56,0-6.85.88-9.78,2.61-2.95,1.73-5.32,4.11-7.06,7.04-1.74,2.91-2.61,6.22-2.61,9.81s.87,6.84,2.61,9.75c1.74,2.95,4.11,5.32,7.06,7.06,2.93,1.75,6.22,2.64,9.78,2.64,2.93,0,5.6-.61,7.94-1.8,2.36-1.18,4.36-2.84,5.95-4.92,1.42-1.87,2.44-3.98,3.01-6.3h-4.9c-.77,2.4-2.17,4.38-4.2,5.92ZM833.71,64.56c-2.18,1.65-4.79,2.47-7.8,2.47-2.69,0-5.21-.67-7.47-2.01-2.24-1.33-4.07-3.13-5.41-5.37-1.35-2.24-2.04-4.75-2.04-7.44s.69-5.31,2.04-7.55c1.34-2.24,3.17-4.05,5.41-5.38,2.26-1.32,4.78-2.01,7.47-2.01,3,0,5.69.84,8.01,2.49,2.18,1.55,3.69,3.54,4.5,5.92h4.89c-.61-2.32-1.66-4.41-3.12-6.24-1.66-2.05-3.74-3.7-6.19-4.9-2.44-1.19-5.16-1.79-8.09-1.79-3.56,0-6.85.88-9.78,2.61-2.95,1.73-5.32,4.11-7.06,7.04-1.74,2.91-2.61,6.22-2.61,9.81s.87,6.84,2.61,9.75c1.74,2.95,4.11,5.32,7.06,7.06,2.93,1.75,6.22,2.64,9.78,2.64,2.93,0,5.6-.61,7.94-1.8,2.36-1.18,4.36-2.84,5.95-4.92,1.42-1.87,2.44-3.98,3.01-6.3h-4.9c-.77,2.4-2.17,4.38-4.2,5.92ZM833.71,64.56c-2.18,1.65-4.79,2.47-7.8,2.47-2.69,0-5.21-.67-7.47-2.01-2.24-1.33-4.07-3.13-5.41-5.37-1.35-2.24-2.04-4.75-2.04-7.44s.69-5.31,2.04-7.55c1.34-2.24,3.17-4.05,5.41-5.38,2.26-1.32,4.78-2.01,7.47-2.01,3,0,5.69.84,8.01,2.49,2.18,1.55,3.69,3.54,4.5,5.92h4.89c-.61-2.32-1.66-4.41-3.12-6.24-1.66-2.05-3.74-3.7-6.19-4.9-2.44-1.19-5.16-1.79-8.09-1.79-3.56,0-6.85.88-9.78,2.61-2.95,1.73-5.32,4.11-7.06,7.04-1.74,2.91-2.61,6.22-2.61,9.81s.87,6.84,2.61,9.75c1.74,2.95,4.11,5.32,7.06,7.06,2.93,1.75,6.22,2.64,9.78,2.64,2.93,0,5.6-.61,7.94-1.8,2.36-1.18,4.36-2.84,5.95-4.92,1.42-1.87,2.44-3.98,3.01-6.3h-4.9c-.77,2.4-2.17,4.38-4.2,5.92ZM833.71,64.56c-2.18,1.65-4.79,2.47-7.8,2.47-2.69,0-5.21-.67-7.47-2.01-2.24-1.33-4.07-3.13-5.41-5.37-1.35-2.24-2.04-4.75-2.04-7.44s.69-5.31,2.04-7.55c1.34-2.24,3.17-4.05,5.41-5.38,2.26-1.32,4.78-2.01,7.47-2.01,3,0,5.69.84,8.01,2.49,2.18,1.55,3.69,3.54,4.5,5.92h4.89c-.61-2.32-1.66-4.41-3.12-6.24-1.66-2.05-3.74-3.7-6.19-4.9-2.44-1.19-5.16-1.79-8.09-1.79-3.56,0-6.85.88-9.78,2.61-2.95,1.73-5.32,4.11-7.06,7.04-1.74,2.91-2.61,6.22-2.61,9.81s.87,6.84,2.61,9.75c1.74,2.95,4.11,5.32,7.06,7.06,2.93,1.75,6.22,2.64,9.78,2.64,2.93,0,5.6-.61,7.94-1.8,2.36-1.18,4.36-2.84,5.95-4.92,1.42-1.87,2.44-3.98,3.01-6.3h-4.9c-.77,2.4-2.17,4.38-4.2,5.92ZM833.71,64.56c-2.18,1.65-4.79,2.47-7.8,2.47-2.69,0-5.21-.67-7.47-2.01-2.24-1.33-4.07-3.13-5.41-5.37-1.35-2.24-2.04-4.75-2.04-7.44s.69-5.31,2.04-7.55c1.34-2.24,3.17-4.05,5.41-5.38,2.26-1.32,4.78-2.01,7.47-2.01,3,0,5.69.84,8.01,2.49,2.18,1.55,3.69,3.54,4.5,5.92h4.89c-.61-2.32-1.66-4.41-3.12-6.24-1.66-2.05-3.74-3.7-6.19-4.9-2.44-1.19-5.16-1.79-8.09-1.79-3.56,0-6.85.88-9.78,2.61-2.95,1.73-5.32,4.11-7.06,7.04-1.74,2.91-2.61,6.22-2.61,9.81s.87,6.84,2.61,9.75c1.74,2.95,4.11,5.32,7.06,7.06,2.93,1.75,6.22,2.64,9.78,2.64,2.93,0,5.6-.61,7.94-1.8,2.36-1.18,4.36-2.84,5.95-4.92,1.42-1.87,2.44-3.98,3.01-6.3h-4.9c-.77,2.4-2.17,4.38-4.2,5.92ZM833.71,64.56c-2.18,1.65-4.79,2.47-7.8,2.47-2.69,0-5.21-.67-7.47-2.01-2.24-1.33-4.07-3.13-5.41-5.37-1.35-2.24-2.04-4.75-2.04-7.44s.69-5.31,2.04-7.55c1.34-2.24,3.17-4.05,5.41-5.38,2.26-1.32,4.78-2.01,7.47-2.01,3,0,5.69.84,8.01,2.49,2.18,1.55,3.69,3.54,4.5,5.92h4.89c-.61-2.32-1.66-4.41-3.12-6.24-1.66-2.05-3.74-3.7-6.19-4.9-2.44-1.19-5.16-1.79-8.09-1.79-3.56,0-6.85.88-9.78,2.61-2.95,1.73-5.32,4.11-7.06,7.04-1.74,2.91-2.61,6.22-2.61,9.81s.87,6.84,2.61,9.75c1.74,2.95,4.11,5.32,7.06,7.06,2.93,1.75,6.22,2.64,9.78,2.64,2.93,0,5.6-.61,7.94-1.8,2.36-1.18,4.36-2.84,5.95-4.92,1.42-1.87,2.44-3.98,3.01-6.3h-4.9c-.77,2.4-2.17,4.38-4.2,5.92ZM833.71,64.56c-2.18,1.65-4.79,2.47-7.8,2.47-2.69,0-5.21-.67-7.47-2.01-2.24-1.33-4.07-3.13-5.41-5.37-1.35-2.24-2.04-4.75-2.04-7.44s.69-5.31,2.04-7.55c1.34-2.24,3.17-4.05,5.41-5.38,2.26-1.32,4.78-2.01,7.47-2.01,3,0,5.69.84,8.01,2.49,2.18,1.55,3.69,3.54,4.5,5.92h4.89c-.61-2.32-1.66-4.41-3.12-6.24-1.66-2.05-3.74-3.7-6.19-4.9-2.44-1.19-5.16-1.79-8.09-1.79-3.56,0-6.85.88-9.78,2.61-2.95,1.73-5.32,4.11-7.06,7.04-1.74,2.91-2.61,6.22-2.61,9.81s.87,6.84,2.61,9.75c1.74,2.95,4.11,5.32,7.06,7.06,2.93,1.75,6.22,2.64,9.78,2.64,2.93,0,5.6-.61,7.94-1.8,2.36-1.18,4.36-2.84,5.95-4.92,1.42-1.87,2.44-3.98,3.01-6.3h-4.9c-.77,2.4-2.17,4.38-4.2,5.92ZM833.71,64.56c-2.18,1.65-4.79,2.47-7.8,2.47-2.69,0-5.21-.67-7.47-2.01-2.24-1.33-4.07-3.13-5.41-5.37-1.35-2.24-2.04-4.75-2.04-7.44s.69-5.31,2.04-7.55c1.34-2.24,3.17-4.05,5.41-5.38,2.26-1.32,4.78-2.01,7.47-2.01,3,0,5.69.84,8.01,2.49,2.18,1.55,3.69,3.54,4.5,5.92h4.89c-.61-2.32-1.66-4.41-3.12-6.24-1.66-2.05-3.74-3.7-6.19-4.9-2.44-1.19-5.16-1.79-8.09-1.79-3.56,0-6.85.88-9.78,2.61-2.95,1.73-5.32,4.11-7.06,7.04-1.74,2.91-2.61,6.22-2.61,9.81s.87,6.84,2.61,9.75c1.74,2.95,4.11,5.32,7.06,7.06,2.93,1.75,6.22,2.64,9.78,2.64,2.93,0,5.6-.61,7.94-1.8,2.36-1.18,4.36-2.84,5.95-4.92,1.42-1.87,2.44-3.98,3.01-6.3h-4.9c-.77,2.4-2.17,4.38-4.2,5.92ZM833.71,64.56c-2.18,1.65-4.79,2.47-7.8,2.47-2.69,0-5.21-.67-7.47-2.01-2.24-1.33-4.07-3.13-5.41-5.37-1.35-2.24-2.04-4.75-2.04-7.44s.69-5.31,2.04-7.55c1.34-2.24,3.17-4.05,5.41-5.38,2.26-1.32,4.78-2.01,7.47-2.01,3,0,5.69.84,8.01,2.49,2.18,1.55,3.69,3.54,4.5,5.92h4.89c-.61-2.32-1.66-4.41-3.12-6.24-1.66-2.05-3.74-3.7-6.19-4.9-2.44-1.19-5.16-1.79-8.09-1.79-3.56,0-6.85.88-9.78,2.61-2.95,1.73-5.32,4.11-7.06,7.04-1.74,2.91-2.61,6.22-2.61,9.81s.87,6.84,2.61,9.75c1.74,2.95,4.11,5.32,7.06,7.06,2.93,1.75,6.22,2.64,9.78,2.64,2.93,0,5.6-.61,7.94-1.8,2.36-1.18,4.36-2.84,5.95-4.92,1.42-1.87,2.44-3.98,3.01-6.3h-4.9c-.77,2.4-2.17,4.38-4.2,5.92ZM833.71,64.56c-2.18,1.65-4.79,2.47-7.8,2.47-2.69,0-5.21-.67-7.47-2.01-2.24-1.33-4.07-3.13-5.41-5.37-1.35-2.24-2.04-4.75-2.04-7.44s.69-5.31,2.04-7.55c1.34-2.24,3.17-4.05,5.41-5.38,2.26-1.32,4.78-2.01,7.47-2.01,3,0,5.69.84,8.01,2.49,2.18,1.55,3.69,3.54,4.5,5.92h4.89c-.61-2.32-1.66-4.41-3.12-6.24-1.66-2.05-3.74-3.7-6.19-4.9-2.44-1.19-5.16-1.79-8.09-1.79-3.56,0-6.85.88-9.78,2.61-2.95,1.73-5.32,4.11-7.06,7.04-1.74,2.91-2.61,6.22-2.61,9.81s.87,6.84,2.61,9.75c1.74,2.95,4.11,5.32,7.06,7.06,2.93,1.75,6.22,2.64,9.78,2.64,2.93,0,5.6-.61,7.94-1.8,2.36-1.18,4.36-2.84,5.95-4.92,1.42-1.87,2.44-3.98,3.01-6.3h-4.9c-.77,2.4-2.17,4.38-4.2,5.92ZM833.71,64.56c-2.18,1.65-4.79,2.47-7.8,2.47-2.69,0-5.21-.67-7.47-2.01-2.24-1.33-4.07-3.13-5.41-5.37-1.35-2.24-2.04-4.75-2.04-7.44s.69-5.31,2.04-7.55c1.34-2.24,3.17-4.05,5.41-5.38,2.26-1.32,4.78-2.01,7.47-2.01,3,0,5.69.84,8.01,2.49,2.18,1.55,3.69,3.54,4.5,5.92h4.89c-.61-2.32-1.66-4.41-3.12-6.24-1.66-2.05-3.74-3.7-6.19-4.9-2.44-1.19-5.16-1.79-8.09-1.79-3.56,0-6.85.88-9.78,2.61-2.95,1.73-5.32,4.11-7.06,7.04-1.74,2.91-2.61,6.22-2.61,9.81s.87,6.84,2.61,9.75c1.74,2.95,4.11,5.32,7.06,7.06,2.93,1.75,6.22,2.64,9.78,2.64,2.93,0,5.6-.61,7.94-1.8,2.36-1.18,4.36-2.84,5.95-4.92,1.42-1.87,2.44-3.98,3.01-6.3h-4.9c-.77,2.4-2.17,4.38-4.2,5.92ZM833.71,64.56c-2.18,1.65-4.79,2.47-7.8,2.47-2.69,0-5.21-.67-7.47-2.01-2.24-1.33-4.07-3.13-5.41-5.37-1.35-2.24-2.04-4.75-2.04-7.44s.69-5.31,2.04-7.55c1.34-2.24,3.17-4.05,5.41-5.38,2.26-1.32,4.78-2.01,7.47-2.01,3,0,5.69.84,8.01,2.49,2.18,1.55,3.69,3.54,4.5,5.92h4.89c-.61-2.32-1.66-4.41-3.12-6.24-1.66-2.05-3.74-3.7-6.19-4.9-2.44-1.19-5.16-1.79-8.09-1.79-3.56,0-6.85.88-9.78,2.61-2.95,1.73-5.32,4.11-7.06,7.04-1.74,2.91-2.61,6.22-2.61,9.81s.87,6.84,2.61,9.75c1.74,2.95,4.11,5.32,7.06,7.06,2.93,1.75,6.22,2.64,9.78,2.64,2.93,0,5.6-.61,7.94-1.8,2.36-1.18,4.36-2.84,5.95-4.92,1.42-1.87,2.44-3.98,3.01-6.3h-4.9c-.77,2.4-2.17,4.38-4.2,5.92ZM833.71,64.56c-2.18,1.65-4.79,2.47-7.8,2.47-2.69,0-5.21-.67-7.47-2.01-2.24-1.33-4.07-3.13-5.41-5.37-1.35-2.24-2.04-4.75-2.04-7.44s.69-5.31,2.04-7.55c1.34-2.24,3.17-4.05,5.41-5.38,2.26-1.32,4.78-2.01,7.47-2.01,3,0,5.69.84,8.01,2.49,2.18,1.55,3.69,3.54,4.5,5.92h4.89c-.61-2.32-1.66-4.41-3.12-6.24-1.66-2.05-3.74-3.7-6.19-4.9-2.44-1.19-5.16-1.79-8.09-1.79-3.56,0-6.85.88-9.78,2.61-2.95,1.73-5.32,4.11-7.06,7.04-1.74,2.91-2.61,6.22-2.61,9.81s.87,6.84,2.61,9.75c1.74,2.95,4.11,5.32,7.06,7.06,2.93,1.75,6.22,2.64,9.78,2.64,2.93,0,5.6-.61,7.94-1.8,2.36-1.18,4.36-2.84,5.95-4.92,1.42-1.87,2.44-3.98,3.01-6.3h-4.9c-.77,2.4-2.17,4.38-4.2,5.92ZM833.71,64.56c-2.18,1.65-4.79,2.47-7.8,2.47-2.69,0-5.21-.67-7.47-2.01-2.24-1.33-4.07-3.13-5.41-5.37-1.35-2.24-2.04-4.75-2.04-7.44s.69-5.31,2.04-7.55c1.34-2.24,3.17-4.05,5.41-5.38,2.26-1.32,4.78-2.01,7.47-2.01,3,0,5.69.84,8.01,2.49,2.18,1.55,3.69,3.54,4.5,5.92h4.89c-.61-2.32-1.66-4.41-3.12-6.24-1.66-2.05-3.74-3.7-6.19-4.9-2.44-1.19-5.16-1.79-8.09-1.79-3.56,0-6.85.88-9.78,2.61-2.95,1.73-5.32,4.11-7.06,7.04-1.74,2.91-2.61,6.22-2.61,9.81s.87,6.84,2.61,9.75c1.74,2.95,4.11,5.32,7.06,7.06,2.93,1.75,6.22,2.64,9.78,2.64,2.93,0,5.6-.61,7.94-1.8,2.36-1.18,4.36-2.84,5.95-4.92,1.42-1.87,2.44-3.98,3.01-6.3h-4.9c-.77,2.4-2.17,4.38-4.2,5.92ZM833.71,64.56c-2.18,1.65-4.79,2.47-7.8,2.47-2.69,0-5.21-.67-7.47-2.01-2.24-1.33-4.07-3.13-5.41-5.37-1.35-2.24-2.04-4.75-2.04-7.44s.69-5.31,2.04-7.55c1.34-2.24,3.17-4.05,5.41-5.38,2.26-1.32,4.78-2.01,7.47-2.01,3,0,5.69.84,8.01,2.49,2.18,1.55,3.69,3.54,4.5,5.92h4.89c-.61-2.32-1.66-4.41-3.12-6.24-1.66-2.05-3.74-3.7-6.19-4.9-2.44-1.19-5.16-1.79-8.09-1.79-3.56,0-6.85.88-9.78,2.61-2.95,1.73-5.32,4.11-7.06,7.04-1.74,2.91-2.61,6.22-2.61,9.81s.87,6.84,2.61,9.75c1.74,2.95,4.11,5.32,7.06,7.06,2.93,1.75,6.22,2.64,9.78,2.64,2.93,0,5.6-.61,7.94-1.8,2.36-1.18,4.36-2.84,5.95-4.92,1.42-1.87,2.44-3.98,3.01-6.3h-4.9c-.77,2.4-2.17,4.38-4.2,5.92Z"/>
      <path d="M480.36,0l-15.98,60.82-123.65,72.2L268.52,9.37l2.46-9.37h-69.79l-2.73,10.41,96.27,164.87-25.84,98.39,65.28,17.15,25.85-98.39,164.87-96.27L550.15,0h-69.79Z"/>
      <path d="M303.97,319.74v67.5h135v101.25h67.5v-101.25h135v-67.5h-337.5Z"/>
      <path d="M224.2,187.8l-23.11-63.43L0,197.63v71.84l33.93-12.36,84.29,231.38h69.38l2.17-.79-92.42-253.69,126.85-46.21Z"/>
      <path d="M928.85,193.24v-68.05l-50.43,6.39-96.49,124.5-55.51-43.03,26.31-3.33-7.76-61.23-144.45,18.3,8.48,66.96,38.27-4.84,113.17,87.72-87.72,113.17-38.27,4.85,6.82,53.84h63.16l91.92-118.58,55.51,43.03-26.31,3.34,7.76,61.22,95.54-12.1v-69.99l-111.01-86.05,87.72-113.17,23.29-2.95Z"/>
    </g>
  </g>
</svg>