<?xml version="1.0" encoding="UTF-8"?>
<svg id="Layer_2" xmlns="http://www.w3.org/2000/svg" version="1.1" viewBox="0 0 625 171.1">
  <!-- Generator: Adobe Illustrator 29.1.0, SVG Export Plug-In . SVG Version: 2.1.0 Build 142)  -->
  <defs>
    <style>
      .st0 {
        fill: #ff4800;
      }
    </style>
  </defs>
  <path class="st0" d="M143.6,76.8v22.2l-13.7-7.2c-9-4.7-14.7-14.1-14.7-24.2h0c0-9.6,7.8-17.4,17.4-17.4h0V14.7l-20-1.5v19.2h-16V11.7h-20v20.7h-16V13.2l-20,1.5v35.5h0c9.6,0,17.4,7.8,17.4,17.4h0c0,10.2-5.6,19.5-14.7,24.2l-13.7,7.2v-22.2l-20,3v64c0,10,8.1,18.1,18.1,18.1h39.3v-29c0-10.8,8.8-19.5,19.5-19.5h0c10.8,0,19.5,8.8,19.5,19.5v29h39.3c10,0,18.1-8.1,18.1-18.1v-64l-20-3Z"/>
  <g>
    <path class="st0" d="M228.9,25.8c-4.9-3.1-13.8-3.9-18.9-1.4-3.3,1.5-5.5,4.3-7.2,6.9h-.6V7.8h-10.2v63.2h9.9v-7.4h.8c1.7,2.6,3.9,5.4,7.3,6.9,5.2,2.5,13.9,1.7,18.9-1.5,14.1-8.4,14.1-34.9,0-43.1ZM227.5,55.8c-2.7,7.8-12.7,10.6-19.3,6.1-4.5-3.3-6.1-8.8-6.1-14.6-.3-8.5,4.3-16.7,13.4-16.4,12.7-.4,15.8,15.4,12,24.9Z"/>
    <path class="st0" d="M281.3,26c-3.6-2-7.9-3.1-12.8-3.1-14.3-.4-24.6,10.4-24.2,24.6-.3,14.1,10,24.8,24.2,24.4,4.9,0,9.1-1,12.8-3.1,15.4-8.2,15.3-34.7,0-42.9ZM281,55.8c-2.8,8.1-13.4,10.7-20.1,6-4.4-3.2-6.1-8.8-6.1-14.3-.2-8.4,4.5-17,13.8-16.7,12.8-.5,16.4,15.3,12.4,24.9Z"/>
    <path class="st0" d="M328.1,68.7c2.3-1.6,4.2-3.9,5.7-7v9.3h9.8V23.5h-10.2v28.1c.3,7-5.2,12-12.1,11.8-6.7,0-11-4.1-10.9-10.9,0,0,0-29,0-29h-10.2v30.1c0,3.9.7,7.2,2.2,9.8,4.6,8.8,18,10.3,25.8,5.2Z"/>
    <path class="st0" d="M369.3,32.5c7.7-3.7,17.5,0,17.1,9.5,0,0,0,29,0,29h10.2v-30.1c0-3.9-.7-7.2-2.2-9.9-6.3-11.4-26.3-10.7-31.4,1.7v-9.1h-9.8v47.4h10.2v-28.1c0-4.6,1.9-8.4,5.9-10.4Z"/>
    <path class="st0" d="M433.3,70.4c3.3-1.5,5.7-4.2,7.3-6.9h.8v7.4h9.9V7.8h-10.2v23.5h-.6c-3-5.2-8.1-8.6-14.9-8.3-8.2,0-15.1,3.9-18.9,11.2-3.8,6.9-3.8,19.4,0,26.3,4.4,9.7,17.2,14,26.6,9.9ZM415.9,55.8c-3.9-9.5-.7-25.3,12-24.9,9.2-.3,13.7,7.9,13.4,16.4,0,5.8-1.6,11.3-6.1,14.6-6.6,4.5-16.6,1.8-19.3-6.1Z"/>
    <rect class="st0" x="461.1" y="7.8" width="10.2" height="63.2"/>
    <path class="st0" d="M518.5,28.5c-7.5-6.6-20.3-7.2-28.6-2.4-11.5,6.2-14.1,23.5-8.3,34.4,7.5,15.3,37.2,15.9,43.2-.8l-9.6-2.1c-2.8,7.4-13.3,8.1-19.4,5-4.6-2.4-6.7-7-6.9-12.4h36.7c.4-8.2-1.1-16.5-7.1-21.6ZM490.5,37.6c3.1-6.8,13.2-8.9,19.3-5.1,3.6,2.3,5.4,6.3,5.7,10.6h-26.6c.2-2,.7-3.8,1.5-5.5Z"/>
    <path class="st0" d="M558.6,44.4c-3.5-.9-12.1-1.9-14.5-4.1-2.9-2.2-2.4-6.4,1-8.3,1.9-1.2,4.2-1.7,7-1.7,5.2-.1,8.6,2.1,10.4,6.3l9.1-1.8c-2.5-8.5-10.8-12-19.6-11.8-6.8,0-13.4,1.8-17.5,6.7-3.8,4.4-3.4,12,.9,15.8,2.3,2.2,5.9,3.8,10.8,4.8,3.4.9,11.9,1.8,14.2,4,2.8,2.4,2.3,6.3-1.1,8.3-5.8,3.4-17.4,2.7-19.2-5.4l-9.6,1.8c3.1,15.9,30.8,16.6,39.6,5.9,3.8-4.4,3.7-12-.8-15.8-2.3-2.1-5.9-3.7-10.7-4.7Z"/>
    <path class="st0" d="M616.4,49c-2.3-2.1-5.9-3.7-10.7-4.7-3.5-.8-12.1-1.9-14.5-4.1-2.9-2.2-2.4-6.4,1-8.3,1.9-1.2,4.2-1.7,7-1.7,5.2-.1,8.6,2.1,10.4,6.3l9.1-1.8c-2.5-8.5-10.8-12-19.6-11.8-6.8,0-13.4,1.8-17.5,6.7-3.8,4.4-3.4,12,.9,15.8,2.3,2.2,5.9,3.8,10.8,4.8,3.4.9,11.9,1.8,14.2,4,2.8,2.4,2.3,6.3-1.1,8.3-5.8,3.4-17.4,2.7-19.2-5.4l-9.6,1.8c3.1,15.9,30.8,16.6,39.6,5.9,3.8-4.4,3.7-12-.8-15.8Z"/>
    <path class="st0" d="M228.9,102.9c-4.9-3.1-13.8-3.9-18.9-1.4-3.3,1.5-5.5,4.3-7.2,6.9h-.8v-7.7h-9.9v65.2h10.2v-25.2h.6c1.7,2.6,3.9,5.4,7.3,6.9,5.2,2.5,13.9,1.7,18.9-1.5,14.1-8.4,14.1-34.9,0-43.1ZM227.5,132.9c-2.7,7.8-12.7,10.6-19.3,6.1-4.5-3.3-6.1-8.8-6.1-14.6-.3-8.5,4.3-16.7,13.4-16.4,12.7-.4,15.8,15.4,12,24.9Z"/>
    <path class="st0" d="M280.9,103.2c-11-5.8-29.5-4.1-34.7,8.7l9.6,2.3c2.1-4.4,6.9-6.6,12-6.5,3.7,0,6.9.9,8.8,3.8.8,1.3,1.1,2.9,1.1,4.8-.2,2.9-2.7,3-5.6,3.5-9.7,1.3-27.7,1-27.4,15-.4,16.3,25.7,19.3,32.8,6.9h.5v6.5h9.9v-31.5c0-6.1-2.2-10.5-7-13.4ZM277.7,131c0,6.8-6.6,10.9-13.3,10.7-3.3,0-6.5-.7-8.5-3.1-3-3.9-.7-8.8,3.9-10,5.3-2,12.7-1,17.8-3.6v6.1Z"/>
    <rect class="st0" x="297.6" y="84.8" width="10.2" height="63.2"/>
    <path class="st0" d="M350.8,103.2c-11-5.8-29.5-4.1-34.7,8.7l9.6,2.3c2.1-4.4,6.9-6.6,12-6.5,3.7,0,6.9.9,8.8,3.8.8,1.3,1.1,2.9,1.1,4.8-.2,2.9-2.7,3-5.6,3.5-9.7,1.3-27.7,1-27.4,15-.4,16.3,25.7,19.3,32.8,6.9h.5v6.5h9.9v-31.5c0-6.1-2.2-10.5-7-13.4ZM347.6,131c0,6.8-6.6,10.9-13.3,10.7-3.3,0-6.5-.7-8.5-3.1-3-3.9-.7-8.8,3.9-10,5.3-2,12.7-1,17.8-3.6v6.1Z"/>
    <path class="st0" d="M399.9,136.1c-3.7,5.7-13.2,6.6-18.4,2.8-6.6-4.8-7.4-15.4-4.6-22.7,3.5-10.8,21.1-11.4,24.3,0l9.7-2.1c-3.8-14-23.2-17.3-34.4-10.9-15.3,8.2-15.4,34.7,0,42.9,11.4,6.4,30.9,2.9,34.6-11.3l-9.6-2.1c-.3,1.3-.8,2.4-1.5,3.5Z"/>
    <path class="st0" d="M455.8,105.5c-7.5-6.6-20.3-7.2-28.6-2.4-11.5,6.2-14.1,23.5-8.3,34.4,7.5,15.3,37.2,15.9,43.2-.8l-9.6-2.1c-2.8,7.4-13.3,8.1-19.4,5-4.6-2.4-6.7-7-6.9-12.4h36.7c.4-8.2-1.1-16.5-7.1-21.6ZM427.7,114.7c3.1-6.8,13.2-8.9,19.3-5.1,3.6,2.3,5.4,6.3,5.7,10.6h-26.6c.2-2,.7-3.8,1.5-5.5Z"/>
  </g>
</svg>