<?xml version="1.0" encoding="UTF-8"?>
<svg id="Layer_2" xmlns="http://www.w3.org/2000/svg" version="1.1" viewBox="0 0 625 171.1">
  <!-- Generator: Adobe Illustrator 29.1.0, SVG Export Plug-In . SVG Version: 2.1.0 Build 142)  -->
  <defs>
    <style>
      .st0 {
        fill: #ff4800;
      }
    </style>
  </defs>
  <path class="st0" d="M149.5,76.3v24.7l-15.3-8c-10-5.3-16.3-15.7-16.3-27h0c0-10.7,8.7-19.3,19.3-19.3h0V7l-22.3-1.7v21.4h-17.9V3.7h-22.3v23h-17.9V5.4l-22.3,1.7v39.6h0c10.7,0,19.3,8.7,19.3,19.3h0c0,11.3-6.3,21.7-16.3,27l-15.3,8v-24.7l-22.3,3.3v70.1c0,11.8,9.6,21.4,21.4,21.4h42.6v-32.5c0-12,9.7-21.7,21.7-21.7h0c12,0,21.7,9.7,21.7,21.7v32.5h42.6c11.8,0,21.4-9.6,21.4-21.4v-70.1l-22.3-3.3h.3Z"/>
  <g>
    <path class="st0" d="M278.9,45.7c-5.6-2.6-12.6-3.7-20.7-3.7h-40v87.9h19.2v-29.7h20.6c8.3,0,15.2-1.3,20.9-3.7,23-9.4,23-41,.1-50.6h0ZM274.2,79.5c-4,6.1-10.7,7.7-18.7,7.7h-18v-32c7.3.3,23.7-1.1,29.9,2,9,3.3,11.4,14.6,6.9,22.2h0Z"/>
    <path class="st0" d="M355,67.9c-16.3-8.4-48.6-6.7-56.2,12.4l17.3,2.9c3-6,9.9-8.4,16.9-8.3,7-.1,14.2,2.6,14,10.1,0,1.6-.6,2.9-2,3.6-5,2.1-10.9,1.7-17.9,2.7-7.3.6-14.9,1.7-21.2,4.9-2.9,1.4-5.1,3.4-6.9,5.9-3.9,5.3-3.3,15.3,1,20.2,2.3,3,5.6,5.1,9.6,6.7,12,4.3,30,3.3,37.5-8.1h.7v9.1h17.9v-44c0-8.3-3.9-14.2-10.7-18ZM347.1,106.3c0,13.3-22.3,17.7-30.7,9.7-2.4-2.4-2.3-7.4.1-9.7,1.3-1.3,3-2.3,5.3-3,7.6-2.6,17.9-1.4,25.3-4.7v7.7Z"/>
    <rect class="st0" x="375.3" y="42" width="18.7" height="87.9"/>
    <path class="st0" d="M457.7,67.9c-16.3-8.4-48.6-6.7-56.2,12.4l17.3,2.9c3-6,9.9-8.4,16.9-8.3,7-.1,14.2,2.6,14,10.1,0,1.6-.6,2.9-2,3.6-5,2.1-10.9,1.7-17.9,2.7-7.3.6-14.9,1.7-21.2,4.9-2.9,1.4-5.1,3.4-6.9,5.9-3.9,5.3-3.3,15.3,1,20.2,2.3,3,5.6,5.1,9.6,6.7,12,4.3,30,3.3,37.5-8.1h.7v9.1h17.9v-44c0-8.3-3.9-14.2-10.7-18h0ZM449.9,106.3c0,13.3-22.3,17.7-30.7,9.7-2.4-2.4-2.3-7.4.1-9.7,1.3-1.3,3-2.3,5.3-3,7.6-2.6,17.9-1.4,25.3-4.7v7.7h0Z"/>
    <path class="st0" d="M528.2,111.9c-5.3,7.9-18.6,8.7-25.9,4-9.3-6-10.6-20.3-6.4-29.7,1.4-3.3,3.6-5.9,6.4-7.7,8.9-5.7,24.9-3.1,27.9,8.4l17.4-3c-6.1-21.9-37.6-24.7-55-16.4-11.7,5.7-18.2,16.7-18,29.9,0,13.2,6.3,24,18,29.7,17.6,8.6,49.3,5.3,55.3-16.9l-17.4-3c-.4,1.7-1.3,3.4-2.3,4.9h0Z"/>
    <path class="st0" d="M624.9,96.5c.4-21.9-16.4-33.5-36.7-33.3-13.9,0-26.3,5-33.2,16.3-6.1,9.9-6.1,26.2,0,35.9,3.1,5.1,7.6,9,13.4,11.9,16.4,7.7,47.6,6,55.2-13.6l-17.2-2.9c-4.4,9.7-19.3,10.1-27.7,6.4-6.3-3-9.6-8.7-9.7-15.9h56v-4.9h-.1ZM577.7,77.6c5.3-3.1,15.6-3.3,20.9,0,4.9,2.7,7.6,7.7,8.1,13.3h-37.7c.6-5.7,3.6-10.4,8.7-13.3h0Z"/>
  </g>
  <path class="st0" d="M223.3-130v11.2l-6.9-3.6c-4.6-2.4-7.4-7.1-7.4-12.3h0c0-4.9,3.9-8.8,8.8-8.8h0v-18l-10.1-.8v9.7h-8.1v-10.5h-10.1v10.5h-8.1v-9.7l-10.1.8v18h0c4.9,0,8.8,3.9,8.8,8.8h0c0,5.2-2.9,9.9-7.4,12.3l-6.9,3.6v-11.2l-10.1,1.5v32.4c0,5.1,4.1,9.1,9.1,9.1h19.9v-14.7c0-5.5,4.4-9.9,9.9-9.9h0c5.5,0,9.9,4.4,9.9,9.9v14.7h19.9c5.1,0,9.1-4.1,9.1-9.1v-32.4l-10.1-1.5Z"/>
</svg>