<?xml version="1.0" encoding="UTF-8"?>
<svg id="Layer_2" data-name="Layer 2" xmlns="http://www.w3.org/2000/svg" viewBox="0 0 928.85 488.49">
  <g id="Layer_2-2" data-name="Layer 2">
    <g>
      <path d="M853.35,40.36c-1.57-3.64-3.77-6.9-6.56-9.69-2.78-2.79-6.04-4.99-9.69-6.56-3.64-1.57-7.62-2.37-11.79-2.37s-8.15.8-11.79,2.37c-3.64,1.57-6.91,3.77-9.69,6.56-2.79,2.79-4.99,6.05-6.57,9.69-1.56,3.64-2.36,7.62-2.36,11.79s.8,8.15,2.36,11.81c1.58,3.64,3.78,6.89,6.57,9.68,2.78,2.78,6.05,5,9.69,6.56,3.64,1.57,7.6,2.36,11.79,2.36s8.15-.79,11.79-2.36c3.65-1.57,6.91-3.78,9.69-6.56,2.79-2.79,4.99-6.05,6.56-9.68,1.58-3.66,2.37-7.62,2.37-11.81s-.79-8.15-2.37-11.79ZM813.03,59.65c1.34,2.24,3.17,4.04,5.41,5.37,2.26,1.34,4.78,2.01,7.47,2.01,3.01,0,5.62-.82,7.8-2.47,2.03-1.54,3.43-3.52,4.2-5.92h4.9c-.57,2.32-1.59,4.43-3.01,6.3-1.59,2.08-3.59,3.74-5.95,4.92-2.34,1.19-5.01,1.8-7.94,1.8-3.56,0-6.85-.89-9.78-2.64-2.95-1.74-5.32-4.11-7.06-7.06-1.74-2.91-2.61-6.21-2.61-9.75s.87-6.9,2.61-9.81c1.74-2.93,4.11-5.31,7.06-7.04,2.93-1.73,6.22-2.61,9.78-2.61,2.93,0,5.65.6,8.09,1.79,2.45,1.2,4.53,2.85,6.19,4.9,1.46,1.83,2.51,3.92,3.12,6.24h-4.89c-.81-2.38-2.32-4.37-4.5-5.92-2.32-1.65-5.01-2.49-8.01-2.49-2.69,0-5.21.69-7.47,2.01-2.24,1.33-4.07,3.14-5.41,5.38-1.35,2.24-2.04,4.78-2.04,7.55s.69,5.2,2.04,7.44Z"/>
      <path d="M270.98,0l-2.46,9.37,72.21,123.65,123.65-72.2L480.36,0h-209.38ZM550.15,0l-25.26,96.16-164.87,96.27-25.85,98.39-65.28-17.15,25.84-98.39L198.46,10.41l2.73-10.41H0v197.63l201.09-73.26,23.11,63.43-126.85,46.21,92.42,253.69-2.17.79h251.37v-101.25h-135v-67.5h337.5v67.5h-135v101.25h134.8l-6.82-53.84,38.27-4.85,87.72-113.17-113.17-87.72-38.27,4.84-8.48-66.96,144.45-18.3,7.76,61.23-26.31,3.33,55.51,43.03,96.49-124.5,50.43-6.39V0h-378.7ZM857.72,65.79c-1.8,4.21-4.36,7.98-7.58,11.2-3.21,3.21-6.98,5.77-11.21,7.57-4.21,1.81-8.79,2.72-13.62,2.72s-9.41-.91-13.62-2.72c-4.23-1.8-8-4.36-11.22-7.57-3.21-3.22-5.77-6.99-7.57-11.2-1.8-4.22-2.72-8.81-2.72-13.64s.92-9.4,2.72-13.62c1.8-4.21,4.36-8,7.57-11.21,3.22-3.22,6.99-5.76,11.22-7.57,4.21-1.8,8.79-2.73,13.62-2.73s9.41.93,13.62,2.73c4.22,1.81,8,4.35,11.21,7.57,3.22,3.21,5.78,7,7.58,11.21,1.8,4.22,2.72,8.81,2.72,13.62s-.92,9.42-2.72,13.64ZM0,269.47v219.02h118.22l-84.29-231.38L0,269.47ZM905.56,196.19l-87.72,113.17,111.01,86.05v-202.17l-23.29,2.95ZM833.31,477.5l-7.76-61.22,26.31-3.34-55.51-43.03-91.92,118.58h224.42v-23.09l-95.54,12.1Z"/>
    </g>
  </g>
</svg>