<?xml version="1.0" encoding="UTF-8"?>
<svg id="Layer_2" xmlns="http://www.w3.org/2000/svg" version="1.1" viewBox="0 0 111 146">
  <!-- Generator: Adobe Illustrator 29.1.0, SVG Export Plug-In . SVG Version: 2.1.0 Build 142)  -->
  <defs>
    <style>
      .st0 {
        fill: #fff;
      }
    </style>
  </defs>
  <g>
    <path d="M15.9,6.2h79.3c6.6,0,12,5.4,12,12v109.6c0,6.6-5.4,12-12,12H15.9c-6.6,0-12-5.4-12-12V18.2c0-6.6,5.4-12,12-12Z"/>
    <path class="st0" d="M95.2,9.7c4.7,0,8.5,3.8,8.5,8.5v109.6c0,4.7-3.8,8.5-8.5,8.5H15.9c-4.7,0-8.5-3.8-8.5-8.5V18.2c0-4.7,3.8-8.5,8.5-8.5h79.3M95.2,2.7H15.9C7.3,2.7.4,9.7.4,18.2v109.6c0,8.5,6.9,15.5,15.5,15.5h79.3c8.5,0,15.5-6.9,15.5-15.5V18.2c0-8.5-6.9-15.5-15.5-15.5h0Z"/>
  </g>
  <path class="st0" d="M86,27.1l.2,58.3-1.8-1.6-4.2-3.8-4.2,3.8-8.1,7.3-8.1-7.3-4.2-3.8-4.2,3.8-8.1,7.3-8.1-7.3-4.2-3.8-4.2,3.8-1.8,1.7-.2-58.3,61.2-.2M92.2,20.9l-73.7.2.2,78.6,12.3-11.1,12.3,11,12.3-11.1,12.3,11,12.3-11.1,12.3,11-.2-78.6h0Z"/>
</svg>