<?xml version="1.0" encoding="UTF-8"?>
<svg id="Layer_2" xmlns="http://www.w3.org/2000/svg" version="1.1" viewBox="0 0 437 117.1">
  <!-- Generator: Adobe Illustrator 29.1.0, SVG Export Plug-In . SVG Version: 2.1.0 Build 142)  -->
  <defs>
    <style>
      .st0 {
        fill: #fff;
      }
    </style>
  </defs>
  <path class="st0" d="M98.8,51.8v15.2l-9.4-4.9c-6.1-3.2-10-9.6-10-16.6h0c0-6.6,5.4-11.8,11.8-11.8h0V9.2l-13.7-1.1v13.2h-11V7.2h-13.7v14.1h-11v-13.1l-13.7,1.1v24.3h0c6.6,0,11.8,5.4,11.8,11.8h0c0,6.9-3.9,13.3-10,16.6l-9.4,4.9v-15.2l-13.7,2v43c0,7.3,5.9,13.1,13.1,13.1h26.2v-19.9c0-7.4,6-13.3,13.3-13.3h0c7.4,0,13.3,6,13.3,13.3v19.9h26.2c7.3,0,13.1-5.9,13.1-13.1v-43l-13.7-2h.2Z"/>
  <g>
    <path class="st0" d="M178.2,33c-3.4-1.6-7.7-2.3-12.7-2.3h-24.6v53.9h11.8v-18.2h12.6c5.1,0,9.3-.8,12.8-2.3,14.1-5.8,14.1-25.2,0-31.1h0ZM175.3,53.7c-2.5,3.8-6.6,4.7-11.5,4.7h-11.1v-19.6c4.5.2,14.6-.7,18.3,1.2,5.5,2,7,8.9,4.2,13.6h0Z"/>
    <path class="st0" d="M224.8,46.6c-10-5.2-29.8-4.1-34.5,7.6l10.6,1.8c1.8-3.7,6.1-5.2,10.4-5.1,4.3,0,8.7,1.6,8.6,6.2,0,1-.4,1.8-1.2,2.2-3.1,1.3-6.7,1.1-11,1.7-4.5.4-9.1,1.1-13,3-1.8.9-3.2,2.1-4.2,3.6-2.4,3.2-2,9.4.6,12.4,1.4,1.8,3.4,3.2,5.9,4.1,7.4,2.6,18.4,2,23-5h.4v5.6h11v-27c0-5.1-2.4-8.7-6.6-11.1ZM220,70.2c0,8.2-13.7,10.9-18.9,6-1.5-1.5-1.4-4.6,0-6,.8-.8,1.8-1.4,3.2-1.8,4.6-1.6,11-.9,15.5-2.9v4.7Z"/>
    <rect class="st0" x="237.3" y="30.7" width="11.5" height="53.9"/>
    <path class="st0" d="M287.9,46.6c-10-5.2-29.8-4.1-34.5,7.6l10.6,1.8c1.8-3.7,6.1-5.2,10.4-5.1,4.3,0,8.7,1.6,8.6,6.2,0,1-.4,1.8-1.2,2.2-3.1,1.3-6.7,1.1-11,1.7-4.5.4-9.1,1.1-13,3-1.8.9-3.2,2.1-4.2,3.6-2.4,3.2-2,9.4.6,12.4,1.4,1.8,3.4,3.2,5.9,4.1,7.4,2.6,18.4,2,23-5h.4v5.6h11v-27c0-5.1-2.4-8.7-6.6-11.1h0ZM283.1,70.2c0,8.2-13.7,10.9-18.9,6-1.5-1.5-1.4-4.6,0-6,.8-.8,1.8-1.4,3.2-1.8,4.6-1.6,11-.9,15.5-2.9v4.7h0Z"/>
    <path class="st0" d="M331.1,73.6c-3.2,4.8-11.4,5.4-15.9,2.5-5.7-3.7-6.5-12.5-3.9-18.2.9-2,2.2-3.6,3.9-4.7,5.4-3.5,15.3-1.9,17.1,5.2l10.7-1.8c-3.8-13.4-23.1-15.2-33.8-10.1-7.2,3.5-11.1,10.3-11.1,18.3,0,8.1,3.9,14.7,11.1,18.2,10.8,5.3,30.3,3.2,33.9-10.4l-10.7-1.8c-.3,1.1-.8,2.1-1.4,3h0Z"/>
    <path class="st0" d="M390.4,64.1c.3-13.4-10.1-20.5-22.5-20.4-8.5,0-16.1,3.1-20.3,10-3.8,6.1-3.8,16.1,0,22,1.9,3.2,4.6,5.5,8.2,7.3,10.1,4.7,29.2,3.7,33.9-8.3l-10.5-1.8c-2.7,6-11.8,6.2-17,3.9-3.9-1.8-5.9-5.4-6-9.7h34.4v-3h0ZM361.5,52.5c3.2-1.9,9.6-2,12.8,0,3,1.7,4.6,4.7,5,8.2h-23.2c.4-3.5,2.2-6.4,5.4-8.2h0Z"/>
  </g>
</svg>