<?xml version="1.0" encoding="UTF-8"?>
<svg id="Layer_2" xmlns="http://www.w3.org/2000/svg" version="1.1" viewBox="0 0 612.7 228.2">
  <!-- Generator: Adobe Illustrator 29.1.0, SVG Export Plug-In . SVG Version: 2.1.0 Build 142)  -->
  <defs>
    <style>
      .st0 {
        fill: #fff;
      }
    </style>
  </defs>
  <path class="st0" d="M185.9,106.9v26.7s-16.5-8.6-16.5-8.6c-10.8-5.7-17.8-17-17.8-29.3h0c0-11.6,9.3-20.8,20.8-20.8h0V31.9s-24.2-1.8-24.2-1.8v23s-19.2,0-19.2,0v-24.9s-24.2,0-24.2,0v24.9s-19.2,0-19.2,0v-23s-24.2,1.8-24.2,1.8v42.8h0c11.6,0,20.8,9.3,20.8,20.8h0c0,12.3-6.8,23.6-17.8,29.3l-16.5,8.6v-26.7s-24.2,3.7-24.2,3.7v77.2c0,12,9.7,21.8,21.8,21.8h47.4s0-34.9,0-34.9c0-13,10.6-23.6,23.6-23.6h0c13,0,23.6,10.6,23.6,23.6v34.9s47.4,0,47.4,0c12,0,21.8-9.7,21.8-21.8v-77.2s-24.2-3.7-24.2-3.7l.3.2h.2Z"/>
  <g>
    <path class="st0" d="M284.6,20.3c-4.2-2.7-11.5-3.3-15.9-1.1-2.8,1.2-4.5,3.5-6,5.8h-.6V5.2h-8.5v53h8.3v-6.2h.8c1.4,2.2,3.3,4.4,6.1,5.8,4.4,2.2,11.8,1.4,15.8-1.2,11.9-7,11.9-29.3,0-36.2h0ZM283.4,45.3c-2.3,6.7-10.6,8.9-16.2,5.1-3.8-2.7-5.1-7.4-5.1-12.2-.2-7.1,3.5-14,11.3-13.8,10.6-.3,13.2,13,10.1,20.9,0,0-.1,0-.1,0Z"/>
    <path class="st0" d="M328.5,20.4c-3.1-1.7-6.7-2.6-10.6-2.6-12-.2-20.6,8.7-20.4,20.6-.2,11.9,8.4,20.7,20.4,20.5,4.1,0,7.7-.9,10.6-2.6,12.9-6.9,12.9-29.2,0-36.1ZM328.3,45.3c-2.4,6.9-11.2,9-17,5.1-3.7-2.7-5.1-7.4-5.1-12-.1-7,3.8-14.2,11.5-14,10.6-.3,13.8,12.9,10.4,20.9h.1Z"/>
    <path class="st0" d="M367.7,56.1c1.9-1.2,3.5-3.3,4.7-5.9v7.8h8.1V18.1h-8.5v23.5c.2,5.9-4.3,10.1-10.1,9.9-5.5,0-9.3-3.4-9.2-9.2v-24.3h-8.5v25.3c0,3.3.7,6,1.9,8.3,3.8,7.4,15,8.7,21.6,4.3h-.1.2Z"/>
    <path class="st0" d="M402.4,25.8c6.5-3.1,14.6,0,14.4,8v24.3h8.5v-25.3c0-3.3-.7-6.1-1.9-8.3-5.3-9.5-22.2-9-26.3,1.4v-7.7h-8.3v39.8h8.5v-23.5c0-4,1.7-7,5-8.8h.1-.1Z"/>
    <path class="st0" d="M455.9,57.6c2.8-1.2,4.9-3.5,6.1-5.8h.8v6.2h8.3V5.1h-8.5v19.7h-.6c-2.6-4.3-6.8-7.2-12.4-7-6.9,0-12.8,3.3-15.8,9.4-3.2,5.9-3.2,16.3,0,22.2,3.7,8.1,14.4,11.8,22.3,8.3h-.2ZM441.5,45.3c-3.3-7.9-.7-21.3,10.1-20.9,7.8-.2,11.4,6.7,11.3,13.8,0,4.9-1.2,9.4-5.1,12.2-5.5,3.8-13.9,1.6-16.2-5.1,0,0-.1,0-.1,0Z"/>
    <rect class="st0" x="479.2" y="5.1" width="8.5" height="53"/>
    <path class="st0" d="M527.5,22.4c-6.2-5.5-17.1-6-24.1-2-9.7,5.2-11.9,19.7-7,28.8,6.2,12.9,31.2,13.3,36.3-.8l-8-1.8c-2.3,6.2-11.2,6.9-16.3,4.2-3.8-2-5.5-5.9-5.9-10.4h30.8c.2-6.9-.9-13.8-6-18.2h.1ZM504,30c2.6-5.8,11.1-7.5,16.2-4.2,3.1,1.9,4.4,5.3,4.9,8.9h-22.3c.1-1.7.6-3.2,1.2-4.5h0Z"/>
    <path class="st0" d="M561.1,35.8c-2.9-.8-10.2-1.7-12.1-3.4-2.4-1.9-2-5.3.8-6.9,1.6-1,3.5-1.4,5.9-1.4,4.3,0,7.2,1.8,8.7,5.2l7.7-1.6c-2.2-7.1-9-10.1-16.4-9.9-5.8,0-11.2,1.6-14.6,5.5-3.2,3.7-2.9,10.1.8,13.2,1.9,1.8,5,3.2,9,4,2.8.8,9.9,1.6,12,3.4,2.3,2,1.9,5.3-.9,7-4.9,2.9-14.6,2.3-16.2-4.4l-8,1.6c2.6,13.3,25.8,13.9,33.2,5,3.2-3.7,3.1-10.1-.7-13.2-1.9-1.8-5-3.1-8.9-4h-.1Z"/>
    <path class="st0" d="M609.6,39.7c-1.9-1.8-5-3.1-8.9-4-2.9-.8-10.2-1.7-12.1-3.4-2.4-1.9-2-5.3.8-6.9,1.6-1,3.5-1.4,5.9-1.4,4.3,0,7.2,1.8,8.7,5.2l7.7-1.6c-2.2-7.1-9-10.1-16.4-9.9-5.8,0-11.2,1.6-14.6,5.5-3.2,3.7-2.9,10.1.8,13.2,1.9,1.8,5,3.2,9,4,2.8.8,9.9,1.6,12,3.4,2.3,2,1.9,5.3-.9,7-4.9,2.9-14.6,2.3-16.2-4.4l-8,1.6c2.6,13.3,25.8,13.9,33.2,5,3.2-3.7,3.1-10.1-.7-13.2h-.1Z"/>
    <path class="st0" d="M284.6,84.9c-4.2-2.7-11.5-3.3-15.9-1.1-2.8,1.2-4.5,3.5-6,5.8h-.8v-6.5h-8.3v54.7h8.5v-21.1h.6c1.4,2.2,3.3,4.4,6.1,5.8,4.4,2.2,11.8,1.4,15.8-1.2,11.9-7,11.9-29.3,0-36.2h0ZM283.4,110c-2.3,6.7-10.6,8.9-16.2,5.1-3.8-2.7-5.1-7.4-5.1-12.2-.2-7.1,3.5-14,11.3-13.8,10.6-.3,13.2,13,10.1,20.9h-.1Z"/>
    <path class="st0" d="M328.3,85.1c-9.2-5-24.8-3.4-29.2,7.2l8,1.9c1.8-3.7,5.8-5.4,10.1-5.4s5.9.8,7.4,3.2c.7,1,1,2.4.9,4-.1,2.4-2.3,2.6-4.7,2.9-8.1,1-23.2.9-23.1,12.6-.3,13.8,21.5,16.2,27.5,5.9h.3v5.4h8.3v-26.5c0-5.1-1.9-8.9-5.9-11.2h.2,0ZM325.6,108.4c0,5.8-5.5,9.2-11.1,8.9-2.8,0-5.4-.6-7.1-2.6-2.4-3.3-.6-7.4,3.3-8.4,4.4-1.7,10.6-.8,14.9-3.1v5.1h0Z"/>
    <rect class="st0" x="342.2" y="69.7" width="8.5" height="53"/>
    <path class="st0" d="M386.7,85.1c-9.2-5-24.8-3.4-29.2,7.2l8,1.9c1.8-3.7,5.8-5.4,10.1-5.4s5.9.8,7.4,3.2c.7,1,1,2.4.9,4-.1,2.4-2.3,2.6-4.7,2.9-8.1,1-23.2.9-23.1,12.6-.3,13.8,21.5,16.2,27.5,5.9h.3v5.4h8.3v-26.5c0-5.1-1.9-8.9-5.9-11.2h.2,0ZM384.1,108.4c0,5.8-5.5,9.2-11.1,8.9-2.8,0-5.4-.6-7.1-2.6-2.4-3.3-.6-7.4,3.3-8.4,4.4-1.7,10.6-.8,15-3.1v5.1h-.1Z"/>
    <path class="st0" d="M428,112.7c-3.1,4.9-11.1,5.4-15.4,2.4-5.5-4.1-6.2-13-3.8-19,2.9-9,17.6-9.5,20.4,0l8.1-1.8c-3.2-11.8-19.5-14.5-28.8-9.2-12.9,6.9-12.9,29.2,0,36.1,9.5,5.3,26,2.4,29.1-9.4l-8.1-1.8c-.2,1-.7,2-1.2,2.9v-.2h-.2Z"/>
    <path class="st0" d="M474.8,87c-6.2-5.5-17.1-6-24.1-2-9.7,5.2-11.9,19.7-7,28.8,6.2,12.9,31.2,13.3,36.3-.8l-8-1.8c-2.3,6.2-11.2,6.8-16.3,4.2-3.8-2-5.5-5.9-5.9-10.4h30.8c.2-6.9-.9-13.8-6-18.2h.1ZM451.3,94.7c2.6-5.8,11.1-7.5,16.2-4.2,3.1,1.9,4.4,5.3,4.9,8.9h-22.3c.1-1.7.6-3.2,1.2-4.5h0Z"/>
  </g>
  <g>
    <path class="st0" d="M266.7,176.1c-2.1,0-3.9-.5-5.5-1.4-1.6-1-2.8-2.3-3.8-4-.9-1.7-1.4-3.7-1.4-5.9s.5-4.3,1.4-6c.9-1.7,2.2-3.1,3.8-4,1.6-1,3.4-1.4,5.5-1.4s2.3.2,3.4.5c1,.3,1.9.8,2.7,1.3.8.5,1.4,1.2,2,1.8.5.7.9,1.3,1.2,2l-2.8.8c-.1-.4-.4-.8-.7-1.3-.3-.5-.8-.9-1.3-1.3-.5-.4-1.2-.7-1.9-1-.7-.3-1.6-.4-2.5-.4-1.6,0-3,.4-4.2,1.2-1.1.8-2,1.9-2.6,3.3-.6,1.4-.9,2.9-.9,4.5s.3,3.1.9,4.5c.6,1.4,1.5,2.4,2.6,3.2,1.1.8,2.5,1.2,4.2,1.2s1.8-.1,2.5-.4c.7-.3,1.4-.6,2-1,.6-.4,1-.9,1.3-1.3.3-.5.6-.9.7-1.4l2.8.8c-.2.7-.6,1.4-1.1,2-.5.7-1.2,1.3-2,1.8-.8.6-1.7,1-2.8,1.3-1,.3-2.2.5-3.4.5Z"/>
    <path class="st0" d="M280.1,175.7v-22.1h2.8v3.4h.2c.5-1.1,1.3-2,2.5-2.7,1.2-.7,2.5-1,4-1s.5,0,.8,0c.3,0,.5,0,.7,0v2.7c-.1,0-.3,0-.6,0-.3,0-.7,0-1.1,0-1.2,0-2.3.2-3.3.7s-1.7,1.2-2.3,2-.8,1.8-.8,2.9v14.1h-2.9Z"/>
    <path class="st0" d="M303.2,176.2c-2.3,0-4.2-.5-5.9-1.5s-2.9-2.3-3.8-4c-.9-1.7-1.3-3.7-1.3-5.9s.4-4.2,1.3-5.9c.9-1.7,2.1-3.1,3.7-4.1,1.6-1,3.4-1.5,5.5-1.5s2.6.2,3.8.7,2.3,1.1,3.3,2c1,.9,1.7,2,2.3,3.4.6,1.4.8,3,.8,4.9v1.2h-18.9v-2.3h17.3l-1.3.9c0-1.6-.3-3-.9-4.2-.6-1.2-1.4-2.2-2.5-3-1.1-.7-2.4-1.1-3.9-1.1s-2.9.4-4,1.1c-1.1.7-2,1.7-2.7,2.9-.6,1.2-1,2.5-1,4v1.4c0,1.7.3,3.2,1,4.5s1.6,2.3,2.8,3c1.2.7,2.6,1.1,4.3,1.1s2.1-.2,3-.5c.9-.3,1.6-.8,2.2-1.3.6-.5,1-1.1,1.3-1.8l2.8.8c-.4.9-1,1.8-1.8,2.6-.8.8-1.9,1.4-3.1,1.9-1.3.5-2.7.7-4.3.7Z"/>
    <path class="st0" d="M323.9,176.2c-1.5,0-2.8-.3-4-.8s-2.2-1.3-2.9-2.3c-.7-1-1.1-2.2-1.1-3.6s.2-2,.7-2.8,1.1-1.4,1.9-1.8,1.8-.9,2.9-1.1c1.1-.3,2.4-.5,3.7-.7,1.3-.2,2.5-.3,3.4-.4.9-.1,1.6-.3,2.1-.5s.7-.7.7-1.2v-.5c0-1-.2-1.8-.7-2.5-.4-.7-1.1-1.3-1.9-1.6-.8-.4-1.9-.6-3.1-.6s-2.1.2-3,.5c-.9.3-1.6.7-2.1,1.3-.6.5-1,1.1-1.3,1.7l-2.8-.9c.5-1.2,1.3-2.2,2.2-2.9,1-.7,2-1.3,3.3-1.6,1.2-.3,2.4-.5,3.7-.5s1.9.1,2.9.3c1,.2,1.9.6,2.8,1.2s1.6,1.3,2.1,2.2c.5,1,.8,2.2.8,3.6v15h-2.9v-3.5h-.2c-.3.7-.9,1.3-1.5,1.9-.7.6-1.5,1.1-2.5,1.5-1,.4-2.1.6-3.4.6ZM324.3,173.8c1.5,0,2.7-.3,3.8-.9s1.9-1.4,2.5-2.4.9-2.1.9-3.3v-3.1c-.2.2-.6.3-1.1.5-.5.1-1,.3-1.7.4-.6.1-1.3.2-1.9.3-.6,0-1.2.1-1.7.2-1.3.1-2.5.4-3.4.7s-1.7.8-2.2,1.3-.7,1.3-.7,2.2.2,1.6.7,2.2,1.1,1.1,1.9,1.4,1.7.5,2.8.5Z"/>
    <path class="st0" d="M348.1,153.7v2.3h-11.5v-2.3h11.5ZM340.2,148.4h2.9v22.1c0,1.1.3,1.9.8,2.4.5.5,1.3.7,2.4.6.2,0,.4,0,.7,0,.3,0,.6,0,.8-.1l.6,2.3c-.3,0-.7.2-1,.2s-.8,0-1.2,0c-1.9.1-3.4-.3-4.5-1.3-1.1-1-1.6-2.3-1.6-4v-22.3Z"/>
    <path class="st0" d="M352.8,149.6c-.6,0-1.1-.2-1.5-.6-.4-.4-.6-.8-.6-1.3s.2-1,.6-1.3c.4-.4.9-.5,1.5-.5s1.1.2,1.5.5c.4.4.6.8.6,1.3s-.2,1-.6,1.3c-.4.4-.9.6-1.5.6ZM351.3,175.7v-22.1h2.9v22.1h-2.9Z"/>
    <path class="st0" d="M366.8,175.7l-9.2-22.1h3.2l5.6,13.9c.5,1.2.9,2.5,1.3,3.7.4,1.2.8,2.4,1.2,3.6h-1c.4-1.2.8-2.4,1.2-3.6.4-1.2.8-2.5,1.3-3.7l5.6-13.9h3.2l-9.2,22.1h-3.1Z"/>
    <path class="st0" d="M391.4,176.2c-2.3,0-4.2-.5-5.9-1.5-1.6-1-2.9-2.3-3.8-4-.9-1.7-1.3-3.7-1.3-5.9s.4-4.2,1.3-5.9c.9-1.7,2.1-3.1,3.7-4.1,1.6-1,3.4-1.5,5.5-1.5s2.6.2,3.8.7,2.3,1.1,3.3,2c1,.9,1.7,2,2.3,3.4.6,1.4.8,3,.8,4.9v1.2h-18.9v-2.3h17.3l-1.3.9c0-1.6-.3-3-.9-4.2-.6-1.2-1.4-2.2-2.5-3-1.1-.7-2.4-1.1-3.9-1.1s-2.9.4-4,1.1c-1.1.7-2,1.7-2.7,2.9-.6,1.2-1,2.5-1,4v1.4c0,1.7.3,3.2,1,4.5s1.6,2.3,2.8,3c1.2.7,2.6,1.1,4.3,1.1s2.1-.2,3-.5c.9-.3,1.6-.8,2.2-1.3s1-1.1,1.3-1.8l2.8.8c-.4.9-1,1.8-1.8,2.6-.8.8-1.9,1.4-3.1,1.9-1.3.5-2.7.7-4.3.7Z"/>
    <path class="st0" d="M421.1,175.7l-7.2-22.1h3.1l3.7,11.9c.4,1.2.7,2.5,1.1,3.8.4,1.4.8,2.9,1.2,4.6h-.5c.4-1.6.8-3.2,1.2-4.6s.8-2.7,1.2-3.9l3.9-11.9h3.2l3.9,11.9c.4,1.2.8,2.5,1.1,3.9.4,1.4.8,2.9,1.2,4.6h-.5c.4-1.7.8-3.2,1.2-4.6.4-1.4.8-2.7,1.1-3.9l3.7-11.9h3.1l-7.2,22.1h-3l-4.1-12.3c-.3-.9-.5-1.7-.8-2.6-.3-.9-.5-1.8-.8-2.7-.2-.9-.5-1.8-.8-2.8h.7c-.2.9-.5,1.8-.8,2.8-.3.9-.5,1.8-.8,2.7-.3.9-.5,1.7-.8,2.6l-4.1,12.3h-3Z"/>
    <path class="st0" d="M458.6,176.2c-2.1,0-3.9-.5-5.5-1.5-1.6-1-2.8-2.3-3.8-4s-1.4-3.7-1.4-5.9.5-4.3,1.4-6,2.2-3.1,3.8-4c1.6-1,3.4-1.5,5.5-1.5s3.9.5,5.5,1.5c1.6,1,2.9,2.3,3.8,4,.9,1.7,1.4,3.7,1.4,6s-.5,4.2-1.3,5.9c-.9,1.7-2.1,3.1-3.8,4s-3.5,1.5-5.6,1.5ZM458.6,173.8c1.7,0,3.1-.4,4.2-1.2,1.1-.8,2-1.9,2.6-3.3.6-1.4.9-2.8.9-4.5s-.3-3.1-.9-4.5c-.6-1.4-1.5-2.5-2.6-3.3-1.2-.8-2.5-1.2-4.2-1.2s-3,.4-4.2,1.2c-1.1.8-2,1.9-2.6,3.3s-.9,2.9-.9,4.5.3,3.1.9,4.5c.6,1.4,1.5,2.4,2.6,3.3,1.1.8,2.5,1.2,4.2,1.2Z"/>
    <path class="st0" d="M473.5,175.7v-22.1h2.8v3.4h.2c.5-1.1,1.3-2,2.5-2.7,1.2-.7,2.5-1,4-1s.5,0,.8,0c.3,0,.5,0,.7,0v2.7c-.1,0-.3,0-.6,0-.3,0-.7,0-1.1,0-1.2,0-2.3.2-3.3.7-1,.5-1.7,1.2-2.3,2s-.8,1.8-.8,2.9v14.1h-2.9Z"/>
    <path class="st0" d="M488,175.7v-29.4h2.9v29.4h-2.9ZM490.7,167.5v-3.5h.6l11.1-10.3h3.7l-11.1,10.3h-.3s-4,3.5-4,3.5ZM503,175.7l-9.7-11.2,2.1-1.9,11.3,13.1h-3.8Z"/>
  </g>
  <g>
    <path class="st0" d="M265.9,219.7c-2,0-3.7-.4-5.2-1.1-1.5-.7-2.6-1.7-3.4-2.9s-1.2-2.5-1.2-4,.2-2.2.7-3.1c.5-.9,1.2-1.7,2.2-2.5s2.1-1.7,3.4-2.5l4.7-3.2c.6-.4,1.1-.8,1.7-1.3.5-.5.9-1,1.2-1.5.3-.6.5-1.2.5-1.9,0-1.1-.4-2-1.2-2.7-.8-.7-1.8-1-3.1-1s-1.7.2-2.4.5c-.7.3-1.3.8-1.6,1.4-.4.6-.6,1.3-.6,2.1s.2,1.4.5,2.1c.3.7.8,1.3,1.5,2.1.6.7,1.4,1.6,2.3,2.6l14.7,16.6h-3.5l-12.8-14.3c-1.1-1.2-2.1-2.3-2.9-3.2s-1.5-1.9-1.9-2.8-.7-1.9-.7-2.9.3-2.4.9-3.3c.6-1,1.5-1.7,2.7-2.3,1.1-.6,2.4-.8,3.9-.8s2.8.3,3.9.8c1.1.5,1.9,1.3,2.6,2.2.6.9.9,2,.9,3.1s-.2,1.7-.5,2.4c-.3.8-.8,1.5-1.5,2.1-.7.7-1.4,1.3-2.4,1.9l-5.9,4c-1.5,1-2.6,2-3.2,2.8s-.9,1.8-.9,2.8.3,2,.9,2.8c.6.8,1.4,1.5,2.4,2,1,.5,2.2.7,3.4.7s2.7-.2,3.9-.7c1.2-.5,2.3-1.2,3.2-2.1.9-.9,1.7-2,2.3-3.2.6-1.3.9-2.7,1-4.2h2.8c0,1.6-.3,2.9-.7,4-.4,1.1-.9,2-1.4,2.8s-1,1.3-1.5,1.8l-.6.7c-1,1-2.2,1.8-3.8,2.4-1.6.6-3.2.9-4.9.9Z"/>
    <path class="st0" d="M299.9,219.8c-1.5,0-2.8-.3-4-.8s-2.2-1.3-2.9-2.3c-.7-1-1.1-2.2-1.1-3.6s.2-2,.7-2.8c.4-.7,1.1-1.4,1.9-1.8.8-.5,1.8-.9,2.9-1.1,1.1-.3,2.4-.5,3.7-.7,1.3-.2,2.5-.3,3.4-.4.9-.1,1.6-.3,2.1-.5s.7-.7.7-1.2v-.5c0-1-.2-1.8-.7-2.5-.4-.7-1.1-1.3-1.9-1.6-.8-.4-1.9-.6-3.1-.6s-2.1.2-3,.5c-.9.3-1.6.7-2.1,1.3-.6.5-1,1.1-1.3,1.7l-2.8-.9c.5-1.2,1.3-2.2,2.2-2.9,1-.7,2-1.3,3.3-1.6,1.2-.3,2.4-.5,3.7-.5s1.9.1,2.9.3c1,.2,1.9.6,2.8,1.2s1.6,1.3,2.1,2.2c.5,1,.8,2.2.8,3.6v15h-2.9v-3.5h-.2c-.3.7-.9,1.3-1.5,1.9-.7.6-1.5,1.1-2.5,1.5-1,.4-2.1.6-3.4.6ZM300.3,217.4c1.5,0,2.7-.3,3.8-.9s1.9-1.4,2.5-2.4c.6-1,.9-2.1.9-3.3v-3.1c-.2.2-.6.3-1.1.5-.5.1-1,.3-1.7.4-.6.1-1.3.2-1.9.3-.6,0-1.2.1-1.7.2-1.3.1-2.5.4-3.4.7-1,.3-1.7.8-2.2,1.3s-.7,1.3-.7,2.2.2,1.6.7,2.2c.5.6,1.1,1.1,1.9,1.4s1.7.5,2.8.5Z"/>
    <path class="st0" d="M324.6,219.7c-2,0-3.7-.5-5.2-1.4-1.5-1-2.6-2.3-3.5-4s-1.2-3.7-1.2-6,.4-4.3,1.2-6,2-3,3.5-4c1.5-.9,3.2-1.4,5.2-1.4s2.7.2,3.7.7,1.8,1.1,2.4,1.8,1.1,1.4,1.4,2.1h.2v-11.6h2.9v29.4h-2.8v-4.1h-.3c-.3.7-.8,1.4-1.4,2.1-.6.7-1.4,1.3-2.4,1.8-1,.5-2.2.7-3.7.7ZM325,217.3c1.6,0,2.9-.4,4-1.2,1.1-.8,1.9-1.8,2.5-3.2.6-1.4.9-2.9.9-4.7s-.3-3.3-.9-4.6c-.6-1.3-1.4-2.4-2.5-3.2-1.1-.8-2.4-1.1-4-1.1s-2.9.4-4,1.2c-1.1.8-1.9,1.9-2.5,3.2-.6,1.3-.8,2.9-.8,4.5s.3,3.2.9,4.6c.6,1.4,1.4,2.5,2.5,3.3,1.1.8,2.4,1.2,4,1.2Z"/>
    <path class="st0" d="M357.6,219.8c-1.5,0-2.8-.3-4-.8s-2.2-1.3-2.9-2.3c-.7-1-1.1-2.2-1.1-3.6s.2-2,.7-2.8,1.1-1.4,1.9-1.8,1.8-.9,2.9-1.1c1.1-.3,2.4-.5,3.7-.7,1.3-.2,2.5-.3,3.4-.4.9-.1,1.6-.3,2.1-.5.5-.2.7-.7.7-1.2v-.5c0-1-.2-1.8-.7-2.5-.4-.7-1.1-1.3-1.9-1.6-.8-.4-1.9-.6-3.1-.6s-2.1.2-3,.5-1.6.7-2.1,1.3c-.6.5-1,1.1-1.3,1.7l-2.8-.9c.5-1.2,1.3-2.2,2.2-2.9s2-1.3,3.3-1.6c1.2-.3,2.4-.5,3.7-.5s1.9.1,2.9.3c1,.2,1.9.6,2.8,1.2.9.5,1.6,1.3,2.1,2.2.5,1,.8,2.2.8,3.6v15h-2.9v-3.5h-.2c-.3.7-.9,1.3-1.5,1.9-.7.6-1.5,1.1-2.5,1.5-1,.4-2.1.6-3.4.6ZM358,217.4c1.5,0,2.7-.3,3.8-.9s1.9-1.4,2.5-2.4.9-2.1.9-3.3v-3.1c-.2.2-.6.3-1.1.5-.5.1-1,.3-1.7.4-.6.1-1.3.2-1.9.3-.6,0-1.2.1-1.7.2-1.3.1-2.5.4-3.4.7s-1.7.8-2.2,1.3-.7,1.3-.7,2.2.2,1.6.7,2.2,1.1,1.1,1.9,1.4,1.7.5,2.8.5Z"/>
    <path class="st0" d="M382.9,228c-1.6,0-3.1-.2-4.3-.6-1.2-.4-2.3-.9-3.1-1.6-.8-.7-1.5-1.4-2-2.3l2.4-1.3c.3.6.8,1.1,1.4,1.6.6.5,1.3,1,2.3,1.3.9.3,2,.5,3.4.5,2.1,0,3.8-.5,5.1-1.5,1.3-1,1.9-2.5,1.9-4.5v-5h-.3c-.3.7-.8,1.4-1.4,2-.6.7-1.4,1.2-2.4,1.6s-2.2.6-3.6.6-3.6-.4-5.1-1.3c-1.5-.9-2.7-2.1-3.5-3.7-.8-1.6-1.3-3.6-1.3-5.8s.4-4.2,1.2-5.9c.8-1.7,2-3,3.5-4s3.2-1.4,5.2-1.4,2.7.2,3.7.7c1,.5,1.8,1.1,2.4,1.8.6.7,1.1,1.4,1.4,2.1h.3v-4.2h2.8v22.6c0,1.9-.4,3.4-1.3,4.6s-2,2.1-3.6,2.7c-1.5.6-3.2.9-5.2.9ZM382.7,216.6c1.5,0,2.8-.3,3.9-1,1.1-.7,1.9-1.7,2.5-2.9.6-1.3.9-2.8.9-4.5s-.3-3.2-.9-4.5c-.6-1.3-1.4-2.4-2.5-3.1-1.1-.8-2.4-1.1-4-1.1s-2.9.4-4,1.2c-1.1.8-1.9,1.8-2.5,3.2-.6,1.3-.9,2.8-.9,4.5s.3,3.1.9,4.4c.6,1.3,1.4,2.3,2.5,3,1.1.7,2.4,1.1,4,1.1Z"/>
    <path class="st0" d="M408.2,219.7c-2.3,0-4.2-.5-5.9-1.5-1.6-1-2.9-2.3-3.8-4-.9-1.7-1.3-3.7-1.3-5.9s.4-4.2,1.3-5.9c.9-1.7,2.1-3.1,3.7-4.1,1.6-1,3.4-1.5,5.5-1.5s2.6.2,3.8.7,2.3,1.1,3.3,2c1,.9,1.7,2,2.3,3.4.6,1.4.8,3,.8,4.9v1.2h-18.9v-2.3h17.3l-1.3.9c0-1.6-.3-3-.9-4.2-.6-1.2-1.4-2.2-2.5-3-1.1-.7-2.4-1.1-3.9-1.1s-2.9.4-4,1.1c-1.1.7-2,1.7-2.7,2.9-.6,1.2-1,2.5-1,4v1.4c0,1.7.3,3.2,1,4.5s1.6,2.3,2.8,3c1.2.7,2.6,1.1,4.3,1.1s2.1-.2,3-.5c.9-.3,1.6-.8,2.2-1.3s1-1.1,1.3-1.8l2.8.8c-.4.9-1,1.8-1.8,2.6-.8.8-1.9,1.4-3.1,1.9-1.3.5-2.7.7-4.3.7Z"/>
    <path class="st0" d="M425.1,205.5v13.8h-2.9v-22.1h2.8v5.2s-.4,0-.4,0c.7-1.9,1.7-3.3,3.1-4.2,1.4-.9,3-1.3,4.9-1.3s3.1.3,4.3.9c1.2.6,2.2,1.5,2.9,2.7s1,2.7,1,4.4v14.3h-2.9v-14.1c0-1.8-.6-3.2-1.7-4.3-1.1-1-2.6-1.6-4.4-1.6s-2.4.2-3.4.7c-1,.5-1.8,1.2-2.4,2.1s-.9,2-.9,3.3Z"/>
    <path class="st0" d="M455.7,219.7c-2.1,0-3.9-.5-5.5-1.4-1.6-1-2.8-2.3-3.8-4-.9-1.7-1.4-3.7-1.4-5.9s.5-4.3,1.4-6,2.2-3.1,3.8-4c1.6-1,3.4-1.4,5.5-1.4s2.3.2,3.4.5c1,.3,1.9.8,2.7,1.3.8.5,1.4,1.2,2,1.8s.9,1.3,1.2,2l-2.8.8c-.1-.4-.4-.8-.7-1.3-.3-.5-.8-.9-1.3-1.3-.5-.4-1.2-.7-1.9-1-.7-.3-1.6-.4-2.5-.4-1.6,0-3,.4-4.2,1.2-1.1.8-2,1.9-2.6,3.3-.6,1.4-.9,2.9-.9,4.5s.3,3.1.9,4.5c.6,1.4,1.5,2.4,2.6,3.2,1.1.8,2.5,1.2,4.2,1.2s1.8-.1,2.5-.4c.7-.3,1.4-.6,2-1,.6-.4,1-.9,1.3-1.3.3-.5.6-.9.7-1.4l2.8.8c-.2.7-.6,1.4-1.1,2-.5.7-1.2,1.3-2,1.8-.8.6-1.7,1-2.8,1.3-1,.3-2.2.5-3.4.5Z"/>
    <path class="st0" d="M467.5,227.2l.8-2.3h.3c.8.3,1.6.4,2.3.3.7,0,1.3-.4,1.9-1s1-1.3,1.4-2.4l.9-2.4-9.2-22.2h3.2l5.6,13.9c.5,1.3,1,2.5,1.3,3.8.4,1.2.8,2.5,1.2,3.7h-1c.4-1.2.8-2.4,1.2-3.7.4-1.2.8-2.5,1.3-3.7l5.6-13.9h3.2l-10.7,25.7c-.5,1.1-1,2-1.6,2.7-.6.7-1.4,1.2-2.2,1.6s-1.8.5-2.8.5-1.1,0-1.6-.1c-.5,0-.9-.2-1.2-.3Z"/>
  </g>
</svg>