<?xml version="1.0" encoding="UTF-8"?>
<svg id="Layer_2" xmlns="http://www.w3.org/2000/svg" version="1.1" viewBox="0 0 928.8 303.3">
  <!-- Generator: Adobe Illustrator 29.1.0, SVG Export Plug-In . SVG Version: 2.1.0 Build 142)  -->
  <defs>
    <style>
      .st0 {
        fill: #000001;
      }
    </style>
  </defs>
  <g>
    <polygon class="st0" points="158.8 77 172.3 77 185.9 77 185.9 63.4 185.9 49.8 185.9 36.2 185.9 22.7 172.3 22.7 158.8 22.7 145.2 22.7 131.6 22.7 131.6 36.2 131.6 49.8 131.6 63.4 131.6 77 145.2 77 158.8 77"/>
    <polygon class="st0" points="253.8 90.6 240.2 90.6 226.7 90.6 213.1 90.6 199.5 90.6 185.9 90.6 172.3 90.6 158.8 90.6 145.2 90.6 131.6 90.6 118 90.6 104.4 90.6 90.9 90.6 77.3 90.6 63.7 90.6 50.1 90.6 50.1 104.1 50.1 117.7 63.7 117.7 77.3 117.7 90.9 117.7 104.4 117.7 118 117.7 118 131.3 118 144.9 118 158.4 118 172 118 185.6 118 199.2 118 212.8 118 226.3 118 239.9 118 253.5 118 267.1 118 280.7 131.6 280.7 145.2 280.7 145.2 267.1 145.2 253.5 145.2 239.9 145.2 226.3 145.2 212.8 145.2 199.2 158.8 199.2 172.3 199.2 172.3 212.8 172.3 226.3 172.3 239.9 172.3 253.5 172.3 267.1 172.3 280.7 185.9 280.7 199.5 280.7 199.5 267.1 199.5 253.5 199.5 239.9 199.5 226.3 199.5 212.8 199.5 199.2 199.5 185.6 199.5 172 199.5 158.4 199.5 144.9 199.5 131.3 199.5 117.7 213.1 117.7 226.7 117.7 240.2 117.7 253.8 117.7 267.4 117.7 267.4 104.1 267.4 90.6 253.8 90.6"/>
  </g>
  <g>
    <polygon class="st0" points="593.3 77 606.9 77 620.5 77 620.5 63.4 620.5 49.8 620.5 36.2 620.5 22.7 606.9 22.7 593.3 22.7 579.7 22.7 566.2 22.7 566.2 36.2 566.2 49.8 566.2 63.4 566.2 77 579.7 77 593.3 77"/>
    <polygon class="st0" points="688.4 90.6 674.8 90.6 661.2 90.6 647.6 90.6 634.1 90.6 620.5 90.6 606.9 90.6 593.3 90.6 579.7 90.6 566.2 90.6 552.6 90.6 539 90.6 525.4 90.6 511.8 90.6 498.3 90.6 484.7 90.6 484.7 104.1 484.7 117.7 498.3 117.7 511.8 117.7 525.4 117.7 539 117.7 552.6 117.7 552.6 131.3 552.6 144.9 552.6 158.4 552.6 172 552.6 185.6 552.6 199.2 552.6 212.8 552.6 226.3 552.6 239.9 552.6 253.5 552.6 267.1 552.6 280.7 566.2 280.7 579.7 280.7 579.7 267.1 579.7 253.5 579.7 239.9 579.7 226.3 579.7 212.8 579.7 199.2 593.3 199.2 606.9 199.2 606.9 212.8 606.9 226.3 606.9 239.9 606.9 253.5 606.9 267.1 606.9 280.7 620.5 280.7 634.1 280.7 634.1 267.1 634.1 253.5 634.1 239.9 634.1 226.3 634.1 212.8 634.1 199.2 634.1 185.6 634.1 172 634.1 158.4 634.1 144.9 634.1 131.3 634.1 117.7 647.6 117.7 661.2 117.7 674.8 117.7 688.4 117.7 702 117.7 702 104.1 702 90.6 688.4 90.6"/>
  </g>
  <g>
    <polygon points="294.6 36.2 281 36.2 267.4 36.2 267.4 49.8 267.4 63.4 281 63.4 294.6 63.4 294.6 49.8 294.6 36.2"/>
    <polygon points="471.1 36.2 457.5 36.2 457.5 49.8 457.5 63.4 471.1 63.4 484.7 63.4 484.7 49.8 484.7 36.2 471.1 36.2"/>
    <polygon points="321.7 63.4 308.1 63.4 294.6 63.4 294.6 77 294.6 90.6 308.1 90.6 321.7 90.6 321.7 77 321.7 63.4"/>
    <polygon points="376 77 389.6 77 403.2 77 403.2 63.4 403.2 49.8 403.2 36.2 403.2 22.7 389.6 22.7 376 22.7 362.5 22.7 348.9 22.7 348.9 36.2 348.9 49.8 348.9 63.4 348.9 77 362.5 77 376 77"/>
    <polygon points="430.4 63.4 430.4 77 430.4 90.6 443.9 90.6 457.5 90.6 457.5 77 457.5 63.4 443.9 63.4 430.4 63.4"/>
    <polygon points="403.2 90.6 389.6 90.6 376 90.6 362.5 90.6 348.9 90.6 335.3 90.6 321.7 90.6 321.7 104.1 321.7 117.7 335.3 117.7 335.3 131.3 335.3 144.9 335.3 158.4 335.3 172 335.3 185.6 335.3 199.2 335.3 212.8 335.3 226.3 335.3 239.9 335.3 253.5 335.3 267.1 335.3 280.7 348.9 280.7 362.5 280.7 362.5 267.1 362.5 253.5 362.5 239.9 362.5 226.3 362.5 212.8 362.5 199.2 376 199.2 389.6 199.2 389.6 212.8 389.6 226.3 389.6 239.9 389.6 253.5 389.6 267.1 389.6 280.7 403.2 280.7 416.8 280.7 416.8 267.1 416.8 253.5 416.8 239.9 416.8 226.3 416.8 212.8 416.8 199.2 416.8 185.6 416.8 172 416.8 158.4 416.8 144.9 416.8 131.3 416.8 117.7 430.4 117.7 430.4 104.1 430.4 90.6 416.8 90.6 403.2 90.6"/>
  </g>
  <g>
    <polygon points="797.2 77 810.8 77 824.4 77 824.4 63.4 824.4 49.8 824.4 36.2 824.4 22.7 810.8 22.7 797.2 22.7 783.7 22.7 770.1 22.7 770.1 36.2 770.1 49.8 770.1 63.4 770.1 77 783.7 77 797.2 77"/>
    <polygon points="865.1 117.7 851.6 117.7 851.6 131.3 838 131.3 838 144.9 824.4 144.9 824.4 158.4 810.8 158.4 810.8 144.9 824.4 144.9 824.4 131.3 838 131.3 838 117.7 851.6 117.7 851.6 104.1 851.6 90.6 838 90.6 824.4 90.6 810.8 90.6 797.2 90.6 783.7 90.6 770.1 90.6 756.5 90.6 742.9 90.6 742.9 104.1 742.9 117.7 756.5 117.7 756.5 131.3 770.1 131.3 770.1 144.9 783.7 144.9 783.7 158.4 770.1 158.4 770.1 144.9 756.5 144.9 756.5 131.3 742.9 131.3 742.9 117.7 729.4 117.7 715.8 117.7 715.8 131.3 715.8 144.9 729.4 144.9 729.4 158.4 742.9 158.4 742.9 172 756.5 172 756.5 185.6 756.5 199.2 756.5 212.8 756.5 226.3 756.5 239.9 756.5 253.5 756.5 267.1 756.5 280.7 770.1 280.7 783.7 280.7 783.7 267.1 783.7 253.5 783.7 239.9 783.7 226.3 783.7 212.8 783.7 199.2 797.2 199.2 810.8 199.2 810.8 212.8 810.8 226.3 810.8 239.9 810.8 253.5 810.8 267.1 810.8 280.7 824.4 280.7 838 280.7 838 267.1 838 253.5 838 239.9 838 226.3 838 212.8 838 199.2 838 185.6 838 172 851.6 172 851.6 158.4 865.1 158.4 865.1 144.9 878.7 144.9 878.7 131.3 878.7 117.7 865.1 117.7"/>
  </g>
</svg>