<?xml version="1.0" encoding="UTF-8"?>
<svg id="Layer_2" xmlns="http://www.w3.org/2000/svg" version="1.1" viewBox="0 0 245 154.7">
  <!-- Generator: Adobe Illustrator 29.1.0, SVG Export Plug-In . SVG Version: 2.1.0 Build 142)  -->
  <defs>
    <style>
      .st0 {
        fill: #fff;
      }
    </style>
  </defs>
  <g>
    <path class="st0" d="M23.7,20.5c-2.7-1.7-7.5-2.1-10.2-.8-1.8.8-3,2.3-3.9,3.7h-.3v-12.7H3.8v34.2h5.4v-4h.5c2.7,5,9.5,5.7,14.2,2.9,7.6-4.6,7.6-18.8,0-23.4ZM23,36.7c-1.4,4.2-6.9,5.7-10.5,3.3-2.5-1.8-3.3-4.7-3.3-7.9-.1-4.6,2.3-9,7.3-8.9,6.9-.2,8.6,8.4,6.5,13.5Z"/>
    <path class="st0" d="M52.1,20.6c-9.2-4.7-20.3.5-20,11.6-.2,11.1,10.9,16.2,20,11.6,8.3-4.4,8.3-18.8,0-23.2ZM51.9,36.7c-1.5,4.4-7.3,5.8-10.9,3.3-2.4-1.8-3.3-4.7-3.3-7.7,0-4.5,2.4-9.2,7.5-9,6.9-.3,8.9,8.3,6.7,13.5Z"/>
    <path class="st0" d="M77.4,43.7c1.3-.8,2.3-2.1,3.1-3.8v5h5.3v-25.7h-5.5v15.2c.1,3.8-2.8,6.5-6.5,6.4-3.6,0-6-2.2-5.9-5.9,0,0,0-15.7,0-15.7h-5.5v16.3c0,2.1.4,3.9,1.2,5.3,2.5,4.8,9.7,5.6,13.9,2.8Z"/>
    <path class="st0" d="M99.8,24.1c4.1-2,9.5,0,9.3,5.2,0,0,0,15.7,0,15.7h5.5v-16.3c0-2.1-.4-3.9-1.2-5.3-3.4-6.2-14.3-5.8-17,.9v-4.9h-5.3v25.7h5.5v-15.2c0-2.5,1-4.5,3.2-5.6Z"/>
    <path class="st0" d="M134.4,44.7c1.8-.8,3.1-2.3,3.9-3.7h.5v4h5.4V10.7h-5.5v12.7h-.3c-3.7-7.1-15.1-5.4-18.3,1.6-2,3.7-2,10.5,0,14.3,2.4,5.2,9.3,7.6,14.4,5.4ZM125,36.7c-2.1-5.1-.4-13.7,6.5-13.5,5-.1,7.4,4.3,7.3,8.9,0,3.1-.9,6.1-3.3,7.9-3.5,2.4-9,.9-10.5-3.3Z"/>
    <rect class="st0" x="149.4" y="10.7" width="5.5" height="34.2"/>
    <path class="st0" d="M180.5,22c-4.1-3.6-11-3.9-15.5-1.3-6.2,3.4-7.7,12.7-4.5,18.6,4.1,8.3,20.1,8.6,23.4-.5l-5.2-1.1c-1.5,4-7.2,4.4-10.5,2.7-2.5-1.3-3.7-3.8-3.7-6.7h19.9c.2-4.4-.6-8.9-3.9-11.7ZM165.3,26.9c1.7-3.7,7.2-4.8,10.4-2.7,1.9,1.2,2.9,3.4,3.1,5.7h-14.4c0-1.1.4-2.1.8-3Z"/>
    <path class="st0" d="M202.3,30.6c-1.9-.5-6.6-1-7.8-2.2-1.5-1.2-1.3-3.5.5-4.5,1-.6,2.3-.9,3.8-.9,2.8,0,4.7,1.2,5.6,3.4l4.9-1c-1.4-4.6-5.8-6.5-10.6-6.4-3.7,0-7.2,1-9.5,3.6-2,2.4-1.9,6.5.5,8.5,1.9,2.1,7.5,2.9,10.5,3.6,1.3.3,2.3.7,3,1.2,1.5,1.3,1.2,3.4-.6,4.5-3.1,1.9-9.4,1.4-10.4-2.9l-5.2,1c1.7,8.6,16.6,9,21.4,3.2,2-2.4,2-6.5-.4-8.6-1.3-1.1-3.2-2-5.8-2.5Z"/>
    <path class="st0" d="M233.6,33.1c-1.3-1.1-3.2-2-5.8-2.5-1.9-.5-6.6-1-7.8-2.2-1.5-1.2-1.3-3.5.5-4.5,1-.6,2.3-.9,3.8-.9,2.8,0,4.7,1.2,5.6,3.4l4.9-1c-1.4-4.6-5.8-6.5-10.6-6.4-3.7,0-7.2,1-9.5,3.6-2,2.4-1.9,6.5.5,8.5,1.9,2.1,7.5,2.9,10.5,3.6,1.3.3,2.3.7,3,1.2,1.5,1.3,1.2,3.4-.6,4.5-3.1,1.9-9.4,1.4-10.4-2.9l-5.2,1c1.7,8.6,16.6,9,21.4,3.2,2-2.4,2-6.5-.4-8.6Z"/>
  </g>
  <g>
    <path class="st0" d="M105.5,62.3c-2.7-1.7-7.5-2.1-10.2-.8-1.8.8-3,2.3-3.9,3.7h-.5v-4.2h-5.4v35.3h5.5v-13.6h.3c2.7,5,9.5,5.7,14.2,2.9,7.6-4.6,7.6-18.8,0-23.4ZM104.8,78.5c-1.4,4.2-6.9,5.7-10.5,3.3-2.5-1.8-3.3-4.7-3.3-7.9-.1-4.6,2.3-9,7.3-8.9,6.9-.2,8.6,8.4,6.5,13.5Z"/>
    <path class="st0" d="M133.7,62.4c-6-3.2-16-2.2-18.8,4.7l5.2,1.2c1.6-3.8,8.8-5,11.3-1.4.4.7.6,1.6.6,2.6-.1,1.6-1.5,1.6-3,1.9-4.3.7-11,.4-13.9,4.5-2.2,3.7-.4,9,3.8,10.5,4.3,1.8,10.7,1.1,13.1-3.2h.3v3.5h5.3v-17c0-3.3-1.2-5.7-3.8-7.3ZM132,77.4c0,5.4-8.3,7.6-11.8,4.1-1.6-2.1-.3-4.8,2.1-5.4,2.9-1.1,6.9-.5,9.7-2v3.3Z"/>
    <rect class="st0" x="142.7" y="52.5" width="5.5" height="34.2"/>
    <path class="st0" d="M171.5,62.4c-6-3.2-16-2.2-18.8,4.7l5.2,1.2c1.6-3.8,8.8-5,11.3-1.4.4.7.6,1.6.6,2.6-.1,1.6-1.5,1.6-3,1.9-4.3.7-11,.4-13.9,4.5-2.2,3.7-.4,9,3.8,10.5,4.3,1.8,10.7,1.1,13.1-3.2h.3v3.5h5.3v-17c0-3.3-1.2-5.7-3.8-7.3ZM169.8,77.4c0,5.4-8.3,7.6-11.8,4.1-1.6-2.1-.3-4.8,2.1-5.4,2.9-1.1,6.9-.5,9.7-2v3.3Z"/>
    <path class="st0" d="M198.1,80.2c-2,3.1-7.2,3.6-10,1.5-3.6-2.6-4-8.4-2.5-12.3,1.9-5.8,11.5-6.2,13.2,0l5.2-1.1c-2.1-7.6-12.6-9.3-18.6-5.9-8.3,4.4-8.3,18.8,0,23.2,6.1,3.5,16.7,1.6,18.7-6.1l-5.2-1.1c-.2.7-.4,1.3-.8,1.9Z"/>
    <path class="st0" d="M228.4,63.7c-4.1-3.6-11-3.9-15.5-1.3-6.2,3.4-7.7,12.7-4.5,18.6,4.1,8.3,20.1,8.6,23.4-.5l-5.2-1.1c-1.5,4-7.2,4.4-10.5,2.7-2.5-1.3-3.7-3.8-3.7-6.7h19.9c.2-4.4-.6-8.9-3.9-11.7ZM213.2,68.6c1.7-3.7,7.2-4.8,10.4-2.7,1.9,1.2,2.9,3.4,3.1,5.7h-14.4c0-1.1.4-2.1.8-3Z"/>
  </g>
  <path class="st0" d="M64.1,82.2v10l-6.2-3.2c-4.1-2.1-6.6-6.3-6.6-10.9h0c0-4.3,3.5-7.8,7.8-7.8h0v-16l-9-.7v8.6h-7.2v-9.3h-9v9.3h-7.2v-8.6l-9,.7v16h0c4.3,0,7.8,3.5,7.8,7.8h0c0,4.6-2.5,8.8-6.6,10.9l-6.2,3.2v-10l-9,1.3v28.8c0,4.5,3.6,8.1,8.1,8.1h17.7v-13.1c0-4.9,3.9-8.8,8.8-8.8h0c4.9,0,8.8,3.9,8.8,8.8v13.1h17.7c4.5,0,8.1-3.6,8.1-8.1v-28.8l-9-1.3Z"/>
</svg>