<?xml version="1.0" encoding="UTF-8"?>
<svg id="Layer_2" xmlns="http://www.w3.org/2000/svg" version="1.1" viewBox="0 0 454.3 117.1">
  <!-- Generator: Adobe Illustrator 29.1.0, SVG Export Plug-In . SVG Version: 2.1.0 Build 142)  -->
  <defs>
    <style>
      .st0 {
        fill: #fff;
      }
    </style>
  </defs>
  <path class="st0" d="M102.1,52v14.6l-9-4.7c-5.9-3.1-9.7-9.3-9.7-16h0c0-6.3,5.1-11.4,11.4-11.4h0V11l-13.2-1v12.6h-10.5v-13.6h-13.2v13.6h-10.5v-12.6l-13.2,1v23.4h0c6.3,0,11.4,5.1,11.4,11.4h0c0,6.7-3.7,12.9-9.7,16l-9,4.7v-14.6l-13.2,2v42.2c0,6.6,5.3,11.9,11.9,11.9h25.9v-19.1c0-7.1,5.8-12.9,12.9-12.9h0c7.1,0,12.9,5.8,12.9,12.9v19.1h25.9c6.6,0,11.9-5.3,11.9-11.9v-42.2l-13.2-2h.2Z"/>
  <g>
    <path class="st0" d="M158.3,18.4c-3.3-2.1-9.1-2.6-12.5-.9-2.2,1-3.6,2.8-4.7,4.5h-.4V6.5h-6.7v41.7h6.5v-4.9h.6c1.1,1.7,2.6,3.5,4.8,4.5,3.5,1.7,9.2,1.1,12.4-1,9.3-5.5,9.3-23,0-28.4h0ZM157.4,38.1c-1.8,5.2-8.4,7-12.7,4-3-2.1-4-5.8-4-9.6-.2-5.6,2.8-11,8.9-10.8,8.4-.3,10.4,10.2,7.9,16.4h0Z"/>
    <path class="st0" d="M192.8,18.5c-2.4-1.3-5.2-2-8.4-2-9.4-.2-16.2,6.8-16,16.2-.2,9.3,6.6,16.3,16,16.1,3.2,0,6-.7,8.4-2,10.1-5.4,10.1-22.9,0-28.3ZM192.6,38.1c-1.9,5.4-8.8,7.1-13.3,4-2.9-2.1-4-5.8-4-9.4-.1-5.5,3-11.2,9.1-11,8.4-.3,10.8,10.1,8.2,16.4Z"/>
    <path class="st0" d="M223.7,46.6c1.5-1,2.8-2.6,3.7-4.6v6.1h6.4v-31.3h-6.7v18.5c.2,4.6-3.4,7.9-7.9,7.8-4.4,0-7.3-2.7-7.2-7.2v-19.1h-6.7v19.9c0,2.6.5,4.7,1.5,6.5,3,5.8,11.8,6.8,17,3.4h-.1Z"/>
    <path class="st0" d="M250.9,22.8c5.1-2.4,11.5,0,11.3,6.3v19.1h6.7v-19.9c0-2.6-.5-4.8-1.5-6.5-4.2-7.5-17.4-7.1-20.7,1.1v-6h-6.5v31.3h6.7v-18.5c0-3.1,1.3-5.5,3.9-6.9h.1Z"/>
    <path class="st0" d="M293,47.8c2.2-1,3.8-2.8,4.8-4.5h.6v4.9h6.5V6.5h-6.7v15.5h-.4c-2-3.4-5.3-5.7-9.8-5.5-5.4,0-10,2.6-12.4,7.4-2.5,4.6-2.5,12.8,0,17.4,2.9,6.4,11.3,9.2,17.5,6.5h-.1ZM281.6,38.1c-2.6-6.2-.5-16.7,7.9-16.4,6.1-.2,9,5.2,8.9,10.8,0,3.8-1,7.4-4,9.6-4.4,3-10.9,1.2-12.7-4h0Z"/>
    <rect class="st0" x="311.3" y="6.5" width="6.7" height="41.7"/>
    <path class="st0" d="M349.2,20.1c-4.9-4.4-13.4-4.7-18.9-1.6-7.6,4.1-9.3,15.5-5.5,22.7,4.9,10.1,24.5,10.5,28.5-.6l-6.3-1.4c-1.8,4.9-8.8,5.4-12.8,3.3-3-1.6-4.4-4.6-4.6-8.2h24.2c.2-5.4-.7-10.8-4.7-14.3h0ZM330.7,26.1c2-4.5,8.7-5.9,12.7-3.3,2.4,1.5,3.5,4.2,3.8,7h-17.5c.1-1.3.4-2.5,1-3.6h0Z"/>
    <path class="st0" d="M375.6,30.6c-2.3-.6-8-1.3-9.5-2.7-1.9-1.5-1.6-4.2.6-5.4,1.2-.8,2.8-1.1,4.6-1.1,3.4,0,5.7,1.4,6.8,4.1l6-1.2c-1.7-5.6-7.1-7.9-12.9-7.8-4.5,0-8.8,1.2-11.5,4.4-2.5,2.9-2.3,7.9.6,10.4,1.5,1.4,3.9,2.5,7.1,3.1,2.2.6,7.8,1.2,9.4,2.7,1.8,1.6,1.5,4.2-.7,5.5-3.8,2.3-11.5,1.8-12.7-3.5l-6.3,1.2c2,10.5,20.3,10.9,26.1,3.9,2.5-2.9,2.4-7.9-.5-10.4-1.5-1.4-3.9-2.4-7-3.1h-.1Z"/>
    <path class="st0" d="M413.7,33.7c-1.5-1.4-3.9-2.4-7-3.1-2.3-.6-8-1.3-9.5-2.7-1.9-1.5-1.6-4.2.6-5.4,1.2-.8,2.8-1.1,4.6-1.1,3.4,0,5.7,1.4,6.8,4.1l6-1.2c-1.7-5.6-7.1-7.9-12.9-7.8-4.5,0-8.8,1.2-11.5,4.4-2.5,2.9-2.3,7.9.6,10.4,1.5,1.4,3.9,2.5,7.1,3.1,2.2.6,7.8,1.2,9.4,2.7,1.8,1.6,1.5,4.2-.7,5.5-3.8,2.3-11.5,1.8-12.7-3.5l-6.3,1.2c2,10.5,20.3,10.9,26.1,3.9,2.5-2.9,2.4-7.9-.5-10.4h-.1Z"/>
    <path class="st0" d="M158.3,69.2c-3.3-2.1-9.1-2.6-12.5-.9-2.2,1-3.6,2.8-4.7,4.5h-.6v-5.1h-6.5v43h6.7v-16.6h.4c1.1,1.7,2.6,3.5,4.8,4.5,3.5,1.7,9.2,1.1,12.4-1,9.3-5.5,9.3-23,0-28.4h0ZM157.4,88.9c-1.8,5.2-8.4,7-12.7,4-3-2.1-4-5.8-4-9.6-.2-5.6,2.8-11,8.9-10.8,8.4-.3,10.4,10.2,7.9,16.4h0Z"/>
    <path class="st0" d="M192.6,69.4c-7.2-3.9-19.5-2.7-22.9,5.7l6.3,1.5c1.4-2.9,4.5-4.3,7.9-4.3s4.6.6,5.8,2.5c.5.8.8,1.9.7,3.1-.1,1.9-1.8,2-3.7,2.3-6.4.8-18.2.7-18.1,9.9-.3,10.8,16.9,12.7,21.6,4.6h.3v4.3h6.5v-20.8c0-4-1.5-7-4.6-8.8h.2ZM190.5,87.7c0,4.5-4.4,7.2-8.7,7-2.2,0-4.3-.4-5.6-2-1.9-2.6-.4-5.8,2.6-6.6,3.5-1.3,8.4-.6,11.7-2.4v4Z"/>
    <rect class="st0" x="203.6" y="57.3" width="6.7" height="41.7"/>
    <path class="st0" d="M238.6,69.4c-7.2-3.9-19.5-2.7-22.9,5.7l6.3,1.5c1.4-2.9,4.5-4.3,7.9-4.3s4.6.6,5.8,2.5c.5.8.8,1.9.7,3.1-.1,1.9-1.8,2-3.7,2.3-6.4.8-18.2.7-18.1,9.9-.3,10.8,16.9,12.7,21.6,4.6h.3v4.3h6.5v-20.8c0-4-1.5-7-4.6-8.8h.2ZM236.5,87.7c0,4.5-4.4,7.2-8.7,7-2.2,0-4.3-.4-5.6-2-1.9-2.6-.4-5.8,2.6-6.6,3.5-1.3,8.4-.6,11.8-2.4v4h-.1Z"/>
    <path class="st0" d="M271,91c-2.4,3.8-8.7,4.3-12.1,1.9-4.4-3.2-4.9-10.2-3-14.9,2.3-7.1,13.9-7.5,16,0l6.4-1.4c-2.5-9.2-15.3-11.4-22.7-7.2-10.1,5.4-10.1,22.9,0,28.3,7.5,4.2,20.4,1.9,22.8-7.4l-6.4-1.4c-.2.8-.5,1.6-1,2.3v-.2Z"/>
    <path class="st0" d="M307.8,70.9c-4.9-4.4-13.4-4.7-18.9-1.6-7.6,4.1-9.3,15.5-5.5,22.7,4.9,10.1,24.5,10.5,28.5-.6l-6.3-1.4c-1.8,4.9-8.8,5.3-12.8,3.3-3-1.6-4.4-4.6-4.6-8.2h24.2c.2-5.4-.7-10.8-4.7-14.3h0ZM289.3,76.9c2-4.5,8.7-5.9,12.7-3.3,2.4,1.5,3.5,4.2,3.8,7h-17.5c.1-1.3.4-2.5,1-3.6h0Z"/>
  </g>
</svg>