<?xml version="1.0" encoding="UTF-8"?>
<svg id="Layer_2" xmlns="http://www.w3.org/2000/svg" version="1.1" viewBox="0 0 177.6 177">
  <!-- Generator: Adobe Illustrator 29.1.0, SVG Export Plug-In . SVG Version: 2.1.0 Build 142)  -->
  <defs>
    <style>
      .st0 {
        fill: #ff4800;
      }
    </style>
  </defs>
  <path class="st0" d="M154.5,78.9v25.6l-15.8-8.3c-10.4-5.4-16.9-16.2-16.9-28h0c0-11.1,9-20,20-20h0V7.2l-23.1-1.7v22.1h-18.4V3.7h-23.1v23.8h-18.4V5.5l-23.1,1.7v41h0c11.1,0,20,9,20,20h0c0,11.7-6.5,22.5-16.9,28l-15.8,8.3v-25.6L0,82.3v73.8C0,167.7,9.3,177,20.8,177h45.4v-33.5c0-12.5,10.1-22.6,22.6-22.6h0c12.5,0,22.6,10.1,22.6,22.6v33.5h45.4c11.5,0,20.8-9.3,20.8-20.8v-73.8l-23.1-3.4Z"/>
</svg>