<?xml version="1.0" encoding="UTF-8"?>
<svg id="Layer_2" xmlns="http://www.w3.org/2000/svg" version="1.1" viewBox="0 0 177.6 177">
  <!-- Generator: Adobe Illustrator 29.1.0, SVG Export Plug-In . SVG Version: 2.1.0 Build 142)  -->
  <defs>
    <style>
      .st0 {
        fill: #ff4800;
      }
    </style>
  </defs>
  <path class="st0" d="M150.2,148.6c0,15.7-12.7,28.4-28.4,28.4H55.8c-15.7,0-28.4-12.7-28.4-28.4l3.6-28.9c1.4-11.3,9.8-20.4,20.9-22.7l5.7-1.3-1.8-5.2-3.1-11.5c.6-5.4,5.1-9.4,10.5-9.4s4.9,2.4,4.6,5.1c-.4,4.7,3.3,8.9,8,8.9h25.8c4.7,0,8.4-4,8.1-8.6-.4-2.8,1.8-5.4,4.7-5.4,5.4,0,9.9,4.1,10.5,9.4-1.1,3.6-3.9,13.3-5,16.7l5.5,1.3c11.2,2.3,19.7,11.5,21.2,22.9l3.6,28.7h0Z"/>
  <g>
    <path class="st0" d="M177.6,102.2c-2.7-.6-37.5-7.4-38.6-7.8-6.7-1.4-10.8-8.4-8.9-14.9,2.2-7.6-3.5-15.1-11.3-15.1h-60.3c-7.9,0-13.6,7.6-11.3,15.1,2,6.6-2.1,13.5-8.9,14.9-1.2.3-35.8,7.2-38.4,7.8l1.2-19.9c.9-14.1,10.8-25.9,24.4-29.3h0c8.5-2.1,17.2-3.2,25.9-3.2h74.6c8.8,0,17.5,1.1,25.9,3.2h0c13.7,3.4,23.5,15.3,24.4,29.3l1.2,19.9h0Z"/>
    <path class="st0" d="M138.7,49.8h0Z"/>
  </g>
</svg>