<?xml version="1.0" encoding="UTF-8"?>
<svg id="Layer_2" xmlns="http://www.w3.org/2000/svg" version="1.1" viewBox="0 0 300 300">
  <!-- Generator: Adobe Illustrator 29.1.0, SVG Export Plug-In . SVG Version: 2.1.0 Build 142)  -->
  <defs>
    <style>
      .st0 {
        fill: #ff4e00;
      }
    </style>
  </defs>
  <path class="st0" d="M150,118.1c-18.3,0-33.1,15.5-31.8,34.2,1.1,15.7,13.8,28.4,29.5,29.5s34.2-13.5,34.2-31.8c0-17.6-14.3-31.9-31.9-31.9h0Z"/>
  <path class="st0" d="M250.3,207.7c-1.3-14-9.5-33.4-19.5-49.8-5.4,3.1-14,8-19.4,11.2,82-99.1,25.1-165.6-80.5-80.3,3.1-5.5,8-14,11.2-19.5-26.9-15.8-61.2-30.3-82.9-10.1-21.4,20.4-3.2,64.6,15.4,90.9-32.3,47.2-37.6,98.6,11,100.7,15.2.5,38.2-8.5,57.3-20.4-2.8-4.8-7.6-13.1-10.4-17.8,25.3,19.8,53.1,37.2,82.2,38.1,24.8.2,38.9-17.9,35.7-42.9ZM75.4,75.4c2.5-2.5,6.8-3,10-3,10.8-.4,30,7.5,44.9,16.8-14.5,11.9-29.2,26.5-41.2,41.2-10.5-16.1-22.7-45.9-13.8-54.9ZM126,213.4c-16.2,9.4-40.3,19.6-50.6,11.2-9.9-11.7,4.8-39.7,13.9-54.7,12,14.7,26.4,29,41,40.9l-4.4,2.5ZM214.5,227.8c-28.1.7-85.9-42.7-111.4-77.7,25-35.1,83.6-78.8,111.4-78,4.5,0,7.9,1.1,10.1,3.3,4,4,5.2,15.2-3.3,34.9-11,26.9-39.5,60.9-66.2,82.6,4.2,4.9,10.8,12.6,15.1,17.5,14.3-11.9,28.9-26.4,40.7-40.9,15.2,24.5,20.7,48.2,13.7,54.9-2.2,2.2-5.6,3.3-10.1,3.3ZM226.7,230.5c.5-.3,1-.7,1.4-1.1-.5.4-.9.8-1.4,1.1Z"/>
</svg>