<?xml version="1.0" encoding="UTF-8"?>
<svg id="Layer_1" xmlns="http://www.w3.org/2000/svg" version="1.1" viewBox="0 0 300 300">
  <!-- Generator: Adobe Illustrator 29.1.0, SVG Export Plug-In . SVG Version: 2.1.0 Build 142)  -->
  <defs>
    <style>
      .st0 {
        fill: #fff;
      }

      .st1 {
        fill: #ff4e00;
      }
    </style>
  </defs>
  <g>
    <path class="st1" d="M469.5,79.7c-18.6,0-33.7,15.1-33.7,33.7s15.1,33.7,33.7,33.7,33.7-15.1,33.7-33.7c0-18.6-15.1-33.7-33.7-33.7h0Z"/>
    <path class="st1" d="M575.5,174.3c-1.4-14.8-10-35.2-20.6-52.6-5.7,3.3-14.7,8.5-20.5,11.8,86.6-104.6,26.5-174.9-85-84.8,3.3-5.8,8.5-14.8,11.8-20.6-28.4-16.7-64.6-32.1-87.6-10.7-22.6,21.5-3.4,68.2,16.2,96-34.2,49.8-39.7,104.1,11.6,106.3,16,.5,40.3-9,60.5-21.5-2.9-5-8-13.8-11-18.8,26.7,20.9,56,39.3,86.8,40.3,26.2.2,41.1-19,37.7-45.4ZM390.8,34.6c2.7-2.7,7.2-3.2,10.6-3.2,11.4-.5,31.6,8,47.4,17.7-15.3,12.6-30.8,28-43.5,43.5-11.1-17-24-48.4-14.6-58ZM444.2,180.3c-17.1,9.9-42.5,20.7-53.4,11.8-10.4-12.4,5.1-42,14.7-57.8,12.7,15.5,27.9,30.6,43.3,43.2l-4.6,2.7ZM537.7,195.6c-29.7.8-90.8-45.1-117.7-82.1,26.4-37.1,88.3-83.2,117.7-82.3,4.8,0,8.4,1.2,10.7,3.4,4.2,4.2,5.5,16.1-3.5,36.9-11.6,28.4-41.7,64.3-69.9,87.3,4.5,5.2,11.4,13.3,15.9,18.5,15.1-12.6,30.5-27.9,43-43.1,16,25.9,21.9,50.9,14.5,58-2.3,2.3-5.9,3.5-10.7,3.5ZM550.6,198.5c.5-.4,1-.8,1.5-1.2-.5.4-1,.8-1.5,1.2Z"/>
  </g>
  <path class="st1" d="M359.4,407.5c-4.5-10-12.4-16.8-21.8-18.6-9.4-1.8-19.3,1.5-27.2,9.1-2.4,2.3-4.6,5.1-6.6,8-.7-3.5-1.7-6.8-3.1-9.9-4.5-10-12.4-16.8-21.8-18.6-9.4-1.8-19.3,1.5-27.2,9.1-7,6.8-12.1,16.4-14.2,27.2-2.1,10.8-1.1,21.6,2.9,30.5,4.5,10,12.4,16.8,21.8,18.6,9.4,1.8,19.3-1.5,27.2-9.1,2.4-2.3,4.6-5,6.6-8,.7,3.5,1.7,6.8,3.1,9.9,4.5,10,12.4,16.8,21.8,18.6,9.4,1.8,19.3-1.5,27.2-9.1,7-6.8,12.1-16.4,14.2-27.2,2.1-10.8,1.1-21.6-2.9-30.5ZM264.3,452.7c-10.7-2.1-17.7-14.4-17.3-29.1,1.1,6.7,5.3,12,11.2,13.1s16.3-5.4,18.3-15.5-3-19.7-11.1-21.2-11.8,2.2-15.3,7.9c5.2-13.7,16.3-22.5,27-20.4s20,19,16.5,37c-3.5,18-16.6,30.6-29.2,28.1ZM322.9,464.2c-10.7-2.1-17.7-14.4-17.3-29.1,1.1,6.7,5.3,12,11.2,13.1,8.1,1.6,16.3-5.4,18.3-15.5s-3-19.7-11.1-21.2-11.8,2.2-15.3,8c5.2-13.7,16.3-22.5,27-20.4,12.6,2.5,20,19,16.5,37-3.5,18-16.6,30.6-29.2,28.1Z"/>
  <path class="st1" d="M398.1,334.3l33.7,33.3c8.4,8.3,22,8.2,30.3-.2s12.9-13.1,18.1-18.3c4-4.1,10.6-4.1,14.7,0,5.2,5.2,12.1,11.9,18.3,18.1s22,8.2,30.3-.2l18.1-18.3c4-4.1,10.6-4.1,14.7,0l18.3,18.1c8.4,8.3,22,8.2,30.3-.2,12.9-13.1,29.8-30.1,33.3-33.7l-8-7.9-33.1,33.5c-4,4.1-10.6,4.1-14.7,0-5.2-5.2-12.1-11.9-18.3-18.1-8.4-8.3-22-8.2-30.3.2s-12.9,13.1-18.1,18.3c-4,4.1-10.6,4.1-14.7,0-5.2-5.2-12.1-11.9-18.3-18.1-8.4-8.3-22-8.2-30.3.2l-18.1,18.3c-4,4.1-10.6,4.1-14.7,0l-33.5-33.1-7.9,8Z"/>
  <path class="st1" d="M242.6,244c-29.2,16.8-62.5,27.2-95.8,31.3-11.6,1.2-30.6,2.3-33.8-12-1.8-13.3,10.7-26.2,17.1-37.2,7.8-12.4,4.5-20.5-10.5-21.4-10.1-.6-20.8.7-30.9-.8-16-2.1-20.7-13.1-13.3-27,3.7-7.4,8.9-14.2,13.3-21.3,2.8-4.7,6.4-10.6,4.5-16.1-4.4-10.2-26.9-5.8-36.4-6.6-8.7-.3-18-1.2-23.2-8.4-5.9-9,1.4-20.6,7.2-28.2,18.5-24,43.2-43.5,69.2-59.4,6.7-3.9,13.6-7.6,21-10,9-3.3,23.9-4,26.6,7.1,1.3,6.3-2.8,13.4-3.1,19.4-.8,8.4,8.3,10.7,15,10.9,15.8.8,51.5-5.6,46.6,20.5-3.1,12.1-12.8,21.8-18.4,32.7-7.4,14.4,2.3,18.8,14.8,18.7,10.5.2,21.4-1,31.8,1.4,11.6,2.7,16,11.7,11.3,22.7-3.3,7.9-8.8,15.2-13.4,22.4-4.4,7.1-10,15.6-3.2,21.7,4.4,3.5,11.6,4.1,16.5,6.9,7.1,3.6,7.4,12.1,3.4,18.2-3.7,6.1-9.6,10.5-15.8,14.4h-.2Z"/>
  <path class="st1" d="M-222.6,547h0c-19.5,10.6-42.4,13.1-63.8,6.9h-.4c-11.4-3.4-17.9-15.3-14.6-26.6l7.2-24.7c1.6-5.5-1.6-11.3-7.1-12.8l-24.7-7.2c-11.4-3.3-17.9-15.2-14.6-26.5,2.4-8.4,5.1-17.7,7.2-24.7,1.6-5.5-1.6-11.3-7.1-12.9-7-2-16.3-4.7-24.7-7.2-11.4-3.3-17.9-15.2-14.6-26.5h0c6.3-21.7,21-39.9,40.8-50.7h0c13.1-7.1,28.4,5.1,24.2,19.5l-1.6,5.7c-1.6,5.5,1.6,11.3,7.1,12.9l24.7,7.2c11.4,3.3,17.9,15.2,14.6,26.5-2.4,8.4-5.1,17.7-7.2,24.7-1.6,5.5,1.6,11.3,7.1,12.8,7,2,16.3,4.7,24.7,7.2,11.4,3.3,17.9,15.2,14.6,26.5-2.4,8.4-5.1,17.7-7.2,24.7-1.6,5.5,1.6,11.3,7.1,12.9l5,1.5c14.5,4.2,16.6,23.8,3.3,31Z"/>
  <path class="st0" d="M298.5-82.8c-1.6-3.7-4.6-6.2-8.1-6.9s-7.1.5-10.1,3.4c-.9.9-1.7,1.9-2.4,3-.2-1.3-.6-2.5-1.1-3.7-1.6-3.7-4.6-6.2-8.1-6.9s-7.1.5-10.1,3.4c-2.6,2.5-4.5,6.1-5.2,10.1s-.4,8,1.1,11.3c1.7,3.7,4.6,6.2,8.1,6.9,3.5.7,7.1-.5,10.1-3.4.9-.9,1.7-1.9,2.4-3,.2,1.3.6,2.5,1.1,3.7,1.7,3.7,4.6,6.2,8.1,6.9s7.1-.5,10.1-3.4c2.6-2.5,4.5-6.1,5.2-10.1.8-4,.4-8-1.1-11.3ZM263.4-66.1c-4-.8-6.5-5.3-6.4-10.7.4,2.5,2,4.4,4.1,4.9s6-2,6.8-5.7-1.1-7.3-4.1-7.9-4.4.8-5.7,2.9c1.9-5.1,6-8.3,10-7.5s7.4,7,6.1,13.7c-1.3,6.7-6.1,11.3-10.8,10.4ZM285-61.9c-4-.8-6.5-5.3-6.4-10.7.4,2.5,2,4.4,4.1,4.9s6-2,6.8-5.7-1.1-7.3-4.1-7.9-4.4.8-5.7,2.9c1.9-5.1,6-8.3,10-7.5s7.4,7,6.1,13.7-6.1,11.3-10.8,10.4Z"/>
  <g>
    <g>
      <path class="st0" d="M-191.9-7l-.4.2c-1.5.7-2.5,2.2-2.5,3.8v.4c0,.7-1,.9-1.3.3l-.2-.4c-.7-1.5-2.2-2.5-3.8-2.5h-.4c-.7,0-.9-1-.3-1.3l.4-.2c1.5-.7,2.5-2.2,2.5-3.8v-.4c0-.7,1-.9,1.3-.3l.2.4c.7,1.5,2.2,2.5,3.8,2.5h.4c.7,0,.9,1,.3,1.3Z"/>
      <path class="st0" d="M-177.3,4.3h-.6c-2.5,0-4.7,1.5-5.7,3.8l-.3.6c-.4,1-1.9.7-1.9-.4v-.6c0-2.5-1.5-4.7-3.8-5.7l-.6-.3c-1-.4-.7-1.9.4-1.9h.6c2.5,0,4.7-1.5,5.7-3.8l.3-.6c.4-1,1.9-.7,1.9.4v.6c0,2.5,1.5,4.7,3.8,5.7l.6.3c1,.4.7,1.9-.4,1.9Z"/>
    </g>
    <g>
      <path class="st0" d="M-100.7,48.2l-.7.2c-2.6.8-4.6,3-5,5.7v.7c-.3,1.2-1.9,1.3-2.3.1l-.2-.7c-.8-2.6-3-4.6-5.7-5h-.7c-1.2-.3-1.3-1.9-.1-2.3l.7-.2c2.6-.8,4.6-3,5-5.7v-.7c.3-1.2,1.9-1.3,2.3-.1l.2.7c.8,2.6,3,4.6,5.7,5h.7c1.2.3,1.3,1.9.1,2.3Z"/>
      <path class="st0" d="M-75.9,36.1l-.9.3c-3.4,1-5.9,3.9-6.5,7.4v.9c-.4,1.5-2.5,1.7-2.9.2l-.3-.9c-1-3.4-3.9-5.9-7.4-6.5h-.9c-1.5-.4-1.7-2.5-.2-2.9l.9-.3c3.4-1,5.9-3.9,6.5-7.4v-.9c.4-1.5,2.5-1.7,2.9-.2l.3.9c1,3.4,3.9,5.9,7.4,6.5h.9c1.5.4,1.7,2.5.2,2.9Z"/>
      <path class="st0" d="M-88.6,58.4h-.4c-1.6.2-3,1.3-3.6,2.8v.4c-.4.7-1.3.5-1.4-.2v-.4c-.2-1.6-1.3-3-2.8-3.6h-.4c-.7-.4-.5-1.3.2-1.4h.4c1.6-.2,3-1.3,3.6-2.8v-.4c.4-.7,1.3-.5,1.4.2v.4c.2,1.6,1.3,3,2.8,3.6h.4c.7.4.5,1.3-.2,1.4Z"/>
    </g>
    <g>
      <path class="st0" d="M-183.9-79.9l-1.1.5c-4.3,2-7.1,6.3-7.1,11.1v1.2c0,2-2.8,2.7-3.6.8l-.5-1.1c-2-4.3-6.3-7-11.1-7.1h-1.2c-2,0-2.6-2.8-.8-3.6l1.1-.5c4.3-2,7.1-6.3,7.1-11.1v-1.2c0-2,2.8-2.6,3.6-.8l.5,1.1c2,4.3,6.3,7,11.1,7.1h1.2c2,0,2.6,2.8.8,3.6Z"/>
      <path class="st0" d="M-175-101.4h-.9c-3.4,0-6.5,1.9-8,5l-.4.8c-.6,1.3-2.6.9-2.6-.6v-.9c0-3.4-1.9-6.5-5-8l-.8-.4c-1.3-.6-.9-2.6.6-2.6h.9c3.4,0,6.5-1.9,8-5l.4-.8c.6-1.3,2.6-.9,2.6.6v.9c0,3.4,1.9,6.5,5,8l.8.4c1.3.6.9,2.6-.6,2.6Z"/>
      <path class="st0" d="M-167.6-85.8h-.4c-1.6.2-3,1.3-3.6,2.8v.4c-.4.7-1.3.5-1.4-.2v-.4c-.2-1.6-1.3-3-2.8-3.6h-.4c-.7-.4-.5-1.3.2-1.4h.4c1.6-.2,3-1.3,3.6-2.8v-.4c.4-.7,1.3-.5,1.4.2v.4c.2,1.6,1.3,3,2.8,3.6h.4c.7.4.5,1.3-.2,1.4Z"/>
    </g>
  </g>
  <path class="st0" d="M150,118.1c-17.6,0-31.9,14.3-31.9,31.9s14.3,31.9,31.9,31.9,31.9-14.3,31.9-31.9c0-17.6-14.3-31.9-31.9-31.9h0Z"/>
</svg>