<?xml version="1.0" encoding="UTF-8"?>
<svg id="Layer_1" xmlns="http://www.w3.org/2000/svg" version="1.1" viewBox="0 0 300 300">
  <!-- Generator: Adobe Illustrator 29.1.0, SVG Export Plug-In . SVG Version: 2.1.0 Build 142)  -->
  <defs>
    <style>
      .st0 {
        fill: #ff4e00;
      }
    </style>
  </defs>
  <path class="st0" d="M150,118.1c-17.6,0-31.9,14.3-31.9,31.9s14.3,31.9,31.9,31.9,31.9-14.3,31.9-31.9c0-17.6-14.3-31.9-31.9-31.9h0Z"/>
  <path class="st0" d="M261.7,285.9c-10.8-9-30.3-16.9-49-21.4-1.6,6-4.2,15.6-5.8,21.6-12.1-128-99.4-134.9-113.7.2-1.7-6.1-4.2-15.6-5.9-21.7-30.2,7.9-64.7,21.8-65.8,51.5-.8,29.6,43.4,47.9,75.1,53.4,10.5,56.2,43.1,96.3,79,63.4,11.1-10.4,21-33,26.1-54.9-5.3-1.4-14.6-3.9-20-5.3,31.9-3.9,63.8-11.2,85.1-31.2,17.7-17.4,14.8-40.2-5.1-55.6ZM44.6,316c0-3.6,2.7-7,4.9-9.3,7.3-7.9,26.5-15.9,43.6-19.9-1.8,18.7-1.9,39.4,0,58.2-18.8-3.9-48.5-16.4-48.6-29.1ZM177.8,377.8c-4.9,18.1-14.6,42.4-27.8,43.7-15.3-1.3-24.7-31.5-28.8-48.5,18.9,1.9,39.1,1.8,57.9,0l-1.3,4.9ZM250.7,325.4c-19.4,20.4-91,30.6-133.8,23.8-7.2-42.5,3.4-114.9,23.7-133.9,3.2-3.2,6.4-4.8,9.4-4.8,5.6,0,14.4,7.1,22.4,27,11.2,26.8,15.2,71,11.7,105.2,6.5.5,16.5,1.2,23,1.7,1.6-18.5,1.8-39.1-.1-57.6,28.1,6.6,48.7,19.4,48.5,29.2,0,3.1-1.6,6.2-4.8,9.5ZM261.2,318.7c.1-.6.2-1.2.2-1.8,0,.6-.1,1.2-.2,1.8Z"/>
</svg>