<?xml version="1.0" encoding="UTF-8"?>
<svg id="Layer_2" xmlns="http://www.w3.org/2000/svg" version="1.1" viewBox="0 0 153.7 177">
  <!-- Generator: Adobe Illustrator 29.1.0, SVG Export Plug-In . SVG Version: 2.1.0 Build 142)  -->
  <defs>
    <style>
      .st0 {
        fill: #d8deea;
      }

      .st1 {
        fill: #fff;
      }

      .st2 {
        fill: #ff4e00;
      }

      .st3 {
        fill: #415b93;
      }

      .st4 {
        fill: #002444;
      }
    </style>
  </defs>
  <rect class="st2" x="-190" y="-5.2" width="96.8" height="96.8" rx="1.8" ry="1.8"/>
  <rect class="st4" x="-190" y="40.2" width="96.8" height="96.8" rx="1.8" ry="1.8"/>
  <rect class="st3" x="-190" y="91.5" width="96.8" height="96.8" rx="1.8" ry="1.8"/>
  <rect class="st0" x="-190" y="139.9" width="96.8" height="96.8" rx="1.8" ry="1.8"/>
  <path class="st1" d="M145,72.6v84.9c0,4.6-3.6,8.5-8.1,8.5H16.9c-4.4,0-8.1-3.8-8.1-8.5v-84.9C8.8,33,39.3.9,76.9.9s68.1,32.1,68.1,71.7Z"/>
  <path d="M76.9,119.5c-11.4,0-20.7,9.7-19.8,21.3.7,9.8,8.6,17.7,18.4,18.4,9.8.7,21.3-8.4,21.3-19.8s-8.9-19.9-19.9-19.9h0Z"/>
  <path d="M139.5,175.4c-.8-8.7-5.9-20.8-12.2-31.1-3.4,1.9-8.7,5-12.1,7,51.2-61.8,15.7-103.3-50.2-50.1,1.9-3.4,5-8.7,7-12.2-16.8-9.9-38.2-18.9-51.7-6.3-13.4,12.7-2,40.3,9.6,56.7-20.2,29.5-23.5,61.5,6.9,62.8,9.5.3,23.8-5.3,35.8-12.7-1.7-3-4.7-8.2-6.5-11.1,15.8,12.4,33.1,23.2,51.3,23.8,15.5.1,24.3-11.2,22.3-26.8h0ZM30.4,92.8c1.6-1.6,4.2-1.9,6.2-1.9,6.7-.2,18.7,4.7,28,10.5-9,7.4-18.2,16.5-25.7,25.7-6.6-10-14.2-28.6-8.6-34.3h0ZM62,178.9c-10.1,5.9-25.1,12.2-31.6,7-6.2-7.3,3-24.8,8.7-34.1,7.5,9.2,16.5,18.1,25.6,25.5l-2.7,1.6h0ZM117.2,187.9c-17.5.4-53.6-26.6-69.5-48.5,15.6-21.9,52.2-49.2,69.5-48.7,2.8,0,4.9.7,6.3,2.1,2.5,2.5,3.2,9.5-2.1,21.8-6.9,16.8-24.6,38-41.3,51.5,2.6,3.1,6.7,7.9,9.4,10.9,8.9-7.4,18-16.5,25.4-25.5,9.5,15.3,12.9,30.1,8.5,34.3-1.4,1.4-3.5,2.1-6.3,2.1h0ZM124.8,189.6c.3-.2.6-.4.9-.7-.3.2-.6.5-.9.7Z"/>
</svg>