<?xml version="1.0" encoding="UTF-8"?>
<svg id="Layer_2" xmlns="http://www.w3.org/2000/svg" version="1.1" viewBox="0 0 153.7 177">
  <!-- Generator: Adobe Illustrator 29.1.0, SVG Export Plug-In . SVG Version: 2.1.0 Build 142)  -->
  <defs>
    <style>
      .st0 {
        fill: #fff;
      }
    </style>
  </defs>
  <path d="M144.6,177H9.1C4.1,177,0,172.9,0,167.9v-91C0,34.4,34.4,0,76.9,0h0c42.4,0,76.9,34.4,76.9,76.9v91c0,5-4.1,9.1-9.1,9.1Z"/>
  <g>
    <path class="st0" d="M19.4,166.8l-10.1-30.7h7l3.7,12.7c.5,1.9,1.1,4,1.7,6.3.6,2.3,1.2,5,1.8,7.9h-1c.6-2.8,1.2-5.4,1.8-7.7.6-2.3,1.2-4.5,1.8-6.5l3.7-12.7h6.6l3.6,12.7c.6,1.9,1.1,4.1,1.8,6.4.6,2.3,1.2,4.9,1.8,7.8h-1c.6-2.8,1.2-5.4,1.8-7.8.6-2.3,1.2-4.5,1.7-6.5l3.7-12.7h7l-10.1,30.7h-6.6l-4.1-13.2c-.4-1.3-.8-2.7-1.2-4.2-.4-1.5-.8-2.9-1.2-4.5-.4-1.5-.8-3-1.2-4.5h1.3c-.4,1.5-.8,3-1.2,4.5-.4,1.5-.8,3-1.2,4.5-.4,1.5-.8,2.9-1.2,4.2l-4.1,13.2h-6.6Z"/>
    <path class="st0" d="M73.4,167.4c-3.1,0-5.9-.7-8.2-2s-4.2-3.2-5.5-5.5c-1.3-2.4-1.9-5.1-1.9-8.3s.6-6,1.9-8.4c1.3-2.4,3.1-4.2,5.5-5.6s5.1-2,8.2-2,5.9.7,8.3,2c2.3,1.3,4.2,3.2,5.5,5.6,1.3,2.4,1.9,5.2,1.9,8.4s-.7,5.9-1.9,8.3c-1.3,2.4-3.1,4.2-5.5,5.5-2.3,1.3-5.1,2-8.3,2ZM73.4,162.3c2,0,3.7-.5,5-1.5,1.3-1,2.3-2.3,3-3.9.6-1.6,1-3.4,1-5.3s-.3-3.8-1-5.4c-.6-1.6-1.6-2.9-3-3.9-1.3-1-3-1.5-5-1.5s-3.7.5-5,1.5c-1.3,1-2.3,2.3-3,3.9-.6,1.6-1,3.4-1,5.4s.3,3.7,1,5.3c.6,1.6,1.6,2.9,3,3.9,1.3,1,3,1.5,5,1.5Z"/>
    <path class="st0" d="M93.9,166.8v-30.7h6.4v4.9h.4c.6-1.7,1.7-3,3.2-3.9,1.5-1,3.3-1.4,5.2-1.4s.9,0,1.4,0c.5,0,1,0,1.3.1v5.8c-.2,0-.7-.1-1.4-.2-.7,0-1.4-.1-2.1-.1-1.5,0-2.9.3-4.1.9s-2.2,1.4-2.8,2.4c-.7,1-1,2.2-1,3.6v18.6h-6.6Z"/>
    <path class="st0" d="M116,166.8v-40.9h6.6v40.9h-6.6ZM122,156.5v-7.4h1.1l13.2-12.9h7.9l-15.1,14.8h-1.1l-6,5.5ZM137.1,166.8l-11.9-14.5,4.6-4.3,15.5,18.8h-8.1Z"/>
  </g>
</svg>