<?xml version="1.0" encoding="UTF-8"?>
<svg id="Layer_2" xmlns="http://www.w3.org/2000/svg" version="1.1" viewBox="0 0 153.7 177">
  <!-- Generator: Adobe Illustrator 29.1.0, SVG Export Plug-In . SVG Version: 2.1.0 Build 142)  -->
  <defs>
    <style>
      .st0 {
        fill: #6300ff;
      }

      .st1 {
        fill: #fff;
      }
    </style>
  </defs>
  <path d="M144.6,177H9.1c-5,0-9.1-4.1-9.1-9.1v-91C0,34.4,34.4,0,76.9,0h0C119.3,0,153.8,34.4,153.8,76.9v91c0,5-4.1,9.1-9.1,9.1h0Z"/>
  <path class="st0" d="M153.5,70.5c-.6.4-1.3.8-2.1,1.3-2.2,1.3-3.5,2-5.6,2.9-2.1.9-3.3,1.2-5,1.7-1,.3-1.6.3-2.2.4-.3,0-.6,0-.9.1,0,0,0-.1.1-.2.5-.5,1-1.1,1.9-1.9l.3-.3c1.3-1.1,2.4-2,4.3-3.1,2-1.2,3.3-1.7,5.5-2.6,1-.4,1.8-.6,2.6-.8.3,0,.6-.2.8-.2-.3-2.7-.8-5.3-1.3-7.9,0,0,0,0,0,0-1.2.5-2.2,1.1-3.2,1.9-.5.3-.9.7-1.5,1-.5.2-1.1.5-1.8.7-2.5,1-4,1.5-6.8,2.4-2.9.9-4.4,1.4-7.6,2.3-3.1.8-4.9,1.3-8.5,2.1-3,.7-4.8,1-7.5,1.5l-1.2.2c-3.5.6-5.1.9-8.4,1.5-3.2.5-5,.8-8.1,1.1,0,0-.2,0-.2,0,1.1-.6,2.1-1.1,3.5-1.9h.2c2-1.3,3-1.9,4.6-3.4,1.6-1.5,2.6-2.4,3.6-4.2,1-1.8,1.2-3,1.4-4.8.2-1.9,0-2.9-.3-4.6-.4-1.8-.7-2.8-1.7-4.3-1-1.6-1.8-2.3-3.3-3.5h0c-1.5-1.2-2.3-1.8-4.2-2.3-2-.6-3.4-.7-5.5-.4-2.2.2-3.2.7-5.3,1.7-2.1,1-3.2,1.6-5.2,3.2-2.1,1.6-3.2,2.7-5.2,4.8-1.5,1.5-2.4,2.6-3.5,4.1-.2-.3-.4-.5-.6-.7-.8-.7-2-.9-3.1-.4-1,.4-1.4,1.2-2,2.4-.4.8-.6,1.4-.8,2.3-.1.4-.2.8-.4,1.4-.2.8-.4,1.4-.5,2.1-.2,1-.5,1.9-.9,3.3-.3,1.2-.6,2.1-.9,3-.6,1-1.2,2-2,3.4-1.8,3.2-2.5,4.9-4.1,8.3-1.5,3.4-2.2,5.3-3.4,8.5-1.2,3.3-1.7,4.9-2.8,8.2-.5,1.7-.8,2.9-1.2,4.1-.3,1.1-.6,2.2-1,3.5-.5,1.8-.9,3-1.4,4.2-.3.8-.5,1.6-.9,2.6-.3.9-.6,1.6-.8,2.3-.5,1.2-.8,2.2-1,3.5-.3,2.1-.2,3.1.4,4.3.6,1.1,1.6,1.8,2.9,1.9.2,0,.3,0,.4,0,1,0,1.8-.4,2.4-1.4.1-.2.2-.3.3-.5.6-.8.8-1.8,1-3.3.1-1,.1-1.8,0-2.7,0-.1,0-.2,0-.3,0-.9.2-1.9.4-3.2.5-2.6.9-4.2,1.7-7.2.8-3,1.4-4.7,2.5-8.2,1.1-3.2,1.7-5.1,3-8.4,1.2-3.2,1.9-4.8,3.2-7.6h0c1-2.3,1.7-3.8,2.4-5.4.3-.6.5-1.2.8-1.8,1-2.1,1.6-3.3,2.3-4.8l.6-1.2c.4-.9.8-1.5,1.1-2.2.6-1,1-2,1.5-3.2,0,0,0-.1,0-.2.5-.7,1.1-1.5,1.9-2.4,2-2.4,3-3.6,5-5.5,1.9-1.8,3-2.7,4.9-3.9,1.9-1.2,2.9-1.6,4.5-2.1,1.6-.5,2.2-.6,3.6-.5,1.4,0,2.1.3,3.2.7.9.4,1.3.6,1.9,1.1l.3.3c.8.7,1.3,1,1.8,1.8.4.7.5,1,.7,1.7v.3c0,.2.1.3.2.4.1.6.2,1,0,1.7-.1.6-.3.9-.6,1.4-.2.2-.3.5-.5.9-.2.4-.3.7-.5,1-.3.7-.6,1.3-1.3,2.2-1.1,1.2-1.8,1.8-3.4,3-1.7,1.2-2.9,1.9-4.9,2.9-2.1,1-3.2,1.5-5.2,2.2-2.2.7-3.3,1-5.3,1.4-1.1.2-2,.3-2.8.3-.3,0-.6,0-.9,0-.4,0-.7,0-1,0-1.1-.1-1.9-.2-2.9,0-1.4.2-2,.4-2.7,1.3-.8.8-1.2,1.9-1.2,3,0,.9.3,1.6.8,2.1.1.3.4.7.7,1,.8.8,1.5,1.2,2.9,1.2.9,0,1.5-.1,2.3-.4.5-.2,1-.3,1.7-.5.6-.1,1.1-.2,1.6-.3,1.1-.2,2.2-.5,3.8-.7,1.5-.2,2.5-.4,3.7-.6.8-.1,1.6-.2,2.7-.4.8-.1,1.5-.2,2.1-.3,1.6-.2,3-.5,5.2-.8,3-.5,4.8-.8,8.1-1.5,2.4-.5,4-.8,5.9-1.2l2.5-.5c1-.2,1.9-.4,2.7-.5,1.9-.4,3.6-.7,6.1-1.3,3.4-.8,5.2-1.2,8.6-2.1,1-.2,1.8-.5,2.6-.7-.9.7-1.5,1.2-2.3,2.1-1.1,1.3-1.5,2.1-1.8,3.7-.3,1.5-.3,2.6.5,4,.7,1.4,1.7,2.2,3.2,2.9,1.5.7,2.6.8,4.5.5,1.4-.2,2.3-.7,3.5-1.3.3-.2.7-.4,1.1-.6,1.4-.7,2.3-1.2,3.4-1.9.5-.3,1.1-.7,1.8-1l1-.6c1.5-.9,2.7-1.6,4.4-2.6,0-2.1,0-4.2-.3-6.3Z"/>
  <g>
    <path class="st1" d="M24,168.6l-9.2-28.9h6.4l3.4,12c.5,1.8,1,3.8,1.6,6,.6,2.2,1.1,4.7,1.7,7.4h-.9c.5-2.7,1.1-5.1,1.7-7.3.6-2.2,1.1-4.3,1.6-6.1l3.4-12h6.1l3.3,12c.5,1.8,1,3.8,1.6,6.1.6,2.2,1.1,4.7,1.6,7.4h-.9c.6-2.7,1.1-5.1,1.7-7.3.5-2.2,1.1-4.2,1.6-6.1l3.4-12h6.4l-9.3,28.9h-6.1l-3.8-12.4c-.4-1.3-.8-2.6-1.1-3.9-.4-1.4-.7-2.8-1.1-4.2-.3-1.4-.7-2.9-1.1-4.3h1.2c-.3,1.4-.7,2.8-1.1,4.3s-.7,2.9-1.1,4.2c-.4,1.4-.7,2.7-1.1,3.9l-3.8,12.4h-6.1Z"/>
    <path class="st1" d="M73.6,169.2c-2.9,0-5.4-.6-7.5-1.9-2.2-1.2-3.8-3-5-5.2-1.2-2.2-1.8-4.8-1.8-7.8s.6-5.6,1.8-7.9c1.2-2.3,2.9-4,5-5.2,2.2-1.2,4.7-1.9,7.5-1.9s5.4.6,7.6,1.9,3.8,3,5,5.2c1.2,2.3,1.8,4.9,1.8,7.9s-.6,5.6-1.8,7.8c-1.2,2.2-2.9,4-5,5.2s-4.7,1.9-7.6,1.9ZM73.6,164.4c1.9,0,3.4-.5,4.6-1.4,1.2-.9,2.1-2.1,2.7-3.7.6-1.5.9-3.2.9-5s-.3-3.5-.9-5.1c-.6-1.5-1.5-2.8-2.7-3.7-1.2-.9-2.8-1.4-4.6-1.4s-3.4.5-4.6,1.4c-1.2.9-2.1,2.2-2.7,3.7-.6,1.5-.9,3.2-.9,5.1s.3,3.5.9,5c.6,1.5,1.5,2.8,2.7,3.7,1.2.9,2.7,1.4,4.6,1.4Z"/>
    <path class="st1" d="M92.3,168.6v-28.9h5.9v4.7h.3c.6-1.6,1.6-2.8,3-3.7,1.4-.9,3-1.3,4.8-1.3s.8,0,1.3,0c.5,0,.9,0,1.2.1v5.4c-.2,0-.6-.1-1.3-.2-.6,0-1.3-.1-1.9-.1-1.4,0-2.7.3-3.8.8-1.1.6-2,1.3-2.6,2.3-.6,1-.9,2.1-.9,3.4v17.6h-6.1Z"/>
    <path class="st1" d="M112.6,168.6v-38.6h6.1v38.6h-6.1ZM118.2,158.9v-7h1l12.1-12.2h7.3l-13.9,14h-1l-5.5,5.2ZM132,168.6l-10.9-13.7,4.2-4,14.2,17.7h-7.5Z"/>
  </g>
</svg>